<mxfile modified="2020-03-12T15:50:26.759Z" host="www.draw.io" agent="Mozilla/5.0 (Windows NT 10.0; Win64; x64) AppleWebKit/537.36 (KHTML, like Gecko) Chrome/80.0.3987.132 Safari/537.36" etag="bqhTwYyiFYrKj-eI347k" version="12.8.4" type="github">
  <diagram id="f106602c-feb2-e66a-4537-3a34d633f6aa" name="Page-1">
    <mxGraphModel dx="1459" dy="724" grid="1" gridSize="10" guides="1" tooltips="1" connect="1" arrows="1" fold="1" page="1" pageScale="1" pageWidth="1169" pageHeight="827" background="none" math="0" shadow="0">
      <root>
        <mxCell id="0" />
        <mxCell id="1" parent="0" />
        <mxCell id="14" value="&lt;div style=&quot;text-align: center&quot;&gt;&amp;nbsp; &amp;nbsp; &amp;nbsp; &amp;nbsp; &amp;nbsp; &amp;nbsp; &amp;nbsp; &amp;nbsp; &amp;nbsp; &amp;nbsp; &amp;nbsp; &amp;nbsp; &amp;nbsp; &amp;nbsp; AWS&amp;nbsp; &amp;nbsp;Cloud&lt;/div&gt;" style="fillColor=#f5f5f5;strokeColor=#000000;shadow=0;fontSize=14;align=left;spacing=10;fontColor=#333333;9E9E9E;verticalAlign=top;spacingTop=-4;fontStyle=0;spacingLeft=40;html=1;" parent="1" vertex="1">
          <mxGeometry x="769" y="60" width="400" height="331" as="geometry" />
        </mxCell>
        <mxCell id="wVaqROrAR56s4Joq7bS0-719" value="&lt;div style=&quot;text-align: right&quot;&gt;&amp;nbsp;&lt;/div&gt;" style="fillColor=#F6F6F6;strokeColor=#000000;shadow=0;gradientColor=none;fontSize=14;align=left;spacing=10;fontColor=#717171;9E9E9E;verticalAlign=top;spacingTop=-4;fontStyle=0;spacingLeft=40;html=1;" parent="1" vertex="1">
          <mxGeometry x="400" y="57.019999999999996" width="360" height="331" as="geometry" />
        </mxCell>
        <mxCell id="wVaqROrAR56s4Joq7bS0-735" style="edgeStyle=orthogonalEdgeStyle;rounded=0;orthogonalLoop=1;jettySize=auto;html=1;" parent="wVaqROrAR56s4Joq7bS0-719" target="wVaqROrAR56s4Joq7bS0-733" edge="1">
          <mxGeometry relative="1" as="geometry">
            <Array as="points">
              <mxPoint x="75" y="150.45454545454544" />
            </Array>
            <mxPoint x="130" y="150" as="sourcePoint" />
          </mxGeometry>
        </mxCell>
        <mxCell id="wVaqROrAR56s4Joq7bS0-748" style="edgeStyle=orthogonalEdgeStyle;rounded=0;orthogonalLoop=1;jettySize=auto;html=1;entryX=0.5;entryY=1;entryDx=0;entryDy=0;" parent="wVaqROrAR56s4Joq7bS0-719" target="wVaqROrAR56s4Joq7bS0-745" edge="1">
          <mxGeometry relative="1" as="geometry">
            <Array as="points">
              <mxPoint x="290" y="151" />
            </Array>
            <mxPoint x="205" y="150.31034482758628" as="sourcePoint" />
          </mxGeometry>
        </mxCell>
        <mxCell id="wVaqROrAR56s4Joq7bS0-733" value="" style="aspect=fixed;perimeter=ellipsePerimeter;html=1;align=center;shadow=0;dashed=0;spacingTop=3;image;image=img/lib/active_directory/database.svg;" parent="wVaqROrAR56s4Joq7bS0-719" vertex="1">
          <mxGeometry x="50" y="45.13636363636363" width="50" height="37" as="geometry" />
        </mxCell>
        <mxCell id="wVaqROrAR56s4Joq7bS0-738" value="" style="aspect=fixed;perimeter=ellipsePerimeter;html=1;align=center;shadow=0;dashed=0;spacingTop=3;image;image=img/lib/active_directory/database.svg;" parent="wVaqROrAR56s4Joq7bS0-719" vertex="1">
          <mxGeometry x="275" y="225.68181818181816" width="50" height="37" as="geometry" />
        </mxCell>
        <mxCell id="wVaqROrAR56s4Joq7bS0-745" value="" style="aspect=fixed;perimeter=ellipsePerimeter;html=1;align=center;shadow=0;dashed=0;spacingTop=3;image;image=img/lib/active_directory/database.svg;" parent="wVaqROrAR56s4Joq7bS0-719" vertex="1">
          <mxGeometry x="260" y="45.13636363636363" width="60" height="45" as="geometry" />
        </mxCell>
        <mxCell id="wVaqROrAR56s4Joq7bS0-736" value="&lt;hr&gt;" style="aspect=fixed;perimeter=ellipsePerimeter;html=1;align=center;shadow=0;dashed=0;spacingTop=3;image;image=img/lib/active_directory/database.svg;" parent="wVaqROrAR56s4Joq7bS0-719" vertex="1">
          <mxGeometry x="50" y="225.68181818181816" width="50" height="37" as="geometry" />
        </mxCell>
        <mxCell id="wVaqROrAR56s4Joq7bS0-749" style="edgeStyle=orthogonalEdgeStyle;rounded=0;orthogonalLoop=1;jettySize=auto;html=1;" parent="wVaqROrAR56s4Joq7bS0-719" target="wVaqROrAR56s4Joq7bS0-736" edge="1">
          <mxGeometry relative="1" as="geometry">
            <Array as="points">
              <mxPoint x="75" y="180.54545454545453" />
            </Array>
            <mxPoint x="140" y="181" as="sourcePoint" />
          </mxGeometry>
        </mxCell>
        <mxCell id="wVaqROrAR56s4Joq7bS0-830" value="" style="aspect=fixed;perimeter=ellipsePerimeter;html=1;align=center;shadow=0;dashed=0;spacingTop=3;image;image=img/lib/active_directory/database_server.svg;labelBackgroundColor=#E6E6E6;strokeColor=#000000;" parent="wVaqROrAR56s4Joq7bS0-719" vertex="1">
          <mxGeometry x="139" y="73.22121212121212" width="41" height="50" as="geometry" />
        </mxCell>
        <mxCell id="wVaqROrAR56s4Joq7bS0-862" value="" style="shape=image;verticalLabelPosition=bottom;labelBackgroundColor=#ffffff;verticalAlign=top;aspect=fixed;imageAspect=0;image=https://cdn-images-1.medium.com/fit/t/1600/480/1*VWxvb7hQdMZg_5VWjbQQmg.png;" parent="wVaqROrAR56s4Joq7bS0-719" vertex="1">
          <mxGeometry x="79.5" y="-7.021212121212121" width="190" height="57" as="geometry" />
        </mxCell>
        <mxCell id="-iunoCh2YkMXYXxtYYaG-24" value="&lt;font style=&quot;font-size: 8px&quot;&gt;Port 443&lt;/font&gt;" style="text;html=1;resizable=0;points=[];autosize=1;align=left;verticalAlign=top;spacingTop=-4;" parent="wVaqROrAR56s4Joq7bS0-719" vertex="1">
          <mxGeometry x="180" y="279" width="50" height="20" as="geometry" />
        </mxCell>
        <mxCell id="8puVXK4cIaAp6UsHXV3n-150" value="IFRS16" style="text;html=1;resizable=0;points=[];autosize=1;align=left;verticalAlign=top;spacingTop=-4;" parent="wVaqROrAR56s4Joq7bS0-719" vertex="1">
          <mxGeometry x="274" y="21.5" width="60" height="20" as="geometry" />
        </mxCell>
        <mxCell id="-iunoCh2YkMXYXxtYYaG-34" value="" style="shape=image;verticalLabelPosition=bottom;labelBackgroundColor=#ffffff;verticalAlign=top;aspect=fixed;imageAspect=0;image=data:image/png,iVBORw0KGgoAAAANSUhEUgAAAK4AAADACAYAAAHq9WhSAAAAAXNSR0IArs4c6QAAAARnQU1BAACxjwv8YQUAAAAJcEhZcwAADsQAAA7EAZUrDhsAACecSURBVHhe7Z0LjF7FdccBP7CxWYwxEJoXqdrQ0CgPhUCCyKNVlFZJRVMpqiK1ykNN1DZqRVVFVStVpa8oJGlwZALENgFTCMY2+/TahgLOg7QQSJo2T1IKKQmwu/Y+DAmQ2IB7f/PNuTt3vpl7576+73679y+d3e+bb+7cuWfOnHPmzOOeEIK3XXvg708YO3IcOnvnQ9/6wKe3v13/FI71tz0+RQG/u2X3B3VSOvQN9TcHoh/NmvzZx7f8mv54wi8fnD5+zs7/+S/5fP6ND9zGZ/kfo+sGnju+6N8OHacgu+BT98+pNJXJgcsvv3zNCX/4mRt+W3+PIYVBH/7U515H2trRQz99xcGZuLCX3TUT59FJi1AVHX+y6wez4Ms+ufk80taOzDxlFvLyu/0Fv3rHfV9Upf/KTf99QKclIBdCwn8zTWVyQdVY+OvhM7ALlkYTvicQldPJaxR43o5vjqbdwIeLth/cbF7XKdjBY6B+JHMWOdBV48qgyky5cxFsuvWRHyRq/OErrnlT6Rvo6/2sIC2iS7bd9Qmd4obO9+odX9+pUxRSG68MBqvxFvW1LvS9n/3i+0rfQF+f2XidDH5s2P3jH5FPGQcDtfE4q0LFEVe2wlrT8/THDqrseX6QIaLfuWrkT3SKGzrfS2558F6dEg4aQl2oC1E+RiHoAvS3VChDHOU9+bbpBZ3kgFWY1My0b+Zn27orPySkQtg1KUjMvnyHThqbf05ltBEXbt1lzfDMk3LxaRPTT+lkVehll1++gc8v3vngA5LnJXcu+hqCd1wz+dcnnLnzoW/r7wo4JnLR0PjUEZ3cKfgTm8/l85m3Pvw9yXNO5C2pDCZUZT18WXfb1GG5GCJt9d6F+DsVUBktxBZbeZWOwqW/mwWbn39/87++h/8JSDlxwYIo4XXX//sN+ls4ouvQw/qbo2AT/JhBXi2mzB2ZqgZlUuP0npMT8kQxK6IvymEuiuj6uDcmCta44AtfvTa+awrMAY9OWgRp796y5yP6a3WovfGUta0Kwh6z8dT/ooiuf+dVw38hn7saT3yFrKdQoykKcFXIVXAlUDdz3bEk4v5Qec9LoGzNo+uVY+lDPCTLuFHsnZatEFAOjBTmoHNv/u6X6OomkebKK6TsYyXQBYZ0SjP6YOr+TZPTz0q6Gf7wQfmT+r6ZilZliDL64gCAriQVENowOfPM2Xd0h0uAmS9yb14wv0Muj8SEKHDxZhbhTFzEGZMzMaeG9jz+uE6OsXJ8/nl+23BgLlGB1eOzv6BSZ95+uKvpUTQbJqZUZAXKbAE4Lx/UkwRi3cj0nBmygVaML6jC+CzOI52M76eNPaFcNDM/tGZi7oUPXbH1En4LQdx/1J+49m6cc2DqKDehomftejgxbqGgVRMLyi8c2j+fKGfjnv/7Xx4Akbnguq9co5MV4KjJ4Xd9fvjP9U9uxPWM/ig1H/1Pk1+AnMsNhCRgJmR2OjN9xejcMfO7kM7qhfIio7qpchMV1gj1VEy89K7FTqeTFM7e32kZKERLxND3V7pbw1thJ3QBQspbLwkVDrLK1T85sVjhyL2yxzVNhIq/qgrrp6vUa6sYCWvJn1gk4sSGwKhPpgxLmMC8qFYY93LVJ1+ns6BGuMYNilDeeyYqvGnnww/q9MbiVTfcvyeuMGQHJJsEM2yWFIk4sSEw6pMpw2rspy/ohcpTARl9P5dhKtXplM+hCy9KSrfmQFxhuJf34n4gOd0WfRiITtcFEp0/9Al56qPkWl+wcnTuWZ1cG1QQQ98vb5/KhNM1zEmZs411Ii3+QDq/l4qPFoGs23AR8QQ4ZgZQoISFsqjSOFY816IpEWWvALYeV/NveWFyI2v8xe8yVnvxnclZFEknGqSTvFCzMvqeQdbU1AQ6qQs0rbIyGkR2pFKQTu6KCulkhZfe8oN7Zb2LE7oO/jhbRiWBeXOI+EKk3hJDdZ21q7Ibb5+NPwvprH446xRQUQGhKzvmIHTyZCfSA+zKCm2643D2dK0Js26K1RkVlRsR3LMnPInanBVVgN/XjCQn6k4/MHucZUwrRudf0EkxiBLJEqez9k8f08luRPXrrPAI4KhUxiTCUkxR6iwKdBL5fe3I4rQm4DemOs0yhE4enX1GZ/ND1TOgsoI//sSW166dmO0KifLbhokpNf8q1sn8bc3e+UT+l9516PgpIzl1bEhlsTwUbt5MbhhpgoTeTXDWmrv94Ce3vYXZabMMoZNHDv9MZ/NDKvuxyz/1Ip3UBdSUFAr3bJXD3Dqdhojk2uGZeKocEAPmOmLCOimGKbNZwWqFmLMZ3DVBBzt9/+Hn5AHWTiabWGfzagNXKDUTcR2jP7HZy4B9Y7i57rapWTNNZ01Ulg7q0rNB5jWql7JoUlnSZPCYNTtjWi9QxIK94qZvH7RVoA0JusSrBczKxuB7RNxMp6QCGZYKMZ+hkxUknc6okzKRiAyZUN/tRIFcEFFPfFHjfjolCZXu+1EDxyVRUESFXDkDiWlmTZkBbvJ1/oRD5grKkhnGDwLXdf4MAKSyqb5lA6AmKWPONp27cR2jP/HwuomI6rVotHQlpYdWPSgsCqlgvFDCrGwMvkfUtfSzR0jO6BhQ3+1EgVwQURWTfGmIRytCLqh0348mzIIiwrGwfYRQcJ25wEIobVmCAvk6f/KhbJC5UIyYazt/BgADWdmmWzA17Io523TuxnWM/iQnHBqGqF5dFkwmotUPDYAwMB5mmZWNwfeICq2UrgBxK7vq1ZUokAsiKmoAQmEHrXVyEird96OGqqhZUERqqFMCrqGSc5G8CfJ1/oSja5FFQUpdduoC13X+DAAGsrKDY8FA07kb1S8OtISE6vuGqF72JszGjsHSVRocjkhN3PUBiou6DjopAHJBRKERxaJQ5Rv308n5EfdEgxiWZI6ZPKCjJLYaaMq17DUUFBpHogsSs+u1VK4q0EJoHd+6hLpJ1j3INsOBAi3rCgnYhHa0J9frBPfhfiGNioRmTXfUDl8MnMpleqcpYN6IOSAoa+4IoPjy5E8D9fapjy47WiVccaNciwcyYE+qmcRvOlsMe7LNpK4DW0qiy3JFVNo3sZdIFZHI9WPdaw1Y6MOqEHMutw7moluZ1WS9g2uG/9ThqcOqsJyITyvQFLzCMJ4k0VTWQr5mx303mxPqWcQE+sqJBbVX6dy7O2l5mSsnA/kIRtO4VQyWbH75yzQy6ZTcoFUxHqiMtBlgegH7+lkyxAIsFxMgfjvvpm/t05fFeOWN/znpyg+xRIMVPWwOY0VZloCIwSs76evnn04sGvSi+7ke1CSkksU0F2+769P6smDQUDCgqNHCUMqaGVfdTFo5MvtzfVlumLsAVIJSztGXoEWMAUAS2ACKVNoVP+P2w8dPHD+iNnua6UP7Z4//0RXXXqiLUMxcOzwdn7UBIYmyTAtCbdhryv70U1e/JkstmMQSGXYYVmmcE8ZfPqjtLxWAioZKiRAMkXPKALrMPG8E4vspo0kDSQOY6ue3Pj/2lzSgmYd60KB2OgRzV40cfkZ5BBXhN6/e+1eLzOU8h/hLMdgP7SKkddXo7LNpUoJ+dHV/LD/qhN/SltP5QHmhDc6z6MuKQXgZn5NRAYMBhgoGpLltSCXu0tDY1IK4SOsj78B+SCGXQWIUlWUIT9976Oeop6wRF79T5yqkV7llwkfFS/3hvBu+MSafq9oYEVnr+13rc22y1zya5BomiyuGV4BK4fQgFtDb17oIxmMPfmPr3r/RxZWGahjNu5fd/P175HPMXGk5M1xVdgvOxl2PPmI/NLoPPWfOk6QNItKY6yIZRKA++Ew3Z2WsnY8BjiqsBMztQzJqU/XVaV3MFdgOMuR60CpQB3PrgIqoWTyxo2xBzLXh2jFU9Qz2a6+/90YYDYW4R2agJ/fS6AAkQvaaFB9SUIi5NhIH5liEz5y3vH4B4yu+vovy+sCVMNcHKhsS1xUizsqyBO5PxYoGs9GxXE+jY/3zBOURhtxz5R44mau8hR5CXKC6ZiZk5kE9bA/xG9dM/m1cj6p83BYawsuqBxHLHiZjFS91wpu33v0Z+dyvCfVBhTnt9frt92yTzzFzxaAlwmYRlQ2YL1XY4wAJ1wZ7C7Zvm3tTzRJDYrFlRK4RbDBzTdgSLVRlLLRJUM/leF48EJ3FiULMdcE3xQ4x7m4646mfa+QpxAg0bbrKhcqY6wPzUa7p+BDCPxVCSoSotJCZbuZ3lZdFGO8qF4LUztw8wDAIw4oyyrxOGkIZnD7Aydxej9CWKt567e3/2MXczpcWpZHgp/lFJbQoDOGhPUK7eOudV8jn0muhlhlMr+mibQevlM8xc8WgxbunNfXLMDQdykUz+CQrIYO9BXs2E0usf1qWUDwy+AHZfnAhV8w15cFAYanGHgjauwYYWSGAQsy1QeQ/ba8BeqjorEKvwDMkzjW3CObmFZ5KmOsDOtoOcGQRPUAGABBTRVQS8q2wkWkdSGY1IMpJa3QXweCqbEutzM0DKiIMMdcAlCVzpKZv1TM4mUtl9O8tSiAxK64WvcmXFuWheSnB8/jNTC2DS0LzsCuIbuqKdg4tH8z1dakxbNtRbufQ3FDehcEn5SHlge1E5y5giSFkDq0QEobPoKqWATUNqEl7+A/FhqpOMKbGn7RvLkRkLW2FeRPA4MM8rdwmfmtc4AppzjtKIj+NxdybjLZkICBE2Wykk+8YD8mHRHF92opFF6H6mj6RWhgwCebAmDQpCiGuN0dneWdulySYLRYpRHLT1I1N5BWGsrZCJHxZgYfG2qatE6iLMEyojSXBeHxj1zkroWRKYxrllXKbuL7pp1Ep8LCuB7AJpvfKfUPncq/Qhs7zStPakRZohlADTRzh4V4hDC4/Vqgn/qwNupGvUmWCzsxasM2JnTkcA5DVKNxHdv+wa75MIyLhaYJSu65WAwLHjZU6KAlO7XDtKVs/MjWnsyRw1q6Hv+/KX/T0Dxu+FZ2VTygoibBuwm6dKkcuvOnCxSzSdZYEzKMBTGLzts5SCZBol+9diSTbUy9q5WJOiP+qpMGDupnLfBt1CN086ILSwQYvCgdt1JJKo6AiB7+/besdH7f33Mpuco5gMZdt1sFcmMhBFa5zFtjsXVRH25Kcq7Hs9Qm+2dcs+BhgkhzNsm7fvGK8/XsR5ppHDaQRm751cbmhhtUGjxTDs2DufCy7XowKwLg8W/U5lWnV3gXFdNKKMNeVbhKSjHrQRZWCKYhKhfpgZqzamcaRXzM88yQqwfXALoIJdF9dRAJDE4fil8qb5GIuL8w6beyJI7hrdSxSUWpB880pkOZBZGUYS0Adw5FmTZFo/FOkWiTUR5xNoy9LYO3kgjO/vDMLJnPKUpoRBWLo7GNf8sJkcLcO1j8UMVwAv9PWmerku4iBWVv1MWyn7nl8ev3knDpQjWtRByvG5l/wjfvfe+VN7105Pv+CGEL+r907f3zjnkcfyYoVwEgYb0s59S/jJyeG2ILEvFBBZEkgFefoE86cKRIooScwaiviX+IVcHgbqkHeqZdGpfx3zUcVTDITyqiD39ty6/sjI/MUZ864KmwTUrNidPZo1oQnw2Fbws7cN33sEhZqp4Cumff4rY37Zo694fqvXa+LKARTPXRSEl/KAzWAOkAtmJWny5+yb0GdxCTnNEIdFTD3nL5c4cLtX95iMhV/GRfLlDzeqve2zx/4B32JwsrR2WMhbhhEPsqs3NDVyVwTr7/ua9e5TsBzkTwg43czfbX1dtRTxpKHuckk6Hs+u+sDZrqL8ECoz/k33L9bFVYHND87KqxC5sKgPPoNQipXjc0e1UUocHqp2SB8po6mz8z7c5FwfYkCRtAcFVIHego9xq4PkssJTejyKuMkws8LtqNmK2Du+TseGHUNM31EXnSi2pyRAnSubSxhdNYJTG/c/qXPnTQ6/3xIjxHCB7cbqxA0P99x9cTHLDHOD6y/q7ImYehCHHkGG/id9nGrdH1GVWY8IhTUj7fvhvamIt6MQIUKND874Um9Zyp1+JYBTgO1K8noirdJpznookZOHZv+KafiYdxgAMZwRaQbfQ1BN14xvqDycS9UASfj4S9nNQADC5efC60fnX5SZysEc81Eh7n6C1TmgF4Z7UBpESekkxPxTDXiO5KQgYK+LAGMkiu/UOgAhsaTOqf1qBCYUgt1MRdSEZ+KoYa7IzNP+YI4MtKyCVdJF5HAqeMzT4fqU3MAU0StBMPio5O5iioAjYQ1tofFLsrLXImKIfEnRVIsbzsPIa6xDzUuDQcPE8y1Y5Rl3RO8AdfDmSTHsBZlrkkMTNZEepsGtYP0LqrioEwFm2f6c1JyI9gMLhMtQocxJDYfiIfmoXClzMargrmQ8oc1eDgV5nSc9o+Py0yJzloI9oRtPKmgv3cxN4akRYQXUUYPcy1uXpqLUwdzTYixxZ0rciC9DXsFZ4I/Os3P3Aj2hFzQVEZB1M3cqmBPgTl5on9LZS6w3Quo7PSPC6xPcDHrV292zzYzKHDlHxp+/JDOUilc69G8rpv+PZO5At+CkCrXfOEm0W0hBhZZfie+tOSHio4wfVBum+OZu2caLOh8wcwVqAeQ/Aahl6tkdL/AIMq3Ij74+XT+3Mw1oRaIyLUWoa9j69lg4LHYO3RMQgXmdkn1taWYK6B7Zh1GjM7q3Ky/QPqy1vPyLGWCN1JOJcw1kSUJLuJhcZNQOWX0plxPWfSqPBteKu1puszKmesCUSgzWtRvgukqUJO3u4dCRxl7wlwX6HY8IFJbxx4JDCzSyz1KdfEi0HW4cOvBLX1h7pKG5uc7rh67LP6yFFypfkPFsTU/O2pB64jC601bxIhVXMTTpM6Nud2iCJRu7+KlkQANgvPfNCRCtU5vwaDa3JQlCDsGLpRkLjB+7LkLM4BQwSWDZypRf+5mLpDvEdUZwx102LHdOGCuv7uZG8GOFch6rBbdhqtrvYdO9zIXuOKZZdY1DDow9PbOUefKdf1bKnMF9tYgqHPh8oAaXFnPn7oCX+cJYi5An7hiANxkKbpueEuuYBM8yPSkdN5g5prwxUNVHHSA1QZDV1/0ToUvQ6GvKcRcATo5bUs9GzDKxGfrBoJgW3ybCqm/xLVSWAngTYSEDpF6FpqkLdSrGnRjJhWzZiCgSuYCdVmVMdeG2o6UItU+wnjCBIgZDeKxEA8sMw18lnTySH6X4Q0hDsBPLOooC11ubcy1gaTCjH7OSGATqEPtdkHfr2fMTQPSiKSj/0QK8zQC6kiuk9mHvup6Xa9GMHfJQfPz3Vv2fKRlbtXQ/Gzn0OqA5ue7tuz+aPylnUMrj+45NP1FUYtSMH39LuZmnU/Qwg/loRi8XGSunveBym4ZWo5wTfUkJNccUbVzaDmh+WZSt59r/NhKcDZUuNXgmUrUn7uZC+R7RH05LHJAYL+UL3gOTc0LSXpEvYxiNR1KZRq8UWRCp3mZCxJHikQEw5e7LrbX/CrptaF/S2WuwI7TYviWkz7mWe2e3DXja0LnCWIu6FLcmqo+3K1JsHWqUKaK1PmCmStALfiWw2edtDQIUNtxHc9Gbw2eiNXX5GauCV9FIBqgU3izQTzFXgBjUiGB0deWYq6JkE0mvTwI3gXm+UIOhi+t6nQ5lTHXBA+RdzqHWQSZF5OZBCFdbBfMPOa1lOW6h4+Q3EobXZdbC3NtoKt46JDZ4boJ3YmhqtVv1/fqCXN9YEEbEsPD5pW2NKIsyqTsvriMuh59Ze6SRcvcGqH52Vl22zK3Wmh+dkIF+ks/3aSlAnMOTSUkjEmLUhCPKI49mFMU7RxacSifXPMxMVQ2l1K2MxD5YQqoGkDZaOfQiqFrctILI1Pa0LNFB6qXGzzTySkwMrf70Pywz13Tydmww3CtFC8icx9aCFz70JazscMDMO0SlHnGWBZcy+GX04DDllRI+bNVAYvoChkWefncoKBLp0aUa7qnCHyBcKL8td64ZuB++rZOYYPiRR+9gAqpOSoixNRPk5kNs3wzvEKldWoVgNG2srcJtSJTOPqynkGmgkKmnxodAkBaXfoqiwggQTIXJg0hJN3STDPzyvWustMIVTDQy7XwLoo8eNVEHZaNp4Obg0phOrsK5lMGvYY1FUi2vk2LXgCGM/2CGjG3troaqqnEghvqjHfGc2AjeK422DZAwHYySqcBGc80YWlEE4nwB8IOn+i4bci+ZiCY2HZMlG9tZRkSjUv5NCokTp6KKPQRPLvUBa1K3agn9c27WCyEEG60OPfq97MPDDgAAdNdRjgZHtKojGfRKst9EweuA0KPwCOQZXiLUNNpOqtcliFgJgOGIseloGUQbmXqWn+uMqA0EO4ibUKkEA3d5OBcIdDjVSzd8dAughEIZ79MFQ3AW2t4uyKvaeMdSryPSYh31PH2L15IyKuB8mp14k68nJXXX/LeJl6mbZbPS2KlfOrRb4GgHRBqezo1jVAwA6eZGSiF+F+YdUyPmv5sCHitsu8Voz4iP9fpIlLBsw6Nd79fNo3O2Ddz7M1RR9ZFNAYINGE2NeftaF+TGDA3YrrBBCYbDemqsEmYoab3QvXOr0jruQTIR0pTRtfpIlKBi+R7O56P0PhZr+VuCnA5QrZJYYH7Mv5AWLMOlmSQVLe5h1Ebdz36CGaV9/mefmD2eEy8jXVsamHF6NwxTC5+WBazBlVw0eS8NJq3z/JmcLQ6POCF0tSPMuDPKaOdl/X3yv0g5JYlJyi02oU4bfYZk4Fw6Ky1AoHlrbauhs4iXt/O28dpXISa9+ljxmBykwWXsQIve0U48b8RRPzhkPdU28TLwvHPdbV6BixuWmQDIa9sSQjaFe3puhF+aj98Fx7u3Fu+9x9n7Z8+5mqYooRQM1hat29evVic/3wn3ZUf6oXgrt8/7/ytCFHfDSOPTfVr8CvASvgmixDuwhMkCIcvPIKPUlnPKAkekLlzNIgeqT9FY7/87vyaKI14Z7gI9YqJI8dP2z+n7tELwT01upfrtzRCG6OV0c5oaVyJpsa1fZYcAc7l1hD+cBWk0gcINBTuCz7uSWPzz5029sSRLA2ah3gR/6qJhWDBvWD7V69dP5lPCNMEFx8WXx4ff91tU4dfe/29N2KOm6JU8oK6u9YYqgFfGnhgVyirl2uaqcMlW++8Av8TP5aYpgy40CAMuBBChFF8U31pLnAd1+Pjci98XnxfNKtLSGzCt8SErxk59DT+py42FXSkleNzz2+6Y9ZZpk10jNV7F44P7Z99joHVmuGZJ/F3mQIvOgHDdVxPOQi7GsxFPI0HtRG/4Ts8ec2O+27uRxzZFaViDOWsC4kuaWcgpLPUjou33fkvmyafyGVKIYTNN+DSRecC110cdZ6h4ccei3hyzOTHyaOHnzlr50PfufSq3R/S2XODzon12rjrRw+tHJt7Dn+asvm/emz2F0O3PTbFIdxFhYby0V5oYIQToUcgGZS5+JdGXHPOroe+02st7pPHrri/7Sh7JbxGvG/zjks3jv5kpkr/FKHeePvs8ao0lgsIOuViCUR7yQybhOTe8IV7tlV5T0AjinDiLuA24D64+FCUztw39cyrbvzGhL5lz+HyAGK5ZAbL/jHU/NUFhIuYI8JG4+cx4zZh1hEkfEW02okRrZ2MzHxEmGKeF833yhu/ORkiXDAOQWXggw/quqeLzr17+vgZkzPPrh2ZOoI7FHIv8ly07eCVqyOTvmJ8IXqGeTXwKhIG8xFlmYM5YuNv+fwd/9xrxeWCS/OqoAGwp+0yneE+QnxTGXCZUQSYj3Ay6l8VCSQj/7waiChBJCQ/17eLgak8c/ePfrhpcvpZl9DQqRj80eh0Ojo+UQS0IZEElxVRgrx3+mfRs9xvm2IabM3Y4WeqGkhS53gwpyMNxIX7raBC4AoWdNxAK/HC7bzkpHmwfTeZMavSPCIo0YDlWVsbIkgbdv/4J77YMb4ggxo0sfjWxEoJ0yHQLmuBMNER6BAuwcUK5LUy8IIOu3JiIdF56SRYHTNEhuD2cgxTFO/bfNOltoyqI1ntxHNv+u5BfU1fQMPLFCZMrlo4ITGPSkNHJnjV2OzRX7/hvl1B5lv7tHldBYj8XBc6Yr/sk5vPe/HOHz6wYnT+hRMjWrO34+Lg6uDyIKBDkfuAULosQQjFQh1ZBmLhhPcII4bwohfAVbJl9K1bb/+nLsE9eXj6iL6mZ0DjMBt29v6poy7mFiERTlPL0CG6RqYlQZiLSAb3UO5CNBjE5WCQRqSDkJOpiasA/JKwFuOAMpEDH4lF6OfgDPzSLQ9+3ZZR3LAuwYXUgK2HQPucNvzYVJGIAo1Fo5mRgyKBeHFFuH718OGfrRyfO7pqfO751ZFWU1p5fO6FlRNzz60YnT160XVfvqqMRvrQFVsvYTC4ZuTw0ycafI80P+Gwx96y9Y6PFxV0eQ474lBEqNHG64anZkOsQx1QSwoM/ggtCq7x/iihXgsvQBhe8cXvfAUthfaKA+MR8Z1GQDiJOFD5IgxlQOJyRdRM2N5o1Br9dzWiTUORmzE08viMLjYIpwxPz3OdqzwX4eOaMWpZ6VZUqOGvOQGhLFFUtslnXAbSGWj2c/CmFm1ZMink1bhCrHxviq+TB5hv1xoGNIhLQCD8Rky86zcfrRs/9Exo48Js/NS0OuQhW6jLTrw0Cc5dM4ZyzRRcoaa+DkYtXo60Lw1HA5ZZi1BEcIkx5xFctBkaXcJ2TBtndagiZAs1PFJC3XAllKZlTXIKLomuSQmI9Ly+Yx3AnTjnQHUDORqayYheCK6rHAiBZmB38uSCmigRoa5yJpEOsmniiSfftP3uz+pqNQK+Nw4x2fAHV173TjvdK7gURu/07R/DhejnMjnMIiEcV+P4iEZDEHAbzLCPPAff+ym4LqK++KNYFuKu+J34/5RTRqgZK/Sz/QDjE99ab3NNruKv9Xuq4JpQroKVTwh/pF+jTgYa+LGyTkCICAN1o6EZiIUE2pssuLoIJ5joQGOJUMugllAgzwOhyXEbGJD2c9IBa+2z5hCyZLszpQRXwEOnbb/gN4RJZx8oDKrgNh3IjE+zQiw5SJO5SgTXBAJqr3OwaRB29woYwOR1P/KYXCY+0HqucnzEAAuLoYsYCCCoWZskWTjTmbbNRuWCawJzldarhNDIVLhfrkUWYDrmVCIUYmqFiPfKTBwHe+QdqGIGz9/xwKhMCtjlQyoagMsT1aPffmgWaEfaM80KCzFeCrVOJmoVXBuUEXIwCMRaYHzoIg/VonegE7FSK0RIIfIhB2WjUD0VXBuMEENPPhHCnLDEkvhj0zXPUgEWAdeOtsp7ZCvuQdXrQEBfBdcFhBkzk+dcKpO4DgYj2P0cKQ8ScOloX/Z1hVpEm9CkXN8rZdI4wfUBhhBfLcpYm9Ac+N8wG1MHI5aKBkdD8jx0Xp6N5yyqCGyC/5TZb14NjOCmgcEA0Qw0bVWCXZSImCAoJuHa0Ng2YUbtvJCr3F4RmnMQXDG/4Forw9689e7P6GsGFjwsD4fQENTut5D3itC2dAieG6sFH+yA/qDh0s23vt9+TudC8pfd/P179DXLDmJ6IQYaptYUQtvbmhMKGcy4rvNpaTqe1GUprPgqijdu/9LnbD52BNfSuKuGZ59uwkKaFi3Ambc+/D1TPpFXp48LNXmnb4vlAyyPSz69ggvF+9dbtOgDcMm65FJ7B6mCCzFhsFRCRy0GA4wzsmbnnIJ70ujcUTuNUXnr97aoG1mLc4ScgksisT07HSLcspxHuC2qBxqW6IpL3nAXiKrY6V7B1WV6F5DnWZbWooULyJlv7Qqxd7HwhQRXwMIL301IVxq6RYsMEBtPi3e7lGEpwRXQC9K2XkCo/XbRSwvAFH2WvGRt/apEcE3gm4Q40wjyoOyCaFEOrD7LElQImQiNVlUuuDZY/BIy7Ylrge/cauXBBoLHiruQNidPUXeydsG1QTl5ltgx4WFuF2/RDGDGETpMuqvdXISg0pZVhFB7Lrg2EEheDRS69UOICAZMgxGYIl1ciwpB2yCcuH4hGtQkLCjuQV0WtO+C6wI9EhcDhvmiFiHEBAnMY1TKg7aTJYuAH3R6+KOm8R38CyVRIL2M5TdScNMgB13ALPs9AGUJQWeAgK/NQg60DQxqqt8NL6gfg1xZ9ghfeIaqeYNwU35TeDFwgpsFc/9UHQ24FAmhRPOiNRGIQbBMS05w8wAhl4XhNByCnteXaxrJbgeeh+fi+ZbiGGBZC24vAIOzKC3Q3sIN+OaWUSvx9du/ep2+pkWLvuNdW3Z/1JZR3vzZJbjLec9Zi+bBtefs7Vv3/13XnjPW47bhpBZNwdCeHz9qyifkdBUgNUvSokWfwaDTJZ9ewYXUWQQtWvQJREtccgmlCi5EbHQphlhaNBdEXgrtOeNcBTsN7TvoJ6K0aD5q23OmBLjdc9aiQqAQ1ZjKIW/MigbHcTuJHfh6AAtizHwtWuRF2jYeBFkiW4UEV0Caby0AN6cSOmuLFl6wfDJtjbbanGuhlOAKcJx9al2Im7dTmy0AWpMVfmlLVhHktJVolQiuCXpP1vpOtDR+SivIywP4qwhq1gKmLGE1UbngmqBnESwOWVqIxmbxeDs7N/igHbMssBAKrEhkqlbBtUHkgYqG7mqgB6rFy23MuJGgPYk0sYzS1X4uYgKhighUTwXXBXqnOr7Uul8aYXKIbMC0dhNlvcCdo40Yo6QNoFxEmJQ2qiPW33fBdQE/B0Zl+UQ+4jpMlSykbn1pNxAoBAA+oTzyblgVko2RvTwno5GC6wMuA66GWi9h1a8owXRMnewzg/kwZdAmVBgbUG8ILcez8Fx5tWQawfc4+N9nDJTgpgHtIZsG0bZFtfVyJQbQCDpHBeAaNN1KLRnBzQMemucRIa9SKzWJ0JAII8+JFua56/A3+4FlKbhVAI0E82ySzZcuopMgSBAm15UHPrvKbSMrScATt4w6E1u0aAa8gmtPGqgFvC1aNAScAWHKJ6Sskj3zgSC3s1otmgJ7XKImtYAKBxk/QEqYW7ToMxgL2LKZWInISNTOoGKoLVr0Ca49Zwx09c+LUJJsZcRtaEe5LXoJojiumT3X+yFicJFrYQx+xlKJC7ZoLnxrWYJPjmRGxVUAPaFd7NKiSqAQfeu6md3T2fLB5RxDuBCpqrtFiwwQi/Ute0XzVhLZwv+1471CpLeTFi1CgBylrS1RQYI6gFpPO2EEorcM2oqrFvWAMVOWvBB67elCnxAhhlgI3pRj2VvUCxQWMuGzzkL4tI0ZKzGgC1liSB6c7lYrDzZQXJj2kDXTCDLjpcbPyFJBHip0pT3CTE9lnW073dw84JuyAD9PeyKoPXUB6gLuAsLpG0n6SFbjI9RtLLkeoCwQTixh1pEDNqFNaddl5Q7iLrD6Jy+zTKJ34+DTw2H+kujlFYOlgYQvGW+UWUzPtSiRNpbvARqg6I7TNLL3ncluAWgQXBSpK52d+qPpeJ68ViyNUASys7pVAhUDTY1gY9pouKxRbEsdgk/wS/abtZqzwcD3ks2VoqGWkqBjkcRVYiIIjawfvUWLJOgMYrZNwrwiQDaZLolJbXy7KE444f8BdKhPyjqfNv8AAAAASUVORK5CYII=;" parent="wVaqROrAR56s4Joq7bS0-719" vertex="1">
          <mxGeometry x="139" y="130" width="53" height="59" as="geometry" />
        </mxCell>
        <mxCell id="8puVXK4cIaAp6UsHXV3n-160" style="edgeStyle=orthogonalEdgeStyle;rounded=0;jumpSize=5;orthogonalLoop=1;jettySize=auto;html=1;strokeColor=#3F3F9E;strokeWidth=2;fontFamily=Verdana;fontSize=6;" parent="wVaqROrAR56s4Joq7bS0-719" source="-iunoCh2YkMXYXxtYYaG-34" target="wVaqROrAR56s4Joq7bS0-738" edge="1">
          <mxGeometry relative="1" as="geometry">
            <mxPoint x="330.5009662801549" y="309.78571428571445" as="sourcePoint" />
            <mxPoint x="200.99510787557733" y="282.6428571428571" as="targetPoint" />
            <Array as="points">
              <mxPoint x="166" y="244" />
            </Array>
          </mxGeometry>
        </mxCell>
        <mxCell id="2" value="Architecture: BI Platform&amp;gt; DMP / Data Warehouse" style="fillColor=#4DA1F5;strokeColor=none;shadow=1;gradientColor=none;fontSize=14;align=left;spacingLeft=50;fontColor=#ffffff;html=1;" parent="1" vertex="1">
          <mxGeometry x="-0.02" width="1160.02" height="40" as="geometry" />
        </mxCell>
        <mxCell id="wVaqROrAR56s4Joq7bS0-760" value="" style="dashed=0;html=1;shape=mxgraph.aws3.cloud;fillColor=#F58536;gradientColor=none;dashed=0;rounded=1;shadow=0;comic=0;strokeColor=#E6E6E6;strokeWidth=6;fontFamily=Verdana;fontSize=12;fontColor=#000000;" parent="1" vertex="1">
          <mxGeometry x="835.5" y="66" width="52" height="30" as="geometry" />
        </mxCell>
        <mxCell id="wVaqROrAR56s4Joq7bS0-766" value="&lt;div style=&quot;text-align: center&quot;&gt;DEV TEST&lt;/div&gt;" style="fillColor=#f5f5f5;strokeColor=#000000;shadow=0;fontSize=14;align=left;spacing=10;fontColor=#333333;9E9E9E;verticalAlign=top;spacingTop=-4;fontStyle=0;spacingLeft=40;html=1;" parent="1" vertex="1">
          <mxGeometry x="769" y="100" width="200" height="288" as="geometry" />
        </mxCell>
        <mxCell id="wVaqROrAR56s4Joq7bS0-769" value="&lt;div style=&quot;text-align: center&quot;&gt;&lt;br&gt;&lt;/div&gt;" style="fillColor=#f5f5f5;strokeColor=#000000;shadow=0;fontSize=14;align=left;spacing=10;fontColor=#333333;9E9E9E;verticalAlign=top;spacingTop=-4;fontStyle=0;spacingLeft=40;html=1;" parent="1" vertex="1">
          <mxGeometry x="769" y="300" width="200" height="90" as="geometry" />
        </mxCell>
        <mxCell id="wVaqROrAR56s4Joq7bS0-772" value="" style="shape=image;verticalLabelPosition=bottom;labelBackgroundColor=#ffffff;verticalAlign=top;aspect=fixed;imageAspect=0;image=http://decisionnelclient.org/wp-content/uploads/2017/09/rstudio-hex-shiny-dot-psd.png;" parent="1" vertex="1">
          <mxGeometry x="851.5" y="320" width="55" height="63" as="geometry" />
        </mxCell>
        <mxCell id="wVaqROrAR56s4Joq7bS0-775" value="&lt;div style=&quot;text-align: center&quot;&gt;&lt;br&gt;&lt;/div&gt;" style="fillColor=#f5f5f5;strokeColor=#000000;shadow=0;fontSize=14;align=left;spacing=10;fontColor=#333333;9E9E9E;verticalAlign=top;spacingTop=-4;fontStyle=0;spacingLeft=40;html=1;" parent="1" vertex="1">
          <mxGeometry x="769" y="133" width="200" height="85" as="geometry" />
        </mxCell>
        <mxCell id="wVaqROrAR56s4Joq7bS0-765" value="" style="shape=image;verticalLabelPosition=bottom;labelBackgroundColor=#ffffff;verticalAlign=top;aspect=fixed;imageAspect=0;image=https://www.dataclaritycorp.com/wp-content/uploads/2018/09/wherescape-red-icon_Opt.png;" parent="1" vertex="1">
          <mxGeometry x="825" y="156.5" width="88" height="50" as="geometry" />
        </mxCell>
        <mxCell id="wVaqROrAR56s4Joq7bS0-774" value="" style="shape=image;verticalLabelPosition=bottom;labelBackgroundColor=#ffffff;verticalAlign=top;aspect=fixed;imageAspect=0;image=https://www.slipstreambi.co.za/sites/default/files/styles/large/public/products/Wherescape_0.png?itok=-hhMVMUl;" parent="1" vertex="1">
          <mxGeometry x="815.5" y="123.5" width="77" height="46" as="geometry" />
        </mxCell>
        <mxCell id="wVaqROrAR56s4Joq7bS0-776" value="&lt;div style=&quot;text-align: center&quot;&gt;&amp;nbsp; &amp;nbsp; &amp;nbsp; &amp;nbsp; &amp;nbsp; &amp;nbsp; &amp;nbsp; &amp;nbsp; &amp;nbsp; &amp;nbsp; Guacamole&amp;nbsp;&lt;/div&gt;" style="fillColor=#f5f5f5;strokeColor=#000000;shadow=0;fontSize=14;align=left;spacing=10;fontColor=#333333;9E9E9E;verticalAlign=top;spacingTop=-4;fontStyle=0;spacingLeft=40;html=1;" parent="1" vertex="1">
          <mxGeometry x="769" y="218" width="200" height="82" as="geometry" />
        </mxCell>
        <mxCell id="wVaqROrAR56s4Joq7bS0-773" value="" style="shape=image;verticalLabelPosition=bottom;labelBackgroundColor=#ffffff;verticalAlign=top;aspect=fixed;imageAspect=0;image=https://www.channelbiz.es/wp-content/uploads/2012/04/QV_3-D-icon_RGB.png;" parent="1" vertex="1">
          <mxGeometry x="869" y="225.5" width="67" height="71" as="geometry" />
        </mxCell>
        <mxCell id="wVaqROrAR56s4Joq7bS0-813" value="&lt;div style=&quot;text-align: center&quot;&gt;PROD&lt;/div&gt;" style="fillColor=#f5f5f5;strokeColor=#000000;shadow=0;fontSize=14;align=left;spacing=10;fontColor=#333333;9E9E9E;verticalAlign=top;spacingTop=-4;fontStyle=0;spacingLeft=40;html=1;" parent="1" vertex="1">
          <mxGeometry x="969" y="100" width="200" height="290" as="geometry" />
        </mxCell>
        <mxCell id="wVaqROrAR56s4Joq7bS0-816" value="&lt;div style=&quot;text-align: center&quot;&gt;&lt;br&gt;&lt;/div&gt;" style="fillColor=#f5f5f5;strokeColor=#000000;shadow=0;fontSize=14;align=left;spacing=10;fontColor=#333333;9E9E9E;verticalAlign=top;spacingTop=-4;fontStyle=0;spacingLeft=40;html=1;" parent="1" vertex="1">
          <mxGeometry x="969" y="133" width="200" height="85" as="geometry" />
        </mxCell>
        <mxCell id="wVaqROrAR56s4Joq7bS0-817" value="" style="shape=image;verticalLabelPosition=bottom;labelBackgroundColor=#ffffff;verticalAlign=top;aspect=fixed;imageAspect=0;image=https://www.dataclaritycorp.com/wp-content/uploads/2018/09/wherescape-red-icon_Opt.png;" parent="1" vertex="1">
          <mxGeometry x="1001.5" y="156.5" width="88" height="50" as="geometry" />
        </mxCell>
        <mxCell id="wVaqROrAR56s4Joq7bS0-818" value="" style="shape=image;verticalLabelPosition=bottom;labelBackgroundColor=#ffffff;verticalAlign=top;aspect=fixed;imageAspect=0;image=https://www.slipstreambi.co.za/sites/default/files/styles/large/public/products/Wherescape_0.png?itok=-hhMVMUl;" parent="1" vertex="1">
          <mxGeometry x="1007" y="123.5" width="77" height="46" as="geometry" />
        </mxCell>
        <mxCell id="wVaqROrAR56s4Joq7bS0-819" value="&amp;nbsp; &amp;nbsp; &amp;nbsp; &amp;nbsp; &amp;nbsp; &amp;nbsp; &amp;nbsp; &amp;nbsp; &amp;nbsp; Guacamole" style="fillColor=#f5f5f5;strokeColor=#000000;shadow=0;fontSize=14;align=left;spacing=10;fontColor=#333333;9E9E9E;verticalAlign=top;spacingTop=-4;fontStyle=0;spacingLeft=40;html=1;" parent="1" vertex="1">
          <mxGeometry x="969" y="218" width="200" height="82" as="geometry" />
        </mxCell>
        <mxCell id="wVaqROrAR56s4Joq7bS0-820" value="" style="shape=image;verticalLabelPosition=bottom;labelBackgroundColor=#ffffff;verticalAlign=top;aspect=fixed;imageAspect=0;image=https://www.channelbiz.es/wp-content/uploads/2012/04/QV_3-D-icon_RGB.png;" parent="1" vertex="1">
          <mxGeometry x="1069" y="226" width="67" height="71" as="geometry" />
        </mxCell>
        <mxCell id="wVaqROrAR56s4Joq7bS0-827" value="&lt;div style=&quot;text-align: center&quot;&gt;&lt;br&gt;&lt;/div&gt;" style="fillColor=#f5f5f5;strokeColor=#000000;shadow=0;fontSize=14;align=left;spacing=10;fontColor=#333333;9E9E9E;verticalAlign=top;spacingTop=-4;fontStyle=0;spacingLeft=40;html=1;" parent="1" vertex="1">
          <mxGeometry x="769" y="250" width="100" height="50" as="geometry" />
        </mxCell>
        <mxCell id="wVaqROrAR56s4Joq7bS0-825" value="" style="outlineConnect=0;dashed=0;verticalLabelPosition=bottom;verticalAlign=top;align=center;html=1;shape=mxgraph.aws3.s3;fillColor=#E05243;gradientColor=none;" parent="1" vertex="1">
          <mxGeometry x="834" y="256" width="33" height="38" as="geometry" />
        </mxCell>
        <mxCell id="wVaqROrAR56s4Joq7bS0-829" value="" style="shape=image;html=1;verticalAlign=top;verticalLabelPosition=bottom;labelBackgroundColor=#ffffff;imageAspect=0;aspect=fixed;image=https://cdn2.iconfinder.com/data/icons/whcompare-servers-web-hosting/50/sftp-128.png;strokeColor=#000000;" parent="1" vertex="1">
          <mxGeometry x="775" y="255.5" width="39" height="39" as="geometry" />
        </mxCell>
        <mxCell id="wVaqROrAR56s4Joq7bS0-874" value="" style="edgeStyle=orthogonalEdgeStyle;fontSize=12;html=1;endArrow=blockThin;endFill=1;rounded=0;strokeWidth=2;endSize=4;startSize=4;dashed=0;strokeColor=#4284F3;" parent="1" source="wVaqROrAR56s4Joq7bS0-829" target="wVaqROrAR56s4Joq7bS0-825" edge="1">
          <mxGeometry width="100" relative="1" as="geometry">
            <mxPoint x="1095.5" y="264" as="sourcePoint" />
            <mxPoint x="1059.5" y="261" as="targetPoint" />
            <Array as="points" />
          </mxGeometry>
        </mxCell>
        <mxCell id="wVaqROrAR56s4Joq7bS0-877" value="&lt;div style=&quot;text-align: right&quot;&gt;&amp;nbsp; &amp;nbsp; &amp;nbsp; &amp;nbsp; &amp;nbsp;ATHLON LANDING ZONE - ALZ&lt;/div&gt;" style="fillColor=#F6F6F6;strokeColor=#000000;shadow=0;gradientColor=none;fontSize=14;align=left;spacing=10;fontColor=#717171;9E9E9E;verticalAlign=top;spacingTop=-4;fontStyle=0;spacingLeft=40;html=1;" parent="1" vertex="1">
          <mxGeometry x="8.5" y="57.01999999999998" width="360" height="170" as="geometry" />
        </mxCell>
        <mxCell id="wVaqROrAR56s4Joq7bS0-897" style="edgeStyle=orthogonalEdgeStyle;rounded=0;orthogonalLoop=1;jettySize=auto;html=1;entryX=0.5;entryY=0.267;entryDx=0;entryDy=0;entryPerimeter=0;labelBackgroundColor=#ffffff;strokeColor=none;" parent="1" source="-iunoCh2YkMXYXxtYYaG-34" edge="1">
          <mxGeometry relative="1" as="geometry">
            <mxPoint x="603.6896551724137" y="255.2613793103449" as="targetPoint" />
          </mxGeometry>
        </mxCell>
        <mxCell id="wVaqROrAR56s4Joq7bS0-898" value="Sintbwalz001" style="text;html=1;resizable=0;points=[];autosize=1;align=left;verticalAlign=top;spacingTop=-4;" parent="1" vertex="1">
          <mxGeometry x="218.5" y="125.01999999999998" width="90" height="20" as="geometry" />
        </mxCell>
        <mxCell id="wVaqROrAR56s4Joq7bS0-901" value="" style="aspect=fixed;perimeter=ellipsePerimeter;html=1;align=center;shadow=0;dashed=0;spacingTop=3;image;image=img/lib/active_directory/database_server.svg;labelBackgroundColor=#E6E6E6;strokeColor=#000000;" parent="1" vertex="1">
          <mxGeometry x="177" y="473" width="74" height="90" as="geometry" />
        </mxCell>
        <mxCell id="wVaqROrAR56s4Joq7bS0-902" value="Sintbwalz001" style="text;html=1;resizable=0;points=[];autosize=1;align=left;verticalAlign=top;spacingTop=-4;" parent="1" vertex="1">
          <mxGeometry x="227" y="498" width="90" height="20" as="geometry" />
        </mxCell>
        <mxCell id="wVaqROrAR56s4Joq7bS0-903" value="&lt;div style=&quot;text-align: right&quot;&gt;&amp;nbsp; &amp;nbsp; &amp;nbsp; &amp;nbsp; &amp;nbsp; &amp;nbsp; &amp;nbsp; &amp;nbsp; &amp;nbsp; &amp;nbsp; &amp;nbsp; &amp;nbsp; &amp;nbsp;DAIMLER ESP 2.0&lt;/div&gt;" style="fillColor=#F6F6F6;strokeColor=#000000;shadow=0;gradientColor=none;fontSize=14;align=left;spacing=10;fontColor=#717171;9E9E9E;verticalAlign=top;spacingTop=-4;fontStyle=0;spacingLeft=40;html=1;" parent="1" vertex="1">
          <mxGeometry x="34" y="430" width="400" height="170" as="geometry" />
        </mxCell>
        <mxCell id="wVaqROrAR56s4Joq7bS0-904" value="&lt;div style=&quot;text-align: right ; font-size: 16px&quot;&gt;Dev/ Test&lt;/div&gt;" style="fillColor=#F6F6F6;strokeColor=#000000;shadow=0;gradientColor=none;fontSize=14;align=left;spacing=10;fontColor=#717171;9E9E9E;verticalAlign=top;spacingTop=-4;fontStyle=0;spacingLeft=40;html=1;" parent="1" vertex="1">
          <mxGeometry x="34" y="460" width="200" height="140" as="geometry" />
        </mxCell>
        <mxCell id="wVaqROrAR56s4Joq7bS0-905" value="&lt;div style=&quot;text-align: right&quot;&gt;Prod&lt;/div&gt;" style="fillColor=#F6F6F6;strokeColor=#000000;shadow=0;gradientColor=none;fontSize=14;align=left;spacing=10;fontColor=#717171;9E9E9E;verticalAlign=top;spacingTop=-4;fontStyle=0;spacingLeft=40;html=1;" parent="1" vertex="1">
          <mxGeometry x="234" y="460" width="200" height="140" as="geometry" />
        </mxCell>
        <mxCell id="wVaqROrAR56s4Joq7bS0-910" value="&lt;div style=&quot;text-align: right&quot;&gt;&amp;nbsp; &amp;nbsp; &amp;nbsp; &amp;nbsp; &amp;nbsp;DAIMLER&lt;/div&gt;" style="fillColor=#F6F6F6;strokeColor=#000000;shadow=0;gradientColor=none;fontSize=14;align=left;spacing=10;fontColor=#717171;9E9E9E;verticalAlign=top;spacingTop=-4;fontStyle=0;spacingLeft=40;html=1;" parent="1" vertex="1">
          <mxGeometry x="434" y="429" width="240" height="171" as="geometry" />
        </mxCell>
        <mxCell id="wVaqROrAR56s4Joq7bS0-911" value="&lt;div style=&quot;text-align: right ; font-size: 12px&quot;&gt;&lt;br&gt;&lt;/div&gt;" style="fillColor=#F6F6F6;strokeColor=#000000;shadow=0;gradientColor=none;fontSize=14;align=left;spacing=10;fontColor=#717171;9E9E9E;verticalAlign=top;spacingTop=-4;fontStyle=0;spacingLeft=40;html=1;" parent="1" vertex="1">
          <mxGeometry x="8.5" y="227.01999999999998" width="360" height="180" as="geometry" />
        </mxCell>
        <mxCell id="-iunoCh2YkMXYXxtYYaG-17" value="" style="shape=image;verticalLabelPosition=bottom;labelBackgroundColor=#ffffff;verticalAlign=top;aspect=fixed;imageAspect=0;image=http://web.corballis.ie/technology_logos/microsoft-sql-server-logo-180x180.png;" parent="1" vertex="1">
          <mxGeometry x="46.5" y="101.01999999999998" width="50" height="50" as="geometry" />
        </mxCell>
        <mxCell id="-iunoCh2YkMXYXxtYYaG-18" value="" style="shape=image;verticalLabelPosition=bottom;labelBackgroundColor=#ffffff;verticalAlign=top;aspect=fixed;imageAspect=0;image=https://www.slipstreambi.co.za/sites/default/files/styles/large/public/products/Wherescape_0.png?itok=-hhMVMUl;" parent="1" vertex="1">
          <mxGeometry x="45.5" y="136.01999999999998" width="72" height="43" as="geometry" />
        </mxCell>
        <mxCell id="-iunoCh2YkMXYXxtYYaG-20" value="" style="shape=image;verticalLabelPosition=bottom;labelBackgroundColor=#ffffff;verticalAlign=top;aspect=fixed;imageAspect=0;image=https://www.dataclaritycorp.com/wp-content/uploads/2018/09/wherescape-3d-icon_Opt.png;" parent="1" vertex="1">
          <mxGeometry x="45.5" y="178.01999999999998" width="26" height="23" as="geometry" />
        </mxCell>
        <mxCell id="-iunoCh2YkMXYXxtYYaG-21" value="" style="shape=image;verticalLabelPosition=bottom;labelBackgroundColor=#ffffff;verticalAlign=top;aspect=fixed;imageAspect=0;image=https://www.dataclaritycorp.com/wp-content/uploads/2018/09/wherescape-red-icon_Opt.png;" parent="1" vertex="1">
          <mxGeometry x="88.5" y="174.01999999999998" width="62" height="36" as="geometry" />
        </mxCell>
        <mxCell id="-iunoCh2YkMXYXxtYYaG-31" value="" style="shape=image;verticalLabelPosition=bottom;labelBackgroundColor=#ffffff;verticalAlign=top;aspect=fixed;imageAspect=0;image=https://frontier.com.co/content/images/thumbs/0001610_licencia-windows-server-standard-2012-r2-64-bit-licencia-2-procesadores-2-maquinas-virtuales-espanol_550.png;" parent="1" vertex="1">
          <mxGeometry x="223" y="133.01999999999998" width="50" height="50" as="geometry" />
        </mxCell>
        <mxCell id="-iunoCh2YkMXYXxtYYaG-33" value="" style="image;html=1;labelBackgroundColor=#ffffff;image=img/lib/clip_art/computers/Server_Tower_128x128.png" parent="1" vertex="1">
          <mxGeometry x="143" y="124.51999999999998" width="80" height="80" as="geometry" />
        </mxCell>
        <mxCell id="-iunoCh2YkMXYXxtYYaG-38" value="&lt;div style=&quot;text-align: right&quot;&gt;&lt;br&gt;&lt;/div&gt;" style="fillColor=#F6F6F6;strokeColor=#000000;shadow=0;gradientColor=none;fontSize=14;align=left;spacing=10;fontColor=#717171;9E9E9E;verticalAlign=top;spacingTop=-4;fontStyle=0;spacingLeft=40;html=1;" parent="1" vertex="1">
          <mxGeometry x="34" y="600" width="400" height="180" as="geometry" />
        </mxCell>
        <mxCell id="-iunoCh2YkMXYXxtYYaG-69" value="&lt;font style=&quot;font-size: 5px;&quot;&gt;Goshawk:1541&lt;br style=&quot;font-size: 5px;&quot;&gt;AMIPRD01&lt;/font&gt;" style="text;html=1;resizable=0;points=[];autosize=1;align=left;verticalAlign=top;spacingTop=-4;fontSize=5;" parent="1" vertex="1">
          <mxGeometry x="185" y="800" width="60" height="20" as="geometry" />
        </mxCell>
        <mxCell id="-iunoCh2YkMXYXxtYYaG-78" value="" style="shape=image;verticalLabelPosition=bottom;labelBackgroundColor=#ffffff;verticalAlign=top;aspect=fixed;imageAspect=0;image=http://www.logospng.com/images/179/oracle-monitoring-amp-performance-opsview-179262.png;" parent="1" vertex="1">
          <mxGeometry x="114.5" y="639" width="44" height="44" as="geometry" />
        </mxCell>
        <mxCell id="-iunoCh2YkMXYXxtYYaG-79" value="" style="shape=image;verticalLabelPosition=bottom;labelBackgroundColor=#ffffff;verticalAlign=top;aspect=fixed;imageAspect=0;image=http://www.logospng.com/images/179/oracle-monitoring-amp-performance-opsview-179262.png;" parent="1" vertex="1">
          <mxGeometry x="75.5" y="640" width="44" height="44" as="geometry" />
        </mxCell>
        <mxCell id="-iunoCh2YkMXYXxtYYaG-80" value="" style="shape=image;verticalLabelPosition=bottom;labelBackgroundColor=#ffffff;verticalAlign=top;aspect=fixed;imageAspect=0;image=http://www.logospng.com/images/179/oracle-monitoring-amp-performance-opsview-179262.png;" parent="1" vertex="1">
          <mxGeometry x="155.5" y="639" width="44" height="44" as="geometry" />
        </mxCell>
        <mxCell id="-iunoCh2YkMXYXxtYYaG-53" style="edgeStyle=orthogonalEdgeStyle;rounded=0;jumpSize=5;orthogonalLoop=1;jettySize=auto;html=1;strokeColor=#3F3F9E;strokeWidth=2;fontFamily=Verdana;fontSize=6;" parent="1" source="-iunoCh2YkMXYXxtYYaG-40" target="8puVXK4cIaAp6UsHXV3n-17" edge="1">
          <mxGeometry relative="1" as="geometry">
            <mxPoint x="-156" y="620" as="targetPoint" />
            <Array as="points">
              <mxPoint x="102" y="610" />
              <mxPoint x="84" y="610" />
            </Array>
          </mxGeometry>
        </mxCell>
        <mxCell id="-iunoCh2YkMXYXxtYYaG-97" style="edgeStyle=orthogonalEdgeStyle;rounded=0;jumpSize=5;orthogonalLoop=1;jettySize=auto;html=1;strokeColor=#3F3F9E;strokeWidth=2;fontFamily=Verdana;fontSize=6;" parent="1" source="-iunoCh2YkMXYXxtYYaG-41" target="8puVXK4cIaAp6UsHXV3n-17" edge="1">
          <mxGeometry relative="1" as="geometry">
            <mxPoint x="142.0000000000001" y="638.5" as="sourcePoint" />
            <mxPoint x="203" y="583.5" as="targetPoint" />
            <Array as="points">
              <mxPoint x="142" y="610" />
              <mxPoint x="84" y="610" />
            </Array>
          </mxGeometry>
        </mxCell>
        <mxCell id="-iunoCh2YkMXYXxtYYaG-98" style="edgeStyle=orthogonalEdgeStyle;rounded=0;jumpSize=5;orthogonalLoop=1;jettySize=auto;html=1;strokeColor=#3F3F9E;strokeWidth=2;fontFamily=Verdana;fontSize=6;" parent="1" source="-iunoCh2YkMXYXxtYYaG-82" target="8puVXK4cIaAp6UsHXV3n-17" edge="1">
          <mxGeometry relative="1" as="geometry">
            <mxPoint x="174.85714285714278" y="632.6818183966866" as="sourcePoint" />
            <mxPoint x="203" y="583.5" as="targetPoint" />
            <Array as="points">
              <mxPoint x="181" y="610" />
              <mxPoint x="84" y="610" />
            </Array>
          </mxGeometry>
        </mxCell>
        <mxCell id="-iunoCh2YkMXYXxtYYaG-94" value="" style="shape=image;verticalLabelPosition=bottom;labelBackgroundColor=#ffffff;verticalAlign=top;aspect=fixed;imageAspect=0;image=https://cdn3.iconfinder.com/data/icons/flags-of-countries-3/128/Portugal-512.png;" parent="1" vertex="1">
          <mxGeometry x="165" y="616" width="12" height="12" as="geometry" />
        </mxCell>
        <mxCell id="-iunoCh2YkMXYXxtYYaG-40" value="" style="aspect=fixed;perimeter=ellipsePerimeter;html=1;align=center;shadow=0;dashed=0;spacingTop=3;image;image=img/lib/active_directory/database.svg;labelBackgroundColor=#E6E6E6;strokeColor=#000000;" parent="1" vertex="1">
          <mxGeometry x="83" y="627.5" width="38" height="28" as="geometry" />
        </mxCell>
        <mxCell id="-iunoCh2YkMXYXxtYYaG-41" value="" style="perimeter=ellipsePerimeter;html=1;align=center;shadow=0;dashed=0;spacingTop=3;image;image=img/lib/active_directory/database.svg;labelBackgroundColor=#E6E6E6;strokeColor=#000000;aspect=fixed;" parent="1" vertex="1">
          <mxGeometry x="122" y="627" width="38" height="28" as="geometry" />
        </mxCell>
        <mxCell id="-iunoCh2YkMXYXxtYYaG-52" value="" style="shape=image;verticalLabelPosition=bottom;labelBackgroundColor=#ffffff;verticalAlign=top;aspect=fixed;imageAspect=0;image=data:image/jpeg,/9j/4AAQSkZJRgABAQAAAQABAAD/2wCEAAkGBxMQEhUSEhIVFRUVFRcVFRcVFRUVFxUVFRUXFhUVFRYYHSggGBolHRUVITEhJSkrLi4uFx8zODMtNygtLisBCgoKDg0OGhAQGy0lICUuLS0tLS0tLS8tLS8tLS0tLS0tLS0tLy0tLS8tLS0tLS4tLS0tLS0tLS0tLS0tLS0tLf/AABEIAM4A9AMBEQACEQEDEQH/xAAcAAABBQEBAQAAAAAAAAAAAAABAAIDBAUHBgj/xABHEAABAgQCBwUFBgQEBAcBAAABAAIDERIhBDEFBhNBUWFxByIygZEUQqGx0SNSYoLB8DNykqJDU8LSc7Lh4iQ0ZHR1k6MW/8QAGwEBAAMBAQEBAAAAAAAAAAAAAAECAwQFBgf/xAA9EQACAQIEAwUFBwMEAQUAAAAAAQIDEQQSITEFQVETImGRoVJxgbHRFBUyQsHh8CMzcgZiovFzJDRDgpL/2gAMAwEAAhEDEQA/AO1PfVYIBMdRY9UA1rKTM5IAvbXcdEAXPmKRn9EAmGixQDQyRq3Z+qAMQV5bkAa7U78kAIfcz3/ogM7S+mcPhBtMRGZDGYDj3nD8LB3neQVZSUdzWlQqVXaEbnhtO9r+HFsNAfFI955ENvUC7j5gLCWJS2PVpcFqS1qSS9TC/wD7bTOMEsPC2bTkYcG0ucSLMfJU7WrLZHYuHYOl/cd/e/0QBoHTUe8TGOZPMHEPH9sKYTLVe7LKpgoaRhf4fUT+znERP4mNBPMRH/Mp2Le7JWPpR/DD5DR2XvHhxYn/AMNw+TlHYPqT95Re8CQ6k6QhfwdIHyiR4fymp7Ka2ZX7Vhpfip+iE1+n8JdsR8UD8UOPMdH9/wDVP60SrpcPq8rea/Ymw/atioTqcZhGk76a4L5bzS6YJ9FKxEl+JGc+DU5K9Kf6ntNE9pGAxcm7XYvPuxxQP65lnxW0a0JHm1uGYilra68P5c9ZCiADOc7gi4IPArU88DGUmZQBe2u46IAufUKRn9EAmGix6oBrWyNRy+qALxXluQBL5infl6IAQ+5nvQAovVuzQEm3CAa5lFx8UAmNruelkA1r6jSckAXuosOt0AXMpFQz+qATBXc7uCAaHzNO7L0QBeaMt/FAZundOYfAw9tiIoZO7Rm554MYLnPy3qspqKuzahh6laWWCucm1m7VMTiTs8I3YsNg6QdFdP1Degmea5J4hvSJ9BhuD04d6q7v0/coaI1FxOKdtcU90MOuS8l8Z2WYOVvvGfJVjSlLWR01MZSpLLTV/dse70RqphMNIsghzh78TvunxE7N8gFvGnGOx59XFVam78jbqVzmsKaCwpoLBmgsCaCwpoLEWKw7IraYjGvbwe0OHxRq+5aMpRd4ux4/TfZ3h4s3QCYL+F3Qz5G7fI+SxlRT2O6lj6kdJ6r1PKsxOktCuADnNhk2H8SA/fYbifJyyvOmdUqWGxi1Wvk/56HR9Vu1DD4siFiZYeIbTJ+yceTz4OjrcyumFeMtHoeJiuE1aXeh3l6/z3Hu3PpsMjdbnlDnMpFQz+qATBXc9LIBofM0nL6IAvNFhv4oAlkhVvz9UAGd/PdwQArvTuyQD/ZxzQDGNLTM5IBPbVduSAc9wcJDNAJhps5ANa0gzOX1QBeKvCgCXAikZ5eiA5/rr2jswVUDDUxY+TjOcOEd4MvE/wDCMt+UlhVrqOi3PVwXDJVu/U0j6s5NBhYrSeIJLnRYjrue82aJ5k5NaNwHkFx96bPo0qWGhZKyOmatasQcEA4d+LviOGXJg90fH5LqhTUTy6+InV02XT6noK1c5rBrQZRVpcZQ1pcZRVpcZRVpcZQVpcZRVpcZRVpcZRVoMpHHa17S14DmuEi1wBBHMFCVdO6Oda16jUTjYQEtzdCzLeJh73Dln1XPUpc4np4fGX7tTzKupXaDH0eRDfONh/uE95g4wnHL+U26Tmop1nHTkVxnDadfvR0l16+87doHS8HFwxHgRA9hseLXfde3Nrri36LtjJSV0fL1qM6Mss1Zmg8VXb9FYyC5wIpGf0QChmnxfVANDSDVuz8kAYne8O7yQBqEqd+XmgGbF37KAc19dj8EAnOosOt0AXMp7wQCa2u56WQDQ+o0nL6IAuNFhv4oDk3aP2hSLsLgn3uIsZp372QiPQu9OK5a1b8sT3uHcMvarVXuX1Oa6I0Y/ExBChi5uScmtGbjyXLGLk7HvzmqcczOu6G0fDwsMQ4Q5ucfE933nfTcuuMVFWR49Scqks0i/tFJnlDtEJyjtolxlFWgyi2iDKLaJcnKLaIRlFtEJyirS5GUW0QZQbRBlBtEIyjTFUjKeI121ZDwcRAbJ2cVg94b3tH3uI35554VYX1R34XENdyfwPKat6wxtHxdrBdYyD2HwxGjc4fI5hZQm4u6NsVhYV4ZZfB9D6B1X1lg46CIsA8ojHeKG/7plu4HevQhNSV0fI4nDToTyy+HibRZIVb/AKq5zgaK7ndwQCD5mndlzsgE40Zb+KANFqt+fJAM9oPJAPe4ESbn6IBMIbZ2fqgGtaQZnL1QBiCrw5eiALnAiQz/AHO6A5b2p67mCHYHDu+0IlHiA3Y0j+E0/eIzO4GWZtzV6tu6j2+F4DP/AFam3JdfE5C1q4j6VI6lqtooYWFI/wAR8nRD8mdB85rqhHKjzK8+0l4G0Hq9zHKOrS5OUIiJcnKHaKLk5BbRLjKLaJcZRbRLjKLaJcnKLaJcZRbRLkZRbRLjKDaJcjIAxFNyMoC9LkZRpiJcjKc3100OIETaMH2cQky+6/Mjocx58Fz1Y2d0elh6maNnuilqvrDF0fHbGhX3PYfDEZO7T+h3FRTm4u6K4rCwrwyy+D6H0ToDS0PGQWYmEZw3jI5tORY4DIg2/wCi9CMlJXR8dWoyozcJbo0Igq8P0VjIJcJSGf69UAIfd8XlvQApM57s/LogJNq39hANLKLhAINrubbkAA+ru/uyATnUWF96A8v2hazDRuGqYft4s2wQZWMu9EI4NBHmWhZVamRHbgMI8RUs9lv9D55e8uJc4kuJJJJmSSZkknMrz2z7GMUlZG5qfghEjh7h3Yfe/N7nxv5K9NXdyleVo26nQBEW9zhyj9qlyyiERVFycodqhKgHaoWyC2qgZQ7RLkWQQ48D6FRdCyCSeB9CozLqR3eo2s8D8Va5NkLaITlBtlIyA2qEZBbVCMoDFS5XKNMVTcjKUNMYYR4T4ZzI7vJwu0+tvNRJXVi1N5JJnMHtlYrlPRZ67s11s9gj7OI4+zxiGxODHe7FHCWR5dAt6NTK7PY8riWD7enmj+JevgfQBdRled13nyYaJd7z9UAGivO0kAq/d8kAfZxxKAawEeLLndAJ4J8OXK10A55BEm58rIBtYYCXkCUySdwAzn6qG7K7BwXW+DidJYp8Y0tZ4YLXPHdhg92wnIm7jzcvDrcSpOV9fI+mwdWjh6Sjrfn7yjA1PefFFaOgJ+i45cSjyizq+8Fyie51W1ThwoN3uJc4kmQbYWFr8D6qkeLTS0ijlrY2cpbI3WaDgj7x/N/0VXxWu+nkYPE1CwzREEe56ud9Vk+JYh8/RFXiKvUmbo+CP8NvpP5qjx1d/mZV1qj/ADMmZh4YyY0flCyliar3k/Mo5ye7Y8Mb90egVe2m+b8yuvUdbgq531IsIlM7AppmFgzUZhYCnOBW4JnYAQOA9FPaPqNRphNPut/pCsq81+Z+Za8upE7BwjnDZ/SFosZWW0n5llUmubIX6Mgn/DHlMfIq64hiF+Yuq9X2iF+h4J90jo4rRcTxC5ryLLEVOpXiaChbi8eY+i1jxaqt0iyxU/A8FrBqWBGeWxSKjUAWz8VzcHjPcn3pd6x9Ttp8Qaik4mFH1TijwvYetQ/Rbx4jTe6Zb7fB7pnX+y/ST3Yb2fEEGJAkGmYdVC93+nw9KV7GDxcKytHdHz2PjDtM8Nn8z2ABnM+H4S3WXacIYl/D5ysgDMSl73xn1QDKHc/VAOD67ZIBF9Fs96ARZT3v3dAeY180nRBEMGTopIP/AA2yLvUkDoSvM4pX7OlkW8vlzOnDQzSv0PBwwvlpHpItQgsmy6PV4G0Ng/CFhmRR7lprlOZEWEIvekmbQgkBUZkLDppmIsKaZhYM0zCwppmFhTTMLCmmYCmmYWFNMwsKaZhYFSZhYBcmZE2GkpmFhpcmdE2GOcpzCxg6eHfB/D8ifqrQd2XjsYkULeJDJdD4/wBnjsibgZP5sNnfC/UBd2Dr9jVUuXP3GNWGeLR1lsSrujI5HlxX2B5ISaOc0AqPe85IBe08kAXy93PkgEyXvZ8+CAawGfey55IDl+tuO2+LeR4WfZtl+Dxf3VfBfK8SrdpXfRafz4np4eOWCM+EvMkdKLcMLFl0bsDFgNaLk0iwE1RYab1bUU9ru1/m/QylNJ2WvuJ4eIc+7AJcTvPRKkadB5ajvLotl8eZCcpax2KAwj/aNpMTvaQlOmmdWcpbl6H26h9h7PK7X6675rW2352uYdjLts1/T4e80nxnwxN0nDlY3yXnU3SryyRWV8uaNnmir7kntcvGKRx3eZRUoVNKM7vo1a/u1floG2vxIsVrjdQvYVajtRYVantULCqUdqLCqTtULCqTtRYVantRYVajtRYBenak2AXJ2osAuU9qTYaXJ2pNiJz1PaDKZGmHTcOn6roou6bJSMeKF1RKsqRVsijOlal44RsI0e/DJhnj3fD/AGkehX1nDq3aUFfdafz4Hl4iOWfvN2HbxeU7ruMQSM/w/CSAkmzl6IBlFF80AqK75buKAraTx2zgxHkeBjn9S0EgeZCpUnkg5dEWjHNJI49DM7m539V8XN3d2eui3BCwkXRJinlsN7hmGmSUYqVWMX1RM3aDZSw2suxhiDCYC5ndc95nU7MkAG4vmSvQjwtYmbrVZb7JcvP6HdhMBngpN2XqHSGlcQGQ5OLGuZX3JbyfeFxlkZb100sJhZ1Zytdp218Er6bP3muCw1HNKEtbOy5E5iOOFopdtZbWRqq2Xj21U8t0ljeKxWa6yXty/Fa2S3qZqNJYnP8AkvbbT3fz3kGAx0fZvO0NIZNu0dYlrmg7OoGoieQO8LWtRwqrQ7nevZ5VtdP8Vtl425HRi6OH7SMUra963T5L/st6M1iixHbKJS8PmCZSc2xM+6JHLguXF8Ko0o9rSvFx21038fqRjcBTpU3OL+DPY4cmls85D5L5zFWdedtrv5nkQXdVyRc5YSASASASASASAE0AJqSQEqSRhKksRuKuiLGNpF03nlZdlJWiLaGfFXREo0U4q2iUZ6Xs5xdMaJD3OZWOrDL5O+C93hFS0pQ66nFi46JnQZV8pea944RV+55TQC9m5/BABk/ey5oBPn7uXLigMDX7EBmDcBKb3MZ/dUfg0rh4jPLQfjob4dXqI5nCXysj00NxOl4UGznTNQaQ0EkTznLKQvLNWhhalTZF1fkrmlgcXDjg0ODgO67MSmMiDcLmqU50msys+Rpl5NFLG6IAqdSyglriWtlEa1olTOdJmTmdwubLtwmOytJt310vo2+e1/LnsbQrSpqyb5+7Xw/mpZGjYhcA/umI8OpaCIcRzJFoc1rTQBvM7zKlY2EVmp65Vu7OUU+abazX6W0M/tMI2Vt7pb3XXVfrsTt0Q0u2Ja7KdZ2svD4NrYGHKQol5rL7dP8AuJre1u713y+1fXNf4GnbTt2mnS2nnbrzuJmh4jXHZuILHEhxrDWFwdUIIiNDXNdvMzuvxieOjNXqJPMttLtK1szTumuSsuenSqxaneLj4PRq/Rt87eGho6uaPpY19XcJc5rZMJLXiVLoly5swCJSyHRcfEsX2lSUXHXRPfdc0ns+Wt+eoq1M7u1rZJ/Dn5F3SumoeGpD83CYFhaYE+l9wK48NgquIu4LYySk3aKv/LFDBa1w3ENfIFzpCl0xIuAZOYBmQ5thPflJdVbhVSKcoapdV0WuzezT3tyDhUiryj19Hb5noV5RAkAkAkAkAkAJoSAlSSkNJUkjCVYkhivkCVeKuyDGimd12xJZUirWJRopRVvEzZc1UxGzxkEnIvoP5wW/Mhejw+WWvHyOeurwZ1uJ+HzkvqTyw2l+L4zQDO/zQDq67ZIBV0Wz3oDxnab3YUFs/FELv6WEf6l5fFX/AE0vE6sIu82eFhFfOSPRRi4vV8viPdDfKbiTU+mRPeOTSd9l308aowSkvT9yzk5WUpOy22N7VrRrcO1wnNxPeM5iwmALDKfBedja7rST5cjRSk13nexknXJ7gQYEOThIglxsV2LhkYu6m7r3Hrx4W5L8XoU8VpGJENZLxVcCt0vLku+hRpxWVW08Eb4TDxleNOUXbe8P3NvU7V86RMUGO6EIQafvTqq4kSlSuylQU72t5HPxPGTwORKEHmvyttbx8T0T9V8Ng2CPE0iXNEqQw+MkVAClxJmB6LPEYHNB6r/8q/wu9zylxHE4qXZwpRv4R9TcgYzDHZsZiJuiteYbRDnaG2ZqIJDRIW4yXjx4Hh6lN1FOV9dGldNcmczeIjmbhpFpPwvsU9OaMZiWNa+xB7r5TpnulMTBlv5LwMHip4ebcfitrm7M/Req8ODFa9zhEIJLRs6QDnUe8Zy58QuvE8UqVabglbrrf4bEuzeit8T0i8cqJAJAJAJSSAoSCaABUkjSrEjHFSixSxcTct6a5kWM+IuhEMpxVtEqylGK2iZsiwsWmLDd92Ix3o4FdeHdqkX4oxmrpnbZ0c5+S+vPIFR7/nJAH2nl8UAngDw58roBMkfFnztZAeC7UHH/AMODxi/KGvH4ttD4/odmE/N8DxcIrwZHfE09G6PZF2hdVMBsqXObudw6L1uGYanWhLOr2ZyYqpKEllZLg2BrZCcgXZzJzO9ePxGEYYmcY7JnZh25Uk2c2wAbW2sybme6HbspGxXt1c2V5d/I+g4lVlDDq3O2vQ0GwYUNju/csHuC7g5xNJnYSOfksc9SUlZc+p49HFSVVOPW9rvX6nsezTCMjwcfCiOLGPhQw9zZTDftC4iYO4L1sK8ykdv+o5unUoSjq1f9DzWlMXZkAOhRWQ/4cVjS15YZlrCTIloqJpIscirN8j0sJRXbLEZJRcr3jdb6XklfbyPe6mYLZbExWtJiYGK+Cc6TtXPffc6mIz4hKitTl/iz57ieIdZ1Mt1aorr4WXrFm22EHya4TB6jdxC+A4dCM8XTjJXTZlXbVOTRo6V0dCg0GG2kmc7k8OJXtf6hw1KjCn2cUrt7fA5MHUlNvM7lBfLHeJCBTQkSACARQICkkBUokYSpJIYr5K8VcsUYi6IhlWItUUZSjFbRKsoxit4mbKUZy6IaGbO8NvOrynZfYnjDZmf4fhJASUs5eqAYGUXzQCLa75bkB4XtUdNmHPBzx6hp/wBK8risbxizswj1Z4CLHLGOeBMtaTLjJeHGClNRfM74q7SM3RTsbjA8wXuAHjpe2GwZkCxqNp8V7uGoSgnGnojqqvB0Jf1Fmfn+xM3R2NaC6G8zDnWbGqPSTrE/VefiZ0I1XCtvzdv1OilXws4LuWXut8jAw+H2ndvKV5ZgSkJDfchdkazozVRWundX201Oni7jLC9k/wA1vQtRWMeA5pdOCNnKQv7sjzUt16EXCcUlVtK/gr7frzPBwEYVMVTcLtxdrGlqfrj7BEiAw2RYcUNbEa4GRAqs105e8c2kFelRwGKpUe3yd3ffW3Wx6PEcZgsdXVDtLTi2k7d2/S978t7JHsNOxhioTcJo/COEGmHGD2NABBLw4RDupfMTqzDt0iqt5klHYpgY/Zq0q2KmsyurNu97K1rdfkWeziGDDxNQc+LAhPbDfWHwmMiNJphgEtmXNJmFVKOWSl09CeNzTlTlB92dm9LSbWl3pf3GVAwOk4jQS6IHTt9q1lqTLutIAvJfK4eeF7eMKNr300e/vZ6NWtw2Cfduuej+vQs6R0npHB0+1F8pmkRqXw3SYCQ2I3vVkgyvvyXfxHDVa0VCvquTW/8A1axlQocPxLth3ZvpdPfo9LJdNT1WDj7SGyJSW1sa6RzFQBkfVfG1YZJuN72bR50llk10JlQqFABAJCRpUkgQkBUgic5XSLIrRFqixWiLSJVlSKVtEqyjGK3iVZRjOW8UZspyqcBxIHqZLppxvJIzk7HeXCvlJfXHjCr93ymgB7MeKATCT4sudkAnkjw5cr3QHku1HDg4Rjh7kZpPRzXN+ZC8/iMb0r9GdOFdpnNITuMpb55S3zXzzR6KG6K03hcC2KGTcX0kNYZiYDh4jYC43le7gq01B9rvy6k1sJXxMo9ErXYdVxEfEjYh7aRFyG4mZNgbkC4nzXk8WqxnJR5p+R1yjCEI04u9la5nxtABjozREP2WHEYd0XJl3TfK6tHGOUYPL+KVtztjipVIwzRi7u2q9xS0vov2fZUmrawGxj3ZSc4GQzM7nPmurD4p12+02jLLvfRWL4bK87pwjGXeScVZ3yuxjNjdwutIs2UrTtJ1WXDfmvslh5fauwU3pLtb8srurbb2/wDry3Pgc67PPbll+O9zoWpuu8fBYfYsw7YoqqmS6YLmibZAcQ4y5lfMLGRpXjyu7a8rn2+L4bSxE1OrVUZZYprxstSzo7Xf2URdlgWQxGM3yixCJylMTFs5kcSqvGRlFxS3IfCYYiy+0ZnFOytyWpd1ujvgR8LiJOdChnvAG1U9+4EjKfML53gVWnCcr73+NicJQjiKdWldKcl3bnotOxcHpeHApi1Bhc4wwQ1+QBD2m4HMeRXr8bxsqVGMqVtXv0/niedhIYnAVJxnHK2rXa+T2LjRKw6L4Zu5IVAEgEgAVJI0oSNKksRuKuiyInKyJIIi0RJVilaxKspxitolSjGK3iUZnx3LoiijHaCg7TFwGcY0OfQOBd8AV3YWOarFeJhVdoNncIlvD5yuvpzyQyEp+9+vRAMrdz9EA8vrsEAg6ix6oDE1xwG0wUcZkMrAGc4ZDx/yrDEwzUpI0oytNM4xSHtLTk4Fp6ESXzN3GSa5HrJl7UzRjGNeXw2mIB4iA45xJFs50zAbkvdwVRVMz5aW8jmx9epOSu3boaUF3i6u+ZXz3E1/6qfvOnC/2o+4zMaftMV/7Fv+lVp/gpf+R/qd9L8MP8voWsPBbEiwGPE2u0aAR6EEcwbrKU3CnOUd+1JzOMHJbqX6M8jH0IIbYEQuBEcF0rgNk6kzBtz4L6CHFq8ozoJu0e7yvbe197eB0LB4V1alfs1mg76t5W+uXqESZIONJM2yM8zx4Xz8rXXPZy1WvM1r4ynTks007yTT6vXR/V6eJJEcaCJGQIlmJkg9485CXQhVSWY7MMk6qldXcZXS5eB2VrA6QcAQbEETBHAjevmOGf8AvKf+SPmaztSbXQ89r/qbBw7G4jC1Q3lwAhtmQXOLWtDDObDN3GXRfYcQUKTjppK9+lkr7Hbwni9ao3Rr2lG3Pf8Ac9BhWuDGBxm4NaHHi4ATPqvgajTm3Ha5yys3oTKhAkAkA0qSRpUlhpUkjHKyLIierIsVohWqIKkUraJVlKM5bRRUoR3LoiijM+M5dEUUbNvs6wu1xzTuhse/zlQP+efkvV4dC9W/Q5MTK0LdTrjTRnefBe6ecKj3t2aAd7QOBQAe0Nu3P1QCYA67s/RAMHe7rrtOaA4RpPBnDR4sE/4by0c25tPm0tPmvmK9PJNxPWhLNFMjwmLfU/ZxJZNIbszOQOYdl4lNOvUoR7ulys4QqPU0cA8kEOJmHGZMrzuDa2RXDiZupN1Hz1OiklGOVcijHi1PxJ/9DI8i0tBHkQVpGNo01/vOuk+7D/L6Gjo0/b4X/wCOHyXNW/tVP/ITL8Ev8v0ZkaSYThsC4WAa9tW4OMSYB8r+S76EH2leVtLr5HdGabxEOe/wTMiGxpsQ00gm9wCBYTnkLrqcmtnuaV6Cq5Z1Iqzksun/AC97JXCbTK9RAAncOkbfvOY4Ki0evL+fz4nRSThVtNJOMZX0Wvjtz9LHY3PokZTIIEpymeq+UwdVUq8Kj2TufN1I5oOPUu4/SO2oaYZbKfiLTMyHDpNerxfilPGU4qCas/mc2HoOk22yBfPHUGSAUkAEAigGlSWQwqyLEblZFkQRCrosVYpW0UQU4rltFFGUI71vFFWZ8d66IoozPjPXRFGbZ0TspwFMGLiDm9wYz+VmZHUuI/Kve4dTtBy6nn4qV5JHuofe8XluXonKCozluy8uqAk2Tf2UAxrKLn4IBObXcdLoAufV3QgOX9q2iTDisxAFojdm/hW0GmfVsx+ReTxClaSmjtw0rpxOZw9GkZww4ZAAwnS4zrY34ei9dcbw0tJJr3r6N/zmef8Ad1WOz9TR0Fh3Q4t2vaJHuy7l5Xmx1E/yg/NebxnFYTE4dSpWz3V9LStZ+G23M6sBRr0qtp3y2+BtYnAVbR0OQfEhGE6eTgZSNsnCQvvC+bhWy5Yz2Tuv50PajJpprk72L2jNHv2kB1UMbLC7Bwc6Rc8D3ZgAg9R5LphhqdeM4qpHvTzfD48zOrinGLWV6u/zKTosHZtwz24hkJrPC+C90bbA2iMawljhMuFjKRkvW7CoqzUf7b+m/wDle3hY5ocSUJuu1377W0a6e4qYjVfFwu86DWHNnOprXEOGTmEhzXZTBE571lXwzpK7aS96/U9uhj8NUV41HDW+Vq9n4Gpqvq1E2jYuIaGNYaocO0y/c50twzE7mQ3C/gY7HwyunSd2934dF/LE1sRHI4Qbd95PdrouiPQ6WxEdrpQwA0AOrMOoA3BFcRzYQz3uB4Ar0/8AT3AMNj6Lq1ZtWbjlTWuifRv0+KPmeI46rQnkglte7/iXqVzjMQC2ZaDuGwhCo77HEBzrH/DDvNe4v9HYGz78/Pb/AIfOx574tXutvLf/AJfK56NmQnmvzKatJpH0ieg9UAkAkACpJI3KUWQwqyLIieVdFkV4jlpFElOK5bRRDKUZ63iijM6O9dEUVZnx3rpijNsouBe4NaJucQ1oG9zjID1K6acW3ZGbdtTu2hNGDCwIUMSIhtAMt7jdzvNxJ819NTgoQUVyPJnLNJsvO7+W7irlQ12p35ckAz2c8kAWOLjI5IBPdTYIBz2homM0Bm6f0SMbhokJ1nEdw/de27D658iVlWpqpBxL055ZJnCBFDHOY4hr2Etc0kTa5pk4HmCCvnZ0pLRo9dRdr2NDDxJ5LlnEsmaMB65pIumaEF655Iui5BlwCybktmTZPcuQQBkB5BYSu9y2iLbHLFoEUTAQnvER8JjngSDnNBIHn1Pqt4Y3E06TowqSUG7tJtJswnh6Up55RTfULNE4cAgQIUneIbNl+tlMuJYxuLdWd47d56e7Uz+y0VdKC18EX2CVhaS4m7u7NbDlUgSASAaVJJG5WRdEbirIsiCI5aJE3KsV61igUor1vFFWUI8RbxRVmfiHLpgijZmYmOBmQOpAXTCDfIpZvY9V2WaIGJjnEmRhwLNlkYpFr/hBn1LV6+Bw7zZ5LY5MVJxWV8zqwcSad2S9Y88MTu+HegDSJVb8/NAM2zkA9767BAJjqLHrZANayk1HJAF7a7jpdAcZ7atV6HjHwm918mYgfdfZrInR1mnmB95c9aHM9jhuJ/8AjfwOXQ3kZEjpZcrV9z2k09y7A0lFblFePzFYyoU5bxRoqdN7pF6FrBiBlFPmGn5hc8sHRf5TRYai/wAvzL8HWzEj3mnq0fosJcOoPk/MusDRfXzL0HXaOM2Qj5OH+pYS4VRezfp9Cfu2k9m/T6F6Dr64ZwGno8j9CsJcHi9pPyH3UuU/Qss7QOOH/wD0/wC1ZPg3+/0/cj7ovtP0/csM7QYe+A/yeP8Aas3wWXtry/cq+DT9teX7ko7QIX+RE/qb9FX7lqe2vJlfuSr7a9SQdoED/Ji/2fVVfBavtL1Kvglb2l6jj2gYf/Ki/wBg/VR9y1faXqPuSt7UfX6DHdoMHdBierQrLgtT2l6krglX2l6kbu0GF/kP/rb9FZcFn7a8ifuWp7a8mQv7QWbsO7ziD/arLgsuc/T9y64NLnNeX7leJ2gcMP6xP+1argy5z9P3J+6P9/p+5Sja9RT4YUMdaj+oW0eEU1vJ+hP3XBbyZQi65Yg7oY6NP6krePDKC6+YfD6K6lGPrNiXf4gHRrfouiOAoLl8yHg6K5epSjabjnOK7ykPkto4WivyoyeHpL8pnxsS93ie49SSuiMIrZFHGK2QdG4CJiYrIEJtT4jg1o5neeAAmSdwBW0Vd2OerVUIuT5H03q1oJmDw0PDwriGO842L3m73nqfQSG5d0Y2Vj5atVdWbkzWL5infl6KTMDO5nv4IAUXq3ZoCT2gc0A17KbhAJja7nogGtfUZHJAF7qLDqgIsfgocWE9kRocx7S1zTkQ6xHxTcmMnF3R81676rv0ZiDDM3QnzdBefebvB/E2YB8jvC4qkMrPpMJiVWjfnzMFpWTPQjIla5VaOiMiVrlRo3jIlaVRo3jIkBUWNVIcCqmqY4FQXTCCha46agm4poLgmpFwEoVbGkqSrY0lSZtjHOU2M3IjcVZIwlIicVdIwlIic5XSMJSInFWSOeUjuvZLqX7Iz2iO2UeM2QaReDDN5cnutPgJDiuylDKrs+cx2K7WWWOy9TojzRlvWpwBLJCrfn6oAM7+e5ACu9O7JASbAICNjaTMoBPbXcdEA576hIZoBQ3UWPVANawg1HL6oDM1o0BC0lAdBii2bXe9DeMnt538wSFWUVJWZrRqypSzRPnDWbV6No6OYMYcSx48MRs/E0/MZhcc4OLPpMNiI1Y3Rltcs2jtjIma5UaN4yJGuVWjeMiQFUaNlIeHKDVSHgqLGikGagspBmhbMKaDMKaEZgEoQ5DSVNjNyGFytYzchjnKUjKUiNzldIxlIic5WSOeUiJxV0jCUjrXZX2eE043FMyk6BCdxzEV4+LR58F00qfNnhY7G3/pw+LOvufMUjP6LoPJFDNGe9ANDZGrdn6oAxO/luQBrtTvyQEewKAc19dj8EAXuosOt0AXMpFQzQCY2u56WQDQ+o0nL6IAvNFhv4oDL1m1cgY+AYUdswbtcJB0Nx95h3H4HfNVlFSVma0q0qUs0T561v1QxGjHyiCuE4yhxmjuu3yP3Xy9085TXJOm4n0OGxcKy036GC1yyaPQjIla5VaNoyJGuVGjaMiQOUNGykODlWxopDg5RYspBqSxbMKpLDMKpLDMNqU2KOQ0uSxVyGlyskZOZG5yskYykROcrJGMpDWNLiGtBc5xAaACSSbAADMkq6Rzzmkrs7D2c9mQhubiMc0F+cODYhhzDom4u/DkN8zl1U6VtWeDjMfn7lPbqdVe6iw63W55YSyQq3/VABgrud3BAAPmad2XOyALzRlv4oA0Wq358kAz2g8kA97g4SGaATHBtnZ+qAa1paZnJAF4qu36IAucCJDNAKGafF9UA0NINRyQEWPwrMQww3sa9jhJzXAEEcwUauTGTi7o5Brj2TOYTE0eS8b4Dj328dm82cORvbMrmnR9k9jDcS/LV8zmEaE+G4se1zHNMnNcC1zTwINwudqx7MKikrpia9VsdEZkgcq2NVMcHKtjRTHByixZTDUli2cNSixOcFSmxDmAuU2KuYwuU2M3MYXKbGbmMc9WSMpTNvVnVDFaRP2MOUOcnRXzbDbxv7x5NmVrCm5HBiMZTpLvPXodu1O1Bw+jwHs+1jSk6M8AEHeIbfcHqea6oU1E8DEYudZ66Loetc4ESGa0OUUM02d9UA1rSDM5fVAGIKvD9EAS4EU78vNACH3fFv8ANACkzq3Z+SAk2zf2EA1zKLj4oBNbXc9LIAB9XdP7kgE51Fh1ugCWUirf9UAGiu53cEAg+Zp3ZeiATjRlv4oA0SFW/NAY+nNWsLpFssTBa4gSa8d17ejxeXLLkqyipbm1KvUpO8Gct1g7H4rCTg4wiidmRZMf0Dx3XHrSsJUOh6tHiq2qK3uPBaW0HisIZYiBEhXlNzTSf5Xjuu8isJQa3PVpYmnU/C7lAPVLHQpjg9RYuphrUWLZw1pYZwVpYZwF6mxVzA2biGtBJNgBck8AFZIzlUS3PVaF7OdIYqTtjsWH3o/2f9njPpJaxoyZ59biNGHO78Dpeq/ZNhIEn4gnEvG5wphD8l6vzEjkt40Utzya/EqtTSOi9T3kACQYGhrQJANEgAMgBkAtjz277j3OosOt0ICWU94fuaATW13PSyAAfM07vogE40WG/igCWSFW/P1QAaK893BAKu9O7JAO9nHEoCOAZm6AWIMjbggJYwk1ADD3F+KAjhHveqAOIsRJAPeO75BADDXnNAMB70uaAdibSlzQD5d2fJARwGhwIdccDcIDzulNSNH4hxrwkMEnOGDCPWcMiao6cXyOiGLrQ2k/n8zB0j2QYA3Y+PD5B7XD+5pPxVHQidUeKV1vZme7sWhETbjIg6w2n5OCr9nXU1XF6nOKIoXYvDJ/86//AOkf70+zrqT97z9leZYh9jeGaZPxMd38oht+YKnsIlHxarySNuB2W6NggEwnxCDnEiOPqGyB9FZUYIwnxGvLnb3HqdD6Iw+HbKDAhw/5GNaT1IEytEktjknUnP8AE2yxhzM34KSgsQZG3BASxxIWQAw9xfigI4R73qgDiLG3BAPiDu+iAGHuDNAMae9LmUA7E2lJAOI7s+SAr1HigP/Z;" parent="1" vertex="1">
          <mxGeometry x="84" y="616.5" width="14.4" height="12" as="geometry" />
        </mxCell>
        <mxCell id="-iunoCh2YkMXYXxtYYaG-72" value="" style="shape=image;verticalLabelPosition=bottom;labelBackgroundColor=#ffffff;verticalAlign=top;aspect=fixed;imageAspect=0;image=https://www.freeiconspng.com/uploads/sweden-icon-4.png;" parent="1" vertex="1">
          <mxGeometry x="124" y="615.5" width="19.96" height="15" as="geometry" />
        </mxCell>
        <mxCell id="-iunoCh2YkMXYXxtYYaG-73" value="&lt;font face=&quot;Times New Roman&quot; size=&quot;1&quot;&gt;&lt;b style=&quot;font-size: 6px&quot;&gt;Miles&lt;/b&gt;&lt;/font&gt;&lt;br&gt;" style="text;html=1;resizable=0;points=[];autosize=1;align=left;verticalAlign=top;spacingTop=-4;fontSize=6;fontFamily=Verdana;" parent="1" vertex="1">
          <mxGeometry x="102" y="613.5" width="30" height="10" as="geometry" />
        </mxCell>
        <mxCell id="-iunoCh2YkMXYXxtYYaG-75" value="&lt;font face=&quot;Times New Roman&quot; size=&quot;1&quot;&gt;&lt;b style=&quot;font-size: 6px&quot;&gt;Miles&lt;/b&gt;&lt;/font&gt;&lt;br&gt;" style="text;html=1;resizable=0;points=[];autosize=1;align=left;verticalAlign=top;spacingTop=-4;fontSize=6;fontFamily=Verdana;" parent="1" vertex="1">
          <mxGeometry x="144" y="612.5" width="30" height="10" as="geometry" />
        </mxCell>
        <mxCell id="-iunoCh2YkMXYXxtYYaG-82" value="" style="aspect=fixed;perimeter=ellipsePerimeter;html=1;align=center;shadow=0;dashed=0;spacingTop=3;image;image=img/lib/active_directory/database.svg;labelBackgroundColor=#E6E6E6;strokeColor=#000000;" parent="1" vertex="1">
          <mxGeometry x="162" y="626.5" width="38" height="28" as="geometry" />
        </mxCell>
        <mxCell id="-iunoCh2YkMXYXxtYYaG-83" value="&lt;font face=&quot;Times New Roman&quot; size=&quot;1&quot;&gt;&lt;b style=&quot;font-size: 6px&quot;&gt;Miles&lt;/b&gt;&lt;/font&gt;&lt;br&gt;" style="text;html=1;resizable=0;points=[];autosize=1;align=left;verticalAlign=top;spacingTop=-4;fontSize=6;fontFamily=Verdana;" parent="1" vertex="1">
          <mxGeometry x="183" y="612.5" width="30" height="10" as="geometry" />
        </mxCell>
        <mxCell id="wVaqROrAR56s4Joq7bS0-906" value="" style="aspect=fixed;perimeter=ellipsePerimeter;html=1;align=center;shadow=0;dashed=0;spacingTop=3;image;image=img/lib/active_directory/database_server.svg;labelBackgroundColor=#E6E6E6;strokeColor=#000000;" parent="1" vertex="1">
          <mxGeometry x="454" y="439" width="58" height="70" as="geometry" />
        </mxCell>
        <mxCell id="wVaqROrAR56s4Joq7bS0-907" value="" style="aspect=fixed;perimeter=ellipsePerimeter;html=1;align=center;shadow=0;dashed=0;spacingTop=3;image;image=img/lib/active_directory/database_server.svg;labelBackgroundColor=#E6E6E6;strokeColor=#000000;" parent="1" vertex="1">
          <mxGeometry x="454" y="520" width="58" height="70" as="geometry" />
        </mxCell>
        <mxCell id="8puVXK4cIaAp6UsHXV3n-17" value="" style="aspect=fixed;perimeter=ellipsePerimeter;html=1;align=center;shadow=0;dashed=0;spacingTop=3;image;image=img/lib/active_directory/database_server.svg;labelBackgroundColor=#E6E6E6;strokeColor=#000000;" parent="1" vertex="1">
          <mxGeometry x="64" y="492.5" width="58" height="70" as="geometry" />
        </mxCell>
        <mxCell id="8puVXK4cIaAp6UsHXV3n-18" value="" style="aspect=fixed;perimeter=ellipsePerimeter;html=1;align=center;shadow=0;dashed=0;spacingTop=3;image;image=img/lib/active_directory/database_server.svg;labelBackgroundColor=#E6E6E6;strokeColor=#000000;" parent="1" vertex="1">
          <mxGeometry x="266.5" y="492.5" width="58" height="70" as="geometry" />
        </mxCell>
        <mxCell id="8puVXK4cIaAp6UsHXV3n-19" style="edgeStyle=orthogonalEdgeStyle;rounded=0;jumpSize=5;orthogonalLoop=1;jettySize=auto;html=1;strokeColor=#3F3F9E;strokeWidth=2;fontFamily=Verdana;fontSize=6;" parent="1" source="-iunoCh2YkMXYXxtYYaG-82" target="8puVXK4cIaAp6UsHXV3n-18" edge="1">
          <mxGeometry relative="1" as="geometry">
            <mxPoint x="192.16666666666674" y="636.5264176609697" as="sourcePoint" />
            <mxPoint x="93.83333333333348" y="570.7054995269966" as="targetPoint" />
            <Array as="points">
              <mxPoint x="181" y="610" />
              <mxPoint x="296" y="610" />
            </Array>
          </mxGeometry>
        </mxCell>
        <mxCell id="-iunoCh2YkMXYXxtYYaG-216" style="edgeStyle=orthogonalEdgeStyle;rounded=0;jumpSize=5;orthogonalLoop=1;jettySize=auto;html=1;strokeColor=#3F3F9E;strokeWidth=2;fontFamily=Verdana;fontSize=6;" parent="1" source="-iunoCh2YkMXYXxtYYaG-196" target="-iunoCh2YkMXYXxtYYaG-33" edge="1">
          <mxGeometry relative="1" as="geometry">
            <mxPoint x="0.4999999999998863" y="-290.48" as="sourcePoint" />
            <mxPoint x="140.5" y="-330.98" as="targetPoint" />
            <Array as="points">
              <mxPoint x="75.5" y="307.02" />
              <mxPoint x="198.5" y="307.02" />
            </Array>
          </mxGeometry>
        </mxCell>
        <mxCell id="-iunoCh2YkMXYXxtYYaG-214" style="edgeStyle=orthogonalEdgeStyle;rounded=0;jumpSize=5;orthogonalLoop=1;jettySize=auto;html=1;strokeColor=#3F3F9E;strokeWidth=2;fontFamily=Verdana;fontSize=6;" parent="1" source="-iunoCh2YkMXYXxtYYaG-197" target="-iunoCh2YkMXYXxtYYaG-33" edge="1">
          <mxGeometry relative="1" as="geometry">
            <mxPoint x="140.30952380952374" y="-353.98" as="targetPoint" />
            <Array as="points">
              <mxPoint x="35.5" y="307.02" />
              <mxPoint x="198.5" y="307.02" />
            </Array>
          </mxGeometry>
        </mxCell>
        <mxCell id="-iunoCh2YkMXYXxtYYaG-213" style="edgeStyle=orthogonalEdgeStyle;rounded=0;jumpSize=5;orthogonalLoop=1;jettySize=auto;html=1;strokeColor=#3F3F9E;strokeWidth=2;fontFamily=Verdana;fontSize=6;" parent="1" source="-iunoCh2YkMXYXxtYYaG-198" target="-iunoCh2YkMXYXxtYYaG-33" edge="1">
          <mxGeometry relative="1" as="geometry">
            <mxPoint x="79.50000000000011" y="-288.48" as="sourcePoint" />
            <mxPoint x="140.30952380952374" y="-353.98" as="targetPoint" />
            <Array as="points">
              <mxPoint x="115.5" y="307.02" />
              <mxPoint x="198.5" y="307.02" />
            </Array>
          </mxGeometry>
        </mxCell>
        <mxCell id="-iunoCh2YkMXYXxtYYaG-212" style="edgeStyle=orthogonalEdgeStyle;rounded=0;jumpSize=5;orthogonalLoop=1;jettySize=auto;html=1;strokeColor=#3F3F9E;strokeWidth=2;fontFamily=Verdana;fontSize=6;" parent="1" source="-iunoCh2YkMXYXxtYYaG-209" target="-iunoCh2YkMXYXxtYYaG-33" edge="1">
          <mxGeometry relative="1" as="geometry">
            <mxPoint x="112.35714285714278" y="-294.2981816033134" as="sourcePoint" />
            <mxPoint x="140.30952380952374" y="-353.98" as="targetPoint" />
            <Array as="points">
              <mxPoint x="157.5" y="307.02" />
              <mxPoint x="198.5" y="307.02" />
            </Array>
          </mxGeometry>
        </mxCell>
        <mxCell id="-iunoCh2YkMXYXxtYYaG-70" style="edgeStyle=orthogonalEdgeStyle;rounded=0;jumpSize=5;orthogonalLoop=1;jettySize=auto;html=1;strokeColor=#3F3F9E;strokeWidth=2;fontFamily=Verdana;fontSize=6;" parent="1" source="wVaqROrAR56s4Joq7bS0-913" target="-iunoCh2YkMXYXxtYYaG-33" edge="1">
          <mxGeometry relative="1" as="geometry">
            <mxPoint x="357.4999999999999" y="-342.48" as="sourcePoint" />
            <mxPoint x="497.5" y="-395.48" as="targetPoint" />
            <Array as="points">
              <mxPoint x="157.5" y="247.01999999999998" />
              <mxPoint x="198.5" y="247.01999999999998" />
            </Array>
          </mxGeometry>
        </mxCell>
        <mxCell id="-iunoCh2YkMXYXxtYYaG-239" style="edgeStyle=orthogonalEdgeStyle;rounded=0;jumpSize=5;orthogonalLoop=1;jettySize=auto;html=1;strokeColor=#3F3F9E;strokeWidth=2;fontFamily=Verdana;fontSize=6;" parent="1" source="-iunoCh2YkMXYXxtYYaG-219" target="-iunoCh2YkMXYXxtYYaG-33" edge="1">
          <mxGeometry relative="1" as="geometry">
            <mxPoint x="0.4999999999998863" y="-231.48000000000002" as="sourcePoint" />
            <mxPoint x="140.5" y="-271.98" as="targetPoint" />
            <Array as="points">
              <mxPoint x="75.5" y="247.01999999999998" />
              <mxPoint x="198.5" y="247.01999999999998" />
            </Array>
          </mxGeometry>
        </mxCell>
        <mxCell id="-iunoCh2YkMXYXxtYYaG-237" style="edgeStyle=orthogonalEdgeStyle;rounded=0;jumpSize=5;orthogonalLoop=1;jettySize=auto;html=1;strokeColor=#3F3F9E;strokeWidth=2;fontFamily=Verdana;fontSize=6;" parent="1" source="-iunoCh2YkMXYXxtYYaG-220" target="-iunoCh2YkMXYXxtYYaG-33" edge="1">
          <mxGeometry relative="1" as="geometry">
            <mxPoint x="140.30952380952374" y="-294.98" as="targetPoint" />
            <Array as="points">
              <mxPoint x="35.5" y="247.01999999999998" />
              <mxPoint x="198.5" y="247.01999999999998" />
            </Array>
          </mxGeometry>
        </mxCell>
        <mxCell id="-iunoCh2YkMXYXxtYYaG-236" style="edgeStyle=orthogonalEdgeStyle;rounded=0;jumpSize=5;orthogonalLoop=1;jettySize=auto;html=1;strokeColor=#3F3F9E;strokeWidth=2;fontFamily=Verdana;fontSize=6;" parent="1" source="-iunoCh2YkMXYXxtYYaG-221" target="-iunoCh2YkMXYXxtYYaG-33" edge="1">
          <mxGeometry relative="1" as="geometry">
            <mxPoint x="79.50000000000011" y="-229.48000000000002" as="sourcePoint" />
            <mxPoint x="140.30952380952374" y="-294.98" as="targetPoint" />
            <Array as="points">
              <mxPoint x="115.5" y="247.01999999999998" />
              <mxPoint x="198.5" y="247.01999999999998" />
            </Array>
          </mxGeometry>
        </mxCell>
        <mxCell id="-iunoCh2YkMXYXxtYYaG-203" value="&lt;font face=&quot;Times New Roman&quot; size=&quot;1&quot;&gt;&lt;b style=&quot;font-size: 6px&quot;&gt;Heidi&lt;/b&gt;&lt;/font&gt;&lt;br&gt;" style="text;html=1;resizable=0;points=[];autosize=1;align=left;verticalAlign=top;spacingTop=-4;fontSize=6;fontFamily=Verdana;" parent="1" vertex="1">
          <mxGeometry x="37" y="318.52" width="30" height="10" as="geometry" />
        </mxCell>
        <mxCell id="-iunoCh2YkMXYXxtYYaG-204" value="&lt;font face=&quot;Times New Roman&quot; size=&quot;1&quot;&gt;&lt;b style=&quot;font-size: 6px&quot;&gt;Peter&lt;/b&gt;&lt;/font&gt;&lt;br&gt;" style="text;html=1;resizable=0;points=[];autosize=1;align=left;verticalAlign=top;spacingTop=-4;fontSize=6;fontFamily=Verdana;" parent="1" vertex="1">
          <mxGeometry x="81" y="318.52" width="30" height="10" as="geometry" />
        </mxCell>
        <mxCell id="-iunoCh2YkMXYXxtYYaG-210" value="&lt;font face=&quot;Times New Roman&quot; size=&quot;1&quot;&gt;&lt;b style=&quot;font-size: 6px&quot;&gt;Sequana&lt;/b&gt;&lt;/font&gt;&lt;br&gt;" style="text;html=1;resizable=0;points=[];autosize=1;align=left;verticalAlign=top;spacingTop=-4;fontSize=6;fontFamily=Verdana;" parent="1" vertex="1">
          <mxGeometry x="157.5" y="318.02" width="40" height="10" as="geometry" />
        </mxCell>
        <mxCell id="-iunoCh2YkMXYXxtYYaG-226" value="&lt;font face=&quot;Times New Roman&quot; size=&quot;1&quot;&gt;&lt;b style=&quot;font-size: 6px&quot;&gt;Atlas&lt;/b&gt;&lt;/font&gt;&lt;br&gt;" style="text;html=1;resizable=0;points=[];autosize=1;align=left;verticalAlign=top;spacingTop=-4;fontSize=6;fontFamily=Verdana;" parent="1" vertex="1">
          <mxGeometry x="40" y="250.51999999999998" width="30" height="10" as="geometry" />
        </mxCell>
        <mxCell id="-iunoCh2YkMXYXxtYYaG-227" value="&lt;font face=&quot;Times New Roman&quot; size=&quot;1&quot;&gt;&lt;b style=&quot;font-size: 6px&quot;&gt;Atlas&lt;br&gt;&lt;/b&gt;&lt;/font&gt;&lt;br&gt;" style="text;html=1;resizable=0;points=[];autosize=1;align=left;verticalAlign=top;spacingTop=-4;fontSize=6;fontFamily=Verdana;" parent="1" vertex="1">
          <mxGeometry x="78" y="250.51999999999998" width="30" height="20" as="geometry" />
        </mxCell>
        <mxCell id="-iunoCh2YkMXYXxtYYaG-228" value="&lt;font face=&quot;Times New Roman&quot; size=&quot;1&quot;&gt;&lt;b style=&quot;font-size: 6px&quot;&gt;Atlas&lt;/b&gt;&lt;/font&gt;&lt;br&gt;" style="text;html=1;resizable=0;points=[];autosize=1;align=left;verticalAlign=top;spacingTop=-4;fontSize=6;fontFamily=Verdana;" parent="1" vertex="1">
          <mxGeometry x="119" y="250.51999999999998" width="30" height="10" as="geometry" />
        </mxCell>
        <mxCell id="-iunoCh2YkMXYXxtYYaG-74" value="&lt;font face=&quot;Times New Roman&quot; size=&quot;1&quot;&gt;&lt;b style=&quot;font-size: 6px&quot;&gt;Miles&lt;/b&gt;&lt;/font&gt;&lt;br&gt;" style="text;html=1;resizable=0;points=[];autosize=1;align=left;verticalAlign=top;spacingTop=-4;fontSize=6;fontFamily=Verdana;" parent="1" vertex="1">
          <mxGeometry x="161.5" y="249.51999999999998" width="30" height="10" as="geometry" />
        </mxCell>
        <mxCell id="-iunoCh2YkMXYXxtYYaG-65" value="" style="shape=image;verticalLabelPosition=bottom;labelBackgroundColor=#ffffff;verticalAlign=top;aspect=fixed;imageAspect=0;image=http://hoster2.onlinebadgemaker.com/8dc55fd05846082262846857b13c673c50c8919880a6b.png;" parent="1" vertex="1">
          <mxGeometry x="140" y="257.02" width="12.72" height="14" as="geometry" />
        </mxCell>
        <mxCell id="wVaqROrAR56s4Joq7bS0-913" value="" style="aspect=fixed;perimeter=ellipsePerimeter;html=1;align=center;shadow=0;dashed=0;spacingTop=3;image;image=img/lib/active_directory/database.svg;labelBackgroundColor=#E6E6E6;strokeColor=#000000;" parent="1" vertex="1">
          <mxGeometry x="139" y="268.02" width="38" height="28" as="geometry" />
        </mxCell>
        <mxCell id="-iunoCh2YkMXYXxtYYaG-48" value="" style="shape=image;verticalLabelPosition=bottom;labelBackgroundColor=#ffffff;verticalAlign=top;aspect=fixed;imageAspect=0;image=http://www.logospng.com/images/179/oracle-monitoring-amp-performance-opsview-179262.png;" parent="1" vertex="1">
          <mxGeometry x="134" y="277.52" width="44" height="44" as="geometry" />
        </mxCell>
        <mxCell id="-iunoCh2YkMXYXxtYYaG-219" value="" style="aspect=fixed;perimeter=ellipsePerimeter;html=1;align=center;shadow=0;dashed=0;spacingTop=3;image;image=img/lib/active_directory/database.svg;labelBackgroundColor=#E6E6E6;strokeColor=#000000;" parent="1" vertex="1">
          <mxGeometry x="57" y="268.02" width="38" height="28" as="geometry" />
        </mxCell>
        <mxCell id="-iunoCh2YkMXYXxtYYaG-220" value="" style="aspect=fixed;perimeter=ellipsePerimeter;html=1;align=center;shadow=0;dashed=0;spacingTop=3;image;image=img/lib/active_directory/database.svg;labelBackgroundColor=#E6E6E6;strokeColor=#000000;" parent="1" vertex="1">
          <mxGeometry x="16" y="268.02" width="38" height="28" as="geometry" />
        </mxCell>
        <mxCell id="-iunoCh2YkMXYXxtYYaG-221" value="" style="perimeter=ellipsePerimeter;html=1;align=center;shadow=0;dashed=0;spacingTop=3;image;image=img/lib/active_directory/database.svg;labelBackgroundColor=#E6E6E6;strokeColor=#000000;" parent="1" vertex="1">
          <mxGeometry x="97" y="268.02" width="38" height="28" as="geometry" />
        </mxCell>
        <mxCell id="-iunoCh2YkMXYXxtYYaG-278" value="" style="shape=image;verticalLabelPosition=bottom;labelBackgroundColor=#ffffff;verticalAlign=top;aspect=fixed;imageAspect=0;image=https://upload.wikimedia.org/wikipedia/commons/3/3e/Sybase_logo.svg;fontSize=10;" parent="1" vertex="1">
          <mxGeometry x="101.5" y="294.52" width="35.46" height="10" as="geometry" />
        </mxCell>
        <mxCell id="-iunoCh2YkMXYXxtYYaG-280" value="" style="shape=image;verticalLabelPosition=bottom;labelBackgroundColor=#ffffff;verticalAlign=top;aspect=fixed;imageAspect=0;image=https://upload.wikimedia.org/wikipedia/commons/3/3e/Sybase_logo.svg;fontSize=10;" parent="1" vertex="1">
          <mxGeometry x="62.5" y="294.52" width="35.46" height="10" as="geometry" />
        </mxCell>
        <mxCell id="-iunoCh2YkMXYXxtYYaG-281" value="" style="shape=image;verticalLabelPosition=bottom;labelBackgroundColor=#ffffff;verticalAlign=top;aspect=fixed;imageAspect=0;image=https://upload.wikimedia.org/wikipedia/commons/3/3e/Sybase_logo.svg;fontSize=10;" parent="1" vertex="1">
          <mxGeometry x="22.5" y="294.52" width="35.46" height="10" as="geometry" />
        </mxCell>
        <mxCell id="-iunoCh2YkMXYXxtYYaG-283" value="" style="shape=image;verticalLabelPosition=bottom;labelBackgroundColor=#ffffff;verticalAlign=top;aspect=fixed;imageAspect=0;image=https://cdn.countryflags.com/thumbs/netherlands/flag-3d-round-250.png;" parent="1" vertex="1">
          <mxGeometry x="20" y="255.51999999999998" width="12" height="12" as="geometry" />
        </mxCell>
        <mxCell id="-iunoCh2YkMXYXxtYYaG-288" value="" style="shape=image;verticalLabelPosition=bottom;labelBackgroundColor=#ffffff;verticalAlign=top;aspect=fixed;imageAspect=0;image=https://www.freeiconspng.com/uploads/belgium-flag-icon-2.png;" parent="1" vertex="1">
          <mxGeometry x="61" y="256.52" width="12" height="12" as="geometry" />
        </mxCell>
        <mxCell id="-iunoCh2YkMXYXxtYYaG-289" value="" style="shape=image;verticalLabelPosition=bottom;labelBackgroundColor=#ffffff;verticalAlign=top;aspect=fixed;imageAspect=0;image=https://www.fg-a.com/flags/luxembourg-flag-button-2.png;" parent="1" vertex="1">
          <mxGeometry x="102" y="255.51999999999998" width="13" height="13" as="geometry" />
        </mxCell>
        <mxCell id="8puVXK4cIaAp6UsHXV3n-23" value="" style="group" parent="1" vertex="1" connectable="0">
          <mxGeometry x="13" y="321.52" width="163" height="70" as="geometry" />
        </mxCell>
        <mxCell id="-iunoCh2YkMXYXxtYYaG-196" value="" style="aspect=fixed;perimeter=ellipsePerimeter;html=1;align=center;shadow=0;dashed=0;spacingTop=3;image;image=img/lib/active_directory/database.svg;labelBackgroundColor=#E6E6E6;strokeColor=#000000;" parent="8puVXK4cIaAp6UsHXV3n-23" vertex="1">
          <mxGeometry x="44" y="14" width="38" height="28" as="geometry" />
        </mxCell>
        <mxCell id="-iunoCh2YkMXYXxtYYaG-197" value="" style="aspect=fixed;perimeter=ellipsePerimeter;html=1;align=center;shadow=0;dashed=0;spacingTop=3;image;image=img/lib/active_directory/database.svg;labelBackgroundColor=#E6E6E6;strokeColor=#000000;" parent="8puVXK4cIaAp6UsHXV3n-23" vertex="1">
          <mxGeometry x="3" y="14" width="38" height="28" as="geometry" />
        </mxCell>
        <mxCell id="-iunoCh2YkMXYXxtYYaG-198" value="" style="aspect=fixed;perimeter=ellipsePerimeter;html=1;align=center;shadow=0;dashed=0;spacingTop=3;image;image=img/lib/active_directory/database.svg;labelBackgroundColor=#E6E6E6;strokeColor=#000000;" parent="8puVXK4cIaAp6UsHXV3n-23" vertex="1">
          <mxGeometry x="84" y="14" width="38" height="28" as="geometry" />
        </mxCell>
        <mxCell id="-iunoCh2YkMXYXxtYYaG-199" value="" style="shape=image;verticalLabelPosition=bottom;labelBackgroundColor=#ffffff;verticalAlign=top;aspect=fixed;imageAspect=0;image=http://www.logospng.com/images/179/oracle-monitoring-amp-performance-opsview-179262.png;" parent="8puVXK4cIaAp6UsHXV3n-23" vertex="1">
          <mxGeometry x="40" y="26" width="44" height="44" as="geometry" />
        </mxCell>
        <mxCell id="-iunoCh2YkMXYXxtYYaG-205" value="&lt;font face=&quot;Times New Roman&quot;&gt;&lt;b&gt;LOF&lt;/b&gt;&lt;/font&gt;" style="text;html=1;resizable=0;points=[];autosize=1;align=left;verticalAlign=top;spacingTop=-4;fontSize=6;fontFamily=Verdana;" parent="8puVXK4cIaAp6UsHXV3n-23" vertex="1">
          <mxGeometry x="105" width="30" height="10" as="geometry" />
        </mxCell>
        <mxCell id="-iunoCh2YkMXYXxtYYaG-207" value="" style="shape=image;verticalLabelPosition=bottom;labelBackgroundColor=#ffffff;verticalAlign=top;aspect=fixed;imageAspect=0;image=http://www.logospng.com/images/179/oracle-monitoring-amp-performance-opsview-179262.png;" parent="8puVXK4cIaAp6UsHXV3n-23" vertex="1">
          <mxGeometry y="26" width="44" height="44" as="geometry" />
        </mxCell>
        <mxCell id="-iunoCh2YkMXYXxtYYaG-209" value="" style="aspect=fixed;perimeter=ellipsePerimeter;html=1;align=center;shadow=0;dashed=0;spacingTop=3;image;image=img/lib/active_directory/database.svg;labelBackgroundColor=#E6E6E6;strokeColor=#000000;" parent="8puVXK4cIaAp6UsHXV3n-23" vertex="1">
          <mxGeometry x="125" y="14" width="38" height="28" as="geometry" />
        </mxCell>
        <mxCell id="-iunoCh2YkMXYXxtYYaG-263" value="" style="shape=image;verticalLabelPosition=bottom;labelBackgroundColor=#ffffff;verticalAlign=top;aspect=fixed;imageAspect=0;image=http://www.createtshirtdesigns.com/image-files/ch.png;" parent="8puVXK4cIaAp6UsHXV3n-23" vertex="1">
          <mxGeometry x="44" y="2.5" width="13" height="13" as="geometry" />
        </mxCell>
        <mxCell id="-iunoCh2YkMXYXxtYYaG-258" value="" style="shape=image;verticalLabelPosition=bottom;labelBackgroundColor=#ffffff;verticalAlign=top;aspect=fixed;imageAspect=0;image=https://trinity-edu.com.ua/assets/images/lde.png;" parent="8puVXK4cIaAp6UsHXV3n-23" vertex="1">
          <mxGeometry x="2" y="3" width="18.66" height="14" as="geometry" />
        </mxCell>
        <mxCell id="-iunoCh2YkMXYXxtYYaG-268" value="" style="shape=image;verticalLabelPosition=bottom;labelBackgroundColor=#ffffff;verticalAlign=top;aspect=fixed;imageAspect=0;image=https://www.fg-a.com/flags/poland-flag-button-1.png;" parent="8puVXK4cIaAp6UsHXV3n-23" vertex="1">
          <mxGeometry x="86" y="2.5" width="14" height="14" as="geometry" />
        </mxCell>
        <mxCell id="-iunoCh2YkMXYXxtYYaG-274" value="" style="shape=image;verticalLabelPosition=bottom;labelBackgroundColor=#ffffff;verticalAlign=top;aspect=fixed;imageAspect=0;image=https://cdn.countryflags.com/thumbs/france/flag-3d-round-250.png;" parent="8puVXK4cIaAp6UsHXV3n-23" vertex="1">
          <mxGeometry x="128" y="2.5" width="12" height="12" as="geometry" />
        </mxCell>
        <mxCell id="-iunoCh2YkMXYXxtYYaG-275" value="" style="shape=image;verticalLabelPosition=bottom;labelBackgroundColor=#ffffff;verticalAlign=top;aspect=fixed;imageAspect=0;image=http://web.corballis.ie/technology_logos/microsoft-sql-server-logo-180x180.png;" parent="8puVXK4cIaAp6UsHXV3n-23" vertex="1">
          <mxGeometry x="127" y="25.5" width="30" height="30" as="geometry" />
        </mxCell>
        <mxCell id="-iunoCh2YkMXYXxtYYaG-277" value="" style="shape=image;verticalLabelPosition=bottom;labelBackgroundColor=#ffffff;verticalAlign=top;aspect=fixed;imageAspect=0;image=https://www.logianalytics.com/wp-content/uploads/2017/12/progress-logo.png;" parent="8puVXK4cIaAp6UsHXV3n-23" vertex="1">
          <mxGeometry x="82" y="42" width="42" height="11" as="geometry" />
        </mxCell>
        <mxCell id="8puVXK4cIaAp6UsHXV3n-24" value="&lt;font face=&quot;Times New Roman&quot; size=&quot;1&quot;&gt;&lt;b style=&quot;font-size: 6px&quot;&gt;Exact&lt;/b&gt;&lt;/font&gt;&lt;br&gt;" style="text;html=1;resizable=0;points=[];autosize=1;align=left;verticalAlign=top;spacingTop=-4;fontSize=6;fontFamily=Verdana;" parent="1" vertex="1">
          <mxGeometry x="223" y="234.01999999999998" width="30" height="10" as="geometry" />
        </mxCell>
        <mxCell id="8puVXK4cIaAp6UsHXV3n-60" value="&lt;font face=&quot;Times New Roman&quot; size=&quot;1&quot;&gt;&lt;b style=&quot;font-size: 6px&quot;&gt;Antas&lt;br&gt;&lt;/b&gt;&lt;/font&gt;&lt;br&gt;" style="text;html=1;resizable=0;points=[];autosize=1;align=left;verticalAlign=top;spacingTop=-4;fontSize=6;fontFamily=Verdana;" parent="1" vertex="1">
          <mxGeometry x="262.5" y="295.02" width="30" height="20" as="geometry" />
        </mxCell>
        <mxCell id="8puVXK4cIaAp6UsHXV3n-61" value="&lt;font face=&quot;Times New Roman&quot; size=&quot;1&quot;&gt;&lt;b style=&quot;font-size: 6px&quot;&gt;Sage&lt;/b&gt;&lt;/font&gt;&lt;br&gt;" style="text;html=1;resizable=0;points=[];autosize=1;align=left;verticalAlign=top;spacingTop=-4;fontSize=6;fontFamily=Verdana;" parent="1" vertex="1">
          <mxGeometry x="342.5" y="295.02" width="30" height="10" as="geometry" />
        </mxCell>
        <mxCell id="8puVXK4cIaAp6UsHXV3n-78" value="&lt;font face=&quot;Times New Roman&quot; size=&quot;1&quot;&gt;&lt;b style=&quot;font-size: 6px&quot;&gt;Finance&lt;br&gt;&lt;/b&gt;&lt;/font&gt;&lt;br&gt;" style="text;html=1;resizable=0;points=[];autosize=1;align=left;verticalAlign=top;spacingTop=-4;fontSize=6;fontFamily=Verdana;" parent="1" vertex="1">
          <mxGeometry x="8.5" y="726" width="40" height="20" as="geometry" />
        </mxCell>
        <mxCell id="8puVXK4cIaAp6UsHXV3n-28" value="" style="aspect=fixed;perimeter=ellipsePerimeter;html=1;align=center;shadow=0;dashed=0;spacingTop=3;image;image=img/lib/active_directory/database.svg;labelBackgroundColor=#E6E6E6;strokeColor=#000000;" parent="1" vertex="1">
          <mxGeometry x="243" y="251.01999999999998" width="38" height="28" as="geometry" />
        </mxCell>
        <mxCell id="8puVXK4cIaAp6UsHXV3n-29" value="" style="aspect=fixed;perimeter=ellipsePerimeter;html=1;align=center;shadow=0;dashed=0;spacingTop=3;image;image=img/lib/active_directory/database.svg;labelBackgroundColor=#E6E6E6;strokeColor=#000000;" parent="1" vertex="1">
          <mxGeometry x="202" y="251.01999999999998" width="38" height="28" as="geometry" />
        </mxCell>
        <mxCell id="8puVXK4cIaAp6UsHXV3n-30" value="" style="aspect=fixed;perimeter=ellipsePerimeter;html=1;align=center;shadow=0;dashed=0;spacingTop=3;image;image=img/lib/active_directory/database.svg;labelBackgroundColor=#E6E6E6;strokeColor=#000000;" parent="1" vertex="1">
          <mxGeometry x="283" y="251.01999999999998" width="38" height="28" as="geometry" />
        </mxCell>
        <mxCell id="8puVXK4cIaAp6UsHXV3n-34" value="" style="aspect=fixed;perimeter=ellipsePerimeter;html=1;align=center;shadow=0;dashed=0;spacingTop=3;image;image=img/lib/active_directory/database.svg;labelBackgroundColor=#E6E6E6;strokeColor=#000000;" parent="1" vertex="1">
          <mxGeometry x="324" y="251.01999999999998" width="38" height="28" as="geometry" />
        </mxCell>
        <mxCell id="8puVXK4cIaAp6UsHXV3n-39" value="" style="shape=image;verticalLabelPosition=bottom;labelBackgroundColor=#ffffff;verticalAlign=top;aspect=fixed;imageAspect=0;image=http://web.corballis.ie/technology_logos/microsoft-sql-server-logo-180x180.png;" parent="1" vertex="1">
          <mxGeometry x="326" y="266.02" width="30" height="30" as="geometry" />
        </mxCell>
        <mxCell id="8puVXK4cIaAp6UsHXV3n-91" value="" style="shape=image;verticalLabelPosition=bottom;labelBackgroundColor=#ffffff;verticalAlign=top;aspect=fixed;imageAspect=0;image=http://web.corballis.ie/technology_logos/microsoft-sql-server-logo-180x180.png;" parent="1" vertex="1">
          <mxGeometry x="204.5" y="266.02" width="30" height="30" as="geometry" />
        </mxCell>
        <mxCell id="8puVXK4cIaAp6UsHXV3n-93" value="" style="shape=image;verticalLabelPosition=bottom;labelBackgroundColor=#ffffff;verticalAlign=top;aspect=fixed;imageAspect=0;image=data:image/jpeg,/9j/4AAQSkZJRgABAQAAAQABAAD/2wCEAAkGBxMQEhUSEhIVFRUVFRcVFRcVFRUVFxUVFRUXFhUVFRYYHSggGBolHRUVITEhJSkrLi4uFx8zODMtNygtLisBCgoKDg0OGhAQGy0lICUuLS0tLS0tLS8tLS8tLS0tLS0tLS0tLy0tLS8tLS0tLS4tLS0tLS0tLS0tLS0tLS0tLf/AABEIAM4A9AMBEQACEQEDEQH/xAAcAAABBQEBAQAAAAAAAAAAAAABAAIDBAUHBgj/xABHEAABAgQCBwUFBgQEBAcBAAABAAIDERIhBDEFBhNBUWFxByIygZEUQqGx0SNSYoLB8DNykqJDU8LSc7Lh4iQ0ZHR1k6MW/8QAGwEBAAMBAQEBAAAAAAAAAAAAAAECAwQFBgf/xAA9EQACAQIEAwUFBwMEAQUAAAAAAQIDEQQSITEFQVETImGRoVJxgbHRFBUyQsHh8CMzcgZiovFzJDRDgpL/2gAMAwEAAhEDEQA/AO1PfVYIBMdRY9UA1rKTM5IAvbXcdEAXPmKRn9EAmGixQDQyRq3Z+qAMQV5bkAa7U78kAIfcz3/ogM7S+mcPhBtMRGZDGYDj3nD8LB3neQVZSUdzWlQqVXaEbnhtO9r+HFsNAfFI955ENvUC7j5gLCWJS2PVpcFqS1qSS9TC/wD7bTOMEsPC2bTkYcG0ucSLMfJU7WrLZHYuHYOl/cd/e/0QBoHTUe8TGOZPMHEPH9sKYTLVe7LKpgoaRhf4fUT+znERP4mNBPMRH/Mp2Le7JWPpR/DD5DR2XvHhxYn/AMNw+TlHYPqT95Re8CQ6k6QhfwdIHyiR4fymp7Ka2ZX7Vhpfip+iE1+n8JdsR8UD8UOPMdH9/wDVP60SrpcPq8rea/Ymw/atioTqcZhGk76a4L5bzS6YJ9FKxEl+JGc+DU5K9Kf6ntNE9pGAxcm7XYvPuxxQP65lnxW0a0JHm1uGYilra68P5c9ZCiADOc7gi4IPArU88DGUmZQBe2u46IAufUKRn9EAmGix6oBrWyNRy+qALxXluQBL5infl6IAQ+5nvQAovVuzQEm3CAa5lFx8UAmNruelkA1r6jSckAXuosOt0AXMpFQz+qATBXc7uCAaHzNO7L0QBeaMt/FAZundOYfAw9tiIoZO7Rm554MYLnPy3qspqKuzahh6laWWCucm1m7VMTiTs8I3YsNg6QdFdP1Degmea5J4hvSJ9BhuD04d6q7v0/coaI1FxOKdtcU90MOuS8l8Z2WYOVvvGfJVjSlLWR01MZSpLLTV/dse70RqphMNIsghzh78TvunxE7N8gFvGnGOx59XFVam78jbqVzmsKaCwpoLBmgsCaCwpoLEWKw7IraYjGvbwe0OHxRq+5aMpRd4ux4/TfZ3h4s3QCYL+F3Qz5G7fI+SxlRT2O6lj6kdJ6r1PKsxOktCuADnNhk2H8SA/fYbifJyyvOmdUqWGxi1Wvk/56HR9Vu1DD4siFiZYeIbTJ+yceTz4OjrcyumFeMtHoeJiuE1aXeh3l6/z3Hu3PpsMjdbnlDnMpFQz+qATBXc9LIBofM0nL6IAvNFhv4oAlkhVvz9UAGd/PdwQArvTuyQD/ZxzQDGNLTM5IBPbVduSAc9wcJDNAJhps5ANa0gzOX1QBeKvCgCXAikZ5eiA5/rr2jswVUDDUxY+TjOcOEd4MvE/wDCMt+UlhVrqOi3PVwXDJVu/U0j6s5NBhYrSeIJLnRYjrue82aJ5k5NaNwHkFx96bPo0qWGhZKyOmatasQcEA4d+LviOGXJg90fH5LqhTUTy6+InV02XT6noK1c5rBrQZRVpcZQ1pcZRVpcZRVpcZQVpcZRVpcZRVpcZRVoMpHHa17S14DmuEi1wBBHMFCVdO6Oda16jUTjYQEtzdCzLeJh73Dln1XPUpc4np4fGX7tTzKupXaDH0eRDfONh/uE95g4wnHL+U26Tmop1nHTkVxnDadfvR0l16+87doHS8HFwxHgRA9hseLXfde3Nrri36LtjJSV0fL1qM6Mss1Zmg8VXb9FYyC5wIpGf0QChmnxfVANDSDVuz8kAYne8O7yQBqEqd+XmgGbF37KAc19dj8EAnOosOt0AXMp7wQCa2u56WQDQ+o0nL6IAuNFhv4oDk3aP2hSLsLgn3uIsZp372QiPQu9OK5a1b8sT3uHcMvarVXuX1Oa6I0Y/ExBChi5uScmtGbjyXLGLk7HvzmqcczOu6G0fDwsMQ4Q5ucfE933nfTcuuMVFWR49Scqks0i/tFJnlDtEJyjtolxlFWgyi2iDKLaJcnKLaIRlFtEJyirS5GUW0QZQbRBlBtEIyjTFUjKeI121ZDwcRAbJ2cVg94b3tH3uI35554VYX1R34XENdyfwPKat6wxtHxdrBdYyD2HwxGjc4fI5hZQm4u6NsVhYV4ZZfB9D6B1X1lg46CIsA8ojHeKG/7plu4HevQhNSV0fI4nDToTyy+HibRZIVb/AKq5zgaK7ndwQCD5mndlzsgE40Zb+KANFqt+fJAM9oPJAPe4ESbn6IBMIbZ2fqgGtaQZnL1QBiCrw5eiALnAiQz/AHO6A5b2p67mCHYHDu+0IlHiA3Y0j+E0/eIzO4GWZtzV6tu6j2+F4DP/AFam3JdfE5C1q4j6VI6lqtooYWFI/wAR8nRD8mdB85rqhHKjzK8+0l4G0Hq9zHKOrS5OUIiJcnKHaKLk5BbRLjKLaJcZRbRLjKLaJcnKLaJcZRbRLkZRbRLjKDaJcjIAxFNyMoC9LkZRpiJcjKc3100OIETaMH2cQky+6/Mjocx58Fz1Y2d0elh6maNnuilqvrDF0fHbGhX3PYfDEZO7T+h3FRTm4u6K4rCwrwyy+D6H0ToDS0PGQWYmEZw3jI5tORY4DIg2/wCi9CMlJXR8dWoyozcJbo0Igq8P0VjIJcJSGf69UAIfd8XlvQApM57s/LogJNq39hANLKLhAINrubbkAA+ru/uyATnUWF96A8v2hazDRuGqYft4s2wQZWMu9EI4NBHmWhZVamRHbgMI8RUs9lv9D55e8uJc4kuJJJJmSSZkknMrz2z7GMUlZG5qfghEjh7h3Yfe/N7nxv5K9NXdyleVo26nQBEW9zhyj9qlyyiERVFycodqhKgHaoWyC2qgZQ7RLkWQQ48D6FRdCyCSeB9CozLqR3eo2s8D8Va5NkLaITlBtlIyA2qEZBbVCMoDFS5XKNMVTcjKUNMYYR4T4ZzI7vJwu0+tvNRJXVi1N5JJnMHtlYrlPRZ67s11s9gj7OI4+zxiGxODHe7FHCWR5dAt6NTK7PY8riWD7enmj+JevgfQBdRled13nyYaJd7z9UAGivO0kAq/d8kAfZxxKAawEeLLndAJ4J8OXK10A55BEm58rIBtYYCXkCUySdwAzn6qG7K7BwXW+DidJYp8Y0tZ4YLXPHdhg92wnIm7jzcvDrcSpOV9fI+mwdWjh6Sjrfn7yjA1PefFFaOgJ+i45cSjyizq+8Fyie51W1ThwoN3uJc4kmQbYWFr8D6qkeLTS0ijlrY2cpbI3WaDgj7x/N/0VXxWu+nkYPE1CwzREEe56ud9Vk+JYh8/RFXiKvUmbo+CP8NvpP5qjx1d/mZV1qj/ADMmZh4YyY0flCyliar3k/Mo5ye7Y8Mb90egVe2m+b8yuvUdbgq531IsIlM7AppmFgzUZhYCnOBW4JnYAQOA9FPaPqNRphNPut/pCsq81+Z+Za8upE7BwjnDZ/SFosZWW0n5llUmubIX6Mgn/DHlMfIq64hiF+Yuq9X2iF+h4J90jo4rRcTxC5ryLLEVOpXiaChbi8eY+i1jxaqt0iyxU/A8FrBqWBGeWxSKjUAWz8VzcHjPcn3pd6x9Ttp8Qaik4mFH1TijwvYetQ/Rbx4jTe6Zb7fB7pnX+y/ST3Yb2fEEGJAkGmYdVC93+nw9KV7GDxcKytHdHz2PjDtM8Nn8z2ABnM+H4S3WXacIYl/D5ysgDMSl73xn1QDKHc/VAOD67ZIBF9Fs96ARZT3v3dAeY180nRBEMGTopIP/AA2yLvUkDoSvM4pX7OlkW8vlzOnDQzSv0PBwwvlpHpItQgsmy6PV4G0Ng/CFhmRR7lprlOZEWEIvekmbQgkBUZkLDppmIsKaZhYM0zCwppmFhTTMLCmmYCmmYWFNMwsKaZhYFSZhYBcmZE2GkpmFhpcmdE2GOcpzCxg6eHfB/D8ifqrQd2XjsYkULeJDJdD4/wBnjsibgZP5sNnfC/UBd2Dr9jVUuXP3GNWGeLR1lsSrujI5HlxX2B5ISaOc0AqPe85IBe08kAXy93PkgEyXvZ8+CAawGfey55IDl+tuO2+LeR4WfZtl+Dxf3VfBfK8SrdpXfRafz4np4eOWCM+EvMkdKLcMLFl0bsDFgNaLk0iwE1RYab1bUU9ru1/m/QylNJ2WvuJ4eIc+7AJcTvPRKkadB5ajvLotl8eZCcpax2KAwj/aNpMTvaQlOmmdWcpbl6H26h9h7PK7X6675rW2352uYdjLts1/T4e80nxnwxN0nDlY3yXnU3SryyRWV8uaNnmir7kntcvGKRx3eZRUoVNKM7vo1a/u1floG2vxIsVrjdQvYVajtRYVantULCqUdqLCqTtULCqTtRYVantRYVajtRYBenak2AXJ2osAuU9qTYaXJ2pNiJz1PaDKZGmHTcOn6roou6bJSMeKF1RKsqRVsijOlal44RsI0e/DJhnj3fD/AGkehX1nDq3aUFfdafz4Hl4iOWfvN2HbxeU7ruMQSM/w/CSAkmzl6IBlFF80AqK75buKAraTx2zgxHkeBjn9S0EgeZCpUnkg5dEWjHNJI49DM7m539V8XN3d2eui3BCwkXRJinlsN7hmGmSUYqVWMX1RM3aDZSw2suxhiDCYC5ndc95nU7MkAG4vmSvQjwtYmbrVZb7JcvP6HdhMBngpN2XqHSGlcQGQ5OLGuZX3JbyfeFxlkZb100sJhZ1Zytdp218Er6bP3muCw1HNKEtbOy5E5iOOFopdtZbWRqq2Xj21U8t0ljeKxWa6yXty/Fa2S3qZqNJYnP8AkvbbT3fz3kGAx0fZvO0NIZNu0dYlrmg7OoGoieQO8LWtRwqrQ7nevZ5VtdP8Vtl425HRi6OH7SMUra963T5L/st6M1iixHbKJS8PmCZSc2xM+6JHLguXF8Ko0o9rSvFx21038fqRjcBTpU3OL+DPY4cmls85D5L5zFWdedtrv5nkQXdVyRc5YSASASASASASAE0AJqSQEqSRhKksRuKuiLGNpF03nlZdlJWiLaGfFXREo0U4q2iUZ6Xs5xdMaJD3OZWOrDL5O+C93hFS0pQ66nFi46JnQZV8pea944RV+55TQC9m5/BABk/ey5oBPn7uXLigMDX7EBmDcBKb3MZ/dUfg0rh4jPLQfjob4dXqI5nCXysj00NxOl4UGznTNQaQ0EkTznLKQvLNWhhalTZF1fkrmlgcXDjg0ODgO67MSmMiDcLmqU50msys+Rpl5NFLG6IAqdSyglriWtlEa1olTOdJmTmdwubLtwmOytJt310vo2+e1/LnsbQrSpqyb5+7Xw/mpZGjYhcA/umI8OpaCIcRzJFoc1rTQBvM7zKlY2EVmp65Vu7OUU+abazX6W0M/tMI2Vt7pb3XXVfrsTt0Q0u2Ja7KdZ2svD4NrYGHKQol5rL7dP8AuJre1u713y+1fXNf4GnbTt2mnS2nnbrzuJmh4jXHZuILHEhxrDWFwdUIIiNDXNdvMzuvxieOjNXqJPMttLtK1szTumuSsuenSqxaneLj4PRq/Rt87eGho6uaPpY19XcJc5rZMJLXiVLoly5swCJSyHRcfEsX2lSUXHXRPfdc0ns+Wt+eoq1M7u1rZJ/Dn5F3SumoeGpD83CYFhaYE+l9wK48NgquIu4LYySk3aKv/LFDBa1w3ENfIFzpCl0xIuAZOYBmQ5thPflJdVbhVSKcoapdV0WuzezT3tyDhUiryj19Hb5noV5RAkAkAkAkAkAJoSAlSSkNJUkjCVYkhivkCVeKuyDGimd12xJZUirWJRopRVvEzZc1UxGzxkEnIvoP5wW/Mhejw+WWvHyOeurwZ1uJ+HzkvqTyw2l+L4zQDO/zQDq67ZIBV0Wz3oDxnab3YUFs/FELv6WEf6l5fFX/AE0vE6sIu82eFhFfOSPRRi4vV8viPdDfKbiTU+mRPeOTSd9l308aowSkvT9yzk5WUpOy22N7VrRrcO1wnNxPeM5iwmALDKfBedja7rST5cjRSk13nexknXJ7gQYEOThIglxsV2LhkYu6m7r3Hrx4W5L8XoU8VpGJENZLxVcCt0vLku+hRpxWVW08Eb4TDxleNOUXbe8P3NvU7V86RMUGO6EIQafvTqq4kSlSuylQU72t5HPxPGTwORKEHmvyttbx8T0T9V8Ng2CPE0iXNEqQw+MkVAClxJmB6LPEYHNB6r/8q/wu9zylxHE4qXZwpRv4R9TcgYzDHZsZiJuiteYbRDnaG2ZqIJDRIW4yXjx4Hh6lN1FOV9dGldNcmczeIjmbhpFpPwvsU9OaMZiWNa+xB7r5TpnulMTBlv5LwMHip4ebcfitrm7M/Req8ODFa9zhEIJLRs6QDnUe8Zy58QuvE8UqVabglbrrf4bEuzeit8T0i8cqJAJAJAJSSAoSCaABUkjSrEjHFSixSxcTct6a5kWM+IuhEMpxVtEqylGK2iZsiwsWmLDd92Ix3o4FdeHdqkX4oxmrpnbZ0c5+S+vPIFR7/nJAH2nl8UAngDw58roBMkfFnztZAeC7UHH/AMODxi/KGvH4ttD4/odmE/N8DxcIrwZHfE09G6PZF2hdVMBsqXObudw6L1uGYanWhLOr2ZyYqpKEllZLg2BrZCcgXZzJzO9ePxGEYYmcY7JnZh25Uk2c2wAbW2sybme6HbspGxXt1c2V5d/I+g4lVlDDq3O2vQ0GwYUNju/csHuC7g5xNJnYSOfksc9SUlZc+p49HFSVVOPW9rvX6nsezTCMjwcfCiOLGPhQw9zZTDftC4iYO4L1sK8ykdv+o5unUoSjq1f9DzWlMXZkAOhRWQ/4cVjS15YZlrCTIloqJpIscirN8j0sJRXbLEZJRcr3jdb6XklfbyPe6mYLZbExWtJiYGK+Cc6TtXPffc6mIz4hKitTl/iz57ieIdZ1Mt1aorr4WXrFm22EHya4TB6jdxC+A4dCM8XTjJXTZlXbVOTRo6V0dCg0GG2kmc7k8OJXtf6hw1KjCn2cUrt7fA5MHUlNvM7lBfLHeJCBTQkSACARQICkkBUokYSpJIYr5K8VcsUYi6IhlWItUUZSjFbRKsoxit4mbKUZy6IaGbO8NvOrynZfYnjDZmf4fhJASUs5eqAYGUXzQCLa75bkB4XtUdNmHPBzx6hp/wBK8risbxizswj1Z4CLHLGOeBMtaTLjJeHGClNRfM74q7SM3RTsbjA8wXuAHjpe2GwZkCxqNp8V7uGoSgnGnojqqvB0Jf1Fmfn+xM3R2NaC6G8zDnWbGqPSTrE/VefiZ0I1XCtvzdv1OilXws4LuWXut8jAw+H2ndvKV5ZgSkJDfchdkazozVRWundX201Oni7jLC9k/wA1vQtRWMeA5pdOCNnKQv7sjzUt16EXCcUlVtK/gr7frzPBwEYVMVTcLtxdrGlqfrj7BEiAw2RYcUNbEa4GRAqs105e8c2kFelRwGKpUe3yd3ffW3Wx6PEcZgsdXVDtLTi2k7d2/S978t7JHsNOxhioTcJo/COEGmHGD2NABBLw4RDupfMTqzDt0iqt5klHYpgY/Zq0q2KmsyurNu97K1rdfkWeziGDDxNQc+LAhPbDfWHwmMiNJphgEtmXNJmFVKOWSl09CeNzTlTlB92dm9LSbWl3pf3GVAwOk4jQS6IHTt9q1lqTLutIAvJfK4eeF7eMKNr300e/vZ6NWtw2Cfduuej+vQs6R0npHB0+1F8pmkRqXw3SYCQ2I3vVkgyvvyXfxHDVa0VCvquTW/8A1axlQocPxLth3ZvpdPfo9LJdNT1WDj7SGyJSW1sa6RzFQBkfVfG1YZJuN72bR50llk10JlQqFABAJCRpUkgQkBUgic5XSLIrRFqixWiLSJVlSKVtEqyjGK3iVZRjOW8UZspyqcBxIHqZLppxvJIzk7HeXCvlJfXHjCr93ymgB7MeKATCT4sudkAnkjw5cr3QHku1HDg4Rjh7kZpPRzXN+ZC8/iMb0r9GdOFdpnNITuMpb55S3zXzzR6KG6K03hcC2KGTcX0kNYZiYDh4jYC43le7gq01B9rvy6k1sJXxMo9ErXYdVxEfEjYh7aRFyG4mZNgbkC4nzXk8WqxnJR5p+R1yjCEI04u9la5nxtABjozREP2WHEYd0XJl3TfK6tHGOUYPL+KVtztjipVIwzRi7u2q9xS0vov2fZUmrawGxj3ZSc4GQzM7nPmurD4p12+02jLLvfRWL4bK87pwjGXeScVZ3yuxjNjdwutIs2UrTtJ1WXDfmvslh5fauwU3pLtb8srurbb2/wDry3Pgc67PPbll+O9zoWpuu8fBYfYsw7YoqqmS6YLmibZAcQ4y5lfMLGRpXjyu7a8rn2+L4bSxE1OrVUZZYprxstSzo7Xf2URdlgWQxGM3yixCJylMTFs5kcSqvGRlFxS3IfCYYiy+0ZnFOytyWpd1ujvgR8LiJOdChnvAG1U9+4EjKfML53gVWnCcr73+NicJQjiKdWldKcl3bnotOxcHpeHApi1Bhc4wwQ1+QBD2m4HMeRXr8bxsqVGMqVtXv0/niedhIYnAVJxnHK2rXa+T2LjRKw6L4Zu5IVAEgEgAVJI0oSNKksRuKuiyInKyJIIi0RJVilaxKspxitolSjGK3iUZnx3LoiijHaCg7TFwGcY0OfQOBd8AV3YWOarFeJhVdoNncIlvD5yuvpzyQyEp+9+vRAMrdz9EA8vrsEAg6ix6oDE1xwG0wUcZkMrAGc4ZDx/yrDEwzUpI0oytNM4xSHtLTk4Fp6ESXzN3GSa5HrJl7UzRjGNeXw2mIB4iA45xJFs50zAbkvdwVRVMz5aW8jmx9epOSu3boaUF3i6u+ZXz3E1/6qfvOnC/2o+4zMaftMV/7Fv+lVp/gpf+R/qd9L8MP8voWsPBbEiwGPE2u0aAR6EEcwbrKU3CnOUd+1JzOMHJbqX6M8jH0IIbYEQuBEcF0rgNk6kzBtz4L6CHFq8ozoJu0e7yvbe197eB0LB4V1alfs1mg76t5W+uXqESZIONJM2yM8zx4Xz8rXXPZy1WvM1r4ynTks007yTT6vXR/V6eJJEcaCJGQIlmJkg9485CXQhVSWY7MMk6qldXcZXS5eB2VrA6QcAQbEETBHAjevmOGf8AvKf+SPmaztSbXQ89r/qbBw7G4jC1Q3lwAhtmQXOLWtDDObDN3GXRfYcQUKTjppK9+lkr7Hbwni9ao3Rr2lG3Pf8Ac9BhWuDGBxm4NaHHi4ATPqvgajTm3Ha5yys3oTKhAkAkA0qSRpUlhpUkjHKyLIierIsVohWqIKkUraJVlKM5bRRUoR3LoiijM+M5dEUUbNvs6wu1xzTuhse/zlQP+efkvV4dC9W/Q5MTK0LdTrjTRnefBe6ecKj3t2aAd7QOBQAe0Nu3P1QCYA67s/RAMHe7rrtOaA4RpPBnDR4sE/4by0c25tPm0tPmvmK9PJNxPWhLNFMjwmLfU/ZxJZNIbszOQOYdl4lNOvUoR7ulys4QqPU0cA8kEOJmHGZMrzuDa2RXDiZupN1Hz1OiklGOVcijHi1PxJ/9DI8i0tBHkQVpGNo01/vOuk+7D/L6Gjo0/b4X/wCOHyXNW/tVP/ITL8Ev8v0ZkaSYThsC4WAa9tW4OMSYB8r+S76EH2leVtLr5HdGabxEOe/wTMiGxpsQ00gm9wCBYTnkLrqcmtnuaV6Cq5Z1Iqzksun/AC97JXCbTK9RAAncOkbfvOY4Ki0evL+fz4nRSThVtNJOMZX0Wvjtz9LHY3PokZTIIEpymeq+UwdVUq8Kj2TufN1I5oOPUu4/SO2oaYZbKfiLTMyHDpNerxfilPGU4qCas/mc2HoOk22yBfPHUGSAUkAEAigGlSWQwqyLEblZFkQRCrosVYpW0UQU4rltFFGUI71vFFWZ8d66IoozPjPXRFGbZ0TspwFMGLiDm9wYz+VmZHUuI/Kve4dTtBy6nn4qV5JHuofe8XluXonKCozluy8uqAk2Tf2UAxrKLn4IBObXcdLoAufV3QgOX9q2iTDisxAFojdm/hW0GmfVsx+ReTxClaSmjtw0rpxOZw9GkZww4ZAAwnS4zrY34ei9dcbw0tJJr3r6N/zmef8Ad1WOz9TR0Fh3Q4t2vaJHuy7l5Xmx1E/yg/NebxnFYTE4dSpWz3V9LStZ+G23M6sBRr0qtp3y2+BtYnAVbR0OQfEhGE6eTgZSNsnCQvvC+bhWy5Yz2Tuv50PajJpprk72L2jNHv2kB1UMbLC7Bwc6Rc8D3ZgAg9R5LphhqdeM4qpHvTzfD48zOrinGLWV6u/zKTosHZtwz24hkJrPC+C90bbA2iMawljhMuFjKRkvW7CoqzUf7b+m/wDle3hY5ocSUJuu1377W0a6e4qYjVfFwu86DWHNnOprXEOGTmEhzXZTBE571lXwzpK7aS96/U9uhj8NUV41HDW+Vq9n4Gpqvq1E2jYuIaGNYaocO0y/c50twzE7mQ3C/gY7HwyunSd2934dF/LE1sRHI4Qbd95PdrouiPQ6WxEdrpQwA0AOrMOoA3BFcRzYQz3uB4Ar0/8AT3AMNj6Lq1ZtWbjlTWuifRv0+KPmeI46rQnkglte7/iXqVzjMQC2ZaDuGwhCo77HEBzrH/DDvNe4v9HYGz78/Pb/AIfOx574tXutvLf/AJfK56NmQnmvzKatJpH0ieg9UAkAkACpJI3KUWQwqyLIieVdFkV4jlpFElOK5bRRDKUZ63iijM6O9dEUVZnx3rpijNsouBe4NaJucQ1oG9zjID1K6acW3ZGbdtTu2hNGDCwIUMSIhtAMt7jdzvNxJ819NTgoQUVyPJnLNJsvO7+W7irlQ12p35ckAz2c8kAWOLjI5IBPdTYIBz2homM0Bm6f0SMbhokJ1nEdw/de27D658iVlWpqpBxL055ZJnCBFDHOY4hr2Etc0kTa5pk4HmCCvnZ0pLRo9dRdr2NDDxJ5LlnEsmaMB65pIumaEF655Iui5BlwCybktmTZPcuQQBkB5BYSu9y2iLbHLFoEUTAQnvER8JjngSDnNBIHn1Pqt4Y3E06TowqSUG7tJtJswnh6Up55RTfULNE4cAgQIUneIbNl+tlMuJYxuLdWd47d56e7Uz+y0VdKC18EX2CVhaS4m7u7NbDlUgSASAaVJJG5WRdEbirIsiCI5aJE3KsV61igUor1vFFWUI8RbxRVmfiHLpgijZmYmOBmQOpAXTCDfIpZvY9V2WaIGJjnEmRhwLNlkYpFr/hBn1LV6+Bw7zZ5LY5MVJxWV8zqwcSad2S9Y88MTu+HegDSJVb8/NAM2zkA9767BAJjqLHrZANayk1HJAF7a7jpdAcZ7atV6HjHwm918mYgfdfZrInR1mnmB95c9aHM9jhuJ/8AjfwOXQ3kZEjpZcrV9z2k09y7A0lFblFePzFYyoU5bxRoqdN7pF6FrBiBlFPmGn5hc8sHRf5TRYai/wAvzL8HWzEj3mnq0fosJcOoPk/MusDRfXzL0HXaOM2Qj5OH+pYS4VRezfp9Cfu2k9m/T6F6Dr64ZwGno8j9CsJcHi9pPyH3UuU/Qss7QOOH/wD0/wC1ZPg3+/0/cj7ovtP0/csM7QYe+A/yeP8Aas3wWXtry/cq+DT9teX7ko7QIX+RE/qb9FX7lqe2vJlfuSr7a9SQdoED/Ji/2fVVfBavtL1Kvglb2l6jj2gYf/Ki/wBg/VR9y1faXqPuSt7UfX6DHdoMHdBierQrLgtT2l6krglX2l6kbu0GF/kP/rb9FZcFn7a8ifuWp7a8mQv7QWbsO7ziD/arLgsuc/T9y64NLnNeX7leJ2gcMP6xP+1argy5z9P3J+6P9/p+5Sja9RT4YUMdaj+oW0eEU1vJ+hP3XBbyZQi65Yg7oY6NP6krePDKC6+YfD6K6lGPrNiXf4gHRrfouiOAoLl8yHg6K5epSjabjnOK7ykPkto4WivyoyeHpL8pnxsS93ie49SSuiMIrZFHGK2QdG4CJiYrIEJtT4jg1o5neeAAmSdwBW0Vd2OerVUIuT5H03q1oJmDw0PDwriGO842L3m73nqfQSG5d0Y2Vj5atVdWbkzWL5infl6KTMDO5nv4IAUXq3ZoCT2gc0A17KbhAJja7nogGtfUZHJAF7qLDqgIsfgocWE9kRocx7S1zTkQ6xHxTcmMnF3R81676rv0ZiDDM3QnzdBefebvB/E2YB8jvC4qkMrPpMJiVWjfnzMFpWTPQjIla5VaOiMiVrlRo3jIlaVRo3jIkBUWNVIcCqmqY4FQXTCCha46agm4poLgmpFwEoVbGkqSrY0lSZtjHOU2M3IjcVZIwlIicVdIwlIic5XSMJSInFWSOeUjuvZLqX7Iz2iO2UeM2QaReDDN5cnutPgJDiuylDKrs+cx2K7WWWOy9TojzRlvWpwBLJCrfn6oAM7+e5ACu9O7JASbAICNjaTMoBPbXcdEA576hIZoBQ3UWPVANawg1HL6oDM1o0BC0lAdBii2bXe9DeMnt538wSFWUVJWZrRqypSzRPnDWbV6No6OYMYcSx48MRs/E0/MZhcc4OLPpMNiI1Y3Rltcs2jtjIma5UaN4yJGuVWjeMiQFUaNlIeHKDVSHgqLGikGagspBmhbMKaDMKaEZgEoQ5DSVNjNyGFytYzchjnKUjKUiNzldIxlIic5WSOeUiJxV0jCUjrXZX2eE043FMyk6BCdxzEV4+LR58F00qfNnhY7G3/pw+LOvufMUjP6LoPJFDNGe9ANDZGrdn6oAxO/luQBrtTvyQEewKAc19dj8EAXuosOt0AXMpFQzQCY2u56WQDQ+o0nL6IAvNFhv4oDL1m1cgY+AYUdswbtcJB0Nx95h3H4HfNVlFSVma0q0qUs0T561v1QxGjHyiCuE4yhxmjuu3yP3Xy9085TXJOm4n0OGxcKy036GC1yyaPQjIla5VaNoyJGuVGjaMiQOUNGykODlWxopDg5RYspBqSxbMKpLDMKpLDMNqU2KOQ0uSxVyGlyskZOZG5yskYykROcrJGMpDWNLiGtBc5xAaACSSbAADMkq6Rzzmkrs7D2c9mQhubiMc0F+cODYhhzDom4u/DkN8zl1U6VtWeDjMfn7lPbqdVe6iw63W55YSyQq3/VABgrud3BAAPmad2XOyALzRlv4oA0Wq358kAz2g8kA97g4SGaATHBtnZ+qAa1paZnJAF4qu36IAucCJDNAKGafF9UA0NINRyQEWPwrMQww3sa9jhJzXAEEcwUauTGTi7o5Brj2TOYTE0eS8b4Dj328dm82cORvbMrmnR9k9jDcS/LV8zmEaE+G4se1zHNMnNcC1zTwINwudqx7MKikrpia9VsdEZkgcq2NVMcHKtjRTHByixZTDUli2cNSixOcFSmxDmAuU2KuYwuU2M3MYXKbGbmMc9WSMpTNvVnVDFaRP2MOUOcnRXzbDbxv7x5NmVrCm5HBiMZTpLvPXodu1O1Bw+jwHs+1jSk6M8AEHeIbfcHqea6oU1E8DEYudZ66Loetc4ESGa0OUUM02d9UA1rSDM5fVAGIKvD9EAS4EU78vNACH3fFv8ANACkzq3Z+SAk2zf2EA1zKLj4oBNbXc9LIAB9XdP7kgE51Fh1ugCWUirf9UAGiu53cEAg+Zp3ZeiATjRlv4oA0SFW/NAY+nNWsLpFssTBa4gSa8d17ejxeXLLkqyipbm1KvUpO8Gct1g7H4rCTg4wiidmRZMf0Dx3XHrSsJUOh6tHiq2qK3uPBaW0HisIZYiBEhXlNzTSf5Xjuu8isJQa3PVpYmnU/C7lAPVLHQpjg9RYuphrUWLZw1pYZwVpYZwF6mxVzA2biGtBJNgBck8AFZIzlUS3PVaF7OdIYqTtjsWH3o/2f9njPpJaxoyZ59biNGHO78Dpeq/ZNhIEn4gnEvG5wphD8l6vzEjkt40Utzya/EqtTSOi9T3kACQYGhrQJANEgAMgBkAtjz277j3OosOt0ICWU94fuaATW13PSyAAfM07vogE40WG/igCWSFW/P1QAaK893BAKu9O7JAO9nHEoCOAZm6AWIMjbggJYwk1ADD3F+KAjhHveqAOIsRJAPeO75BADDXnNAMB70uaAdibSlzQD5d2fJARwGhwIdccDcIDzulNSNH4hxrwkMEnOGDCPWcMiao6cXyOiGLrQ2k/n8zB0j2QYA3Y+PD5B7XD+5pPxVHQidUeKV1vZme7sWhETbjIg6w2n5OCr9nXU1XF6nOKIoXYvDJ/86//AOkf70+zrqT97z9leZYh9jeGaZPxMd38oht+YKnsIlHxarySNuB2W6NggEwnxCDnEiOPqGyB9FZUYIwnxGvLnb3HqdD6Iw+HbKDAhw/5GNaT1IEytEktjknUnP8AE2yxhzM34KSgsQZG3BASxxIWQAw9xfigI4R73qgDiLG3BAPiDu+iAGHuDNAMae9LmUA7E2lJAOI7s+SAr1HigP/Z;" parent="1" vertex="1">
          <mxGeometry x="205" y="239.01999999999998" width="14.4" height="12" as="geometry" />
        </mxCell>
        <mxCell id="8puVXK4cIaAp6UsHXV3n-94" style="edgeStyle=orthogonalEdgeStyle;rounded=0;jumpSize=5;orthogonalLoop=1;jettySize=auto;html=1;strokeColor=#3F3F9E;strokeWidth=2;fontFamily=Verdana;fontSize=6;" parent="1" source="8puVXK4cIaAp6UsHXV3n-29" target="-iunoCh2YkMXYXxtYYaG-33" edge="1">
          <mxGeometry relative="1" as="geometry">
            <mxPoint x="167" y="345.52" as="sourcePoint" />
            <mxPoint x="208.33333333333337" y="214.5200000000001" as="targetPoint" />
            <Array as="points">
              <mxPoint x="220.5" y="237.01999999999998" />
              <mxPoint x="198.5" y="237.01999999999998" />
            </Array>
          </mxGeometry>
        </mxCell>
        <mxCell id="8puVXK4cIaAp6UsHXV3n-95" value="" style="shape=image;verticalLabelPosition=bottom;labelBackgroundColor=#ffffff;verticalAlign=top;aspect=fixed;imageAspect=0;image=http://web.corballis.ie/technology_logos/microsoft-sql-server-logo-180x180.png;" parent="1" vertex="1">
          <mxGeometry x="247" y="266.02" width="30" height="30" as="geometry" />
        </mxCell>
        <mxCell id="8puVXK4cIaAp6UsHXV3n-98" value="" style="shape=image;verticalLabelPosition=bottom;labelBackgroundColor=#ffffff;verticalAlign=top;aspect=fixed;imageAspect=0;image=https://www.freeiconspng.com/uploads/sweden-icon-4.png;" parent="1" vertex="1">
          <mxGeometry x="239.5" y="239.01999999999998" width="19.96" height="15" as="geometry" />
        </mxCell>
        <mxCell id="8puVXK4cIaAp6UsHXV3n-99" value="&lt;font face=&quot;Times New Roman&quot; size=&quot;1&quot;&gt;&lt;b style=&quot;font-size: 6px&quot;&gt;Exact&lt;/b&gt;&lt;/font&gt;&lt;br&gt;" style="text;html=1;resizable=0;points=[];autosize=1;align=left;verticalAlign=top;spacingTop=-4;fontSize=6;fontFamily=Verdana;" parent="1" vertex="1">
          <mxGeometry x="262.5" y="234.01999999999998" width="30" height="10" as="geometry" />
        </mxCell>
        <mxCell id="8puVXK4cIaAp6UsHXV3n-100" style="edgeStyle=orthogonalEdgeStyle;rounded=0;jumpSize=5;orthogonalLoop=1;jettySize=auto;html=1;strokeColor=#3F3F9E;strokeWidth=2;fontFamily=Verdana;fontSize=6;" parent="1" source="8puVXK4cIaAp6UsHXV3n-28" target="-iunoCh2YkMXYXxtYYaG-33" edge="1">
          <mxGeometry relative="1" as="geometry">
            <mxPoint x="231.66666666666674" y="264.1866666666667" as="sourcePoint" />
            <mxPoint x="208.33333333333337" y="214.5200000000001" as="targetPoint" />
            <Array as="points">
              <mxPoint x="262.5" y="237.01999999999998" />
              <mxPoint x="198.5" y="237.01999999999998" />
            </Array>
          </mxGeometry>
        </mxCell>
        <mxCell id="8puVXK4cIaAp6UsHXV3n-102" value="" style="shape=image;verticalLabelPosition=bottom;labelBackgroundColor=#ffffff;verticalAlign=top;aspect=fixed;imageAspect=0;image=https://cdn3.iconfinder.com/data/icons/flags-of-countries-3/128/Portugal-512.png;" parent="1" vertex="1">
          <mxGeometry x="286.5" y="239.01999999999998" width="12" height="12" as="geometry" />
        </mxCell>
        <mxCell id="8puVXK4cIaAp6UsHXV3n-103" value="" style="shape=image;verticalLabelPosition=bottom;labelBackgroundColor=#ffffff;verticalAlign=top;aspect=fixed;imageAspect=0;image=http://hoster2.onlinebadgemaker.com/8dc55fd05846082262846857b13c673c50c8919880a6b.png;" parent="1" vertex="1">
          <mxGeometry x="325.5" y="239.01999999999998" width="10.9" height="12" as="geometry" />
        </mxCell>
        <mxCell id="8puVXK4cIaAp6UsHXV3n-104" style="edgeStyle=orthogonalEdgeStyle;rounded=0;jumpSize=5;orthogonalLoop=1;jettySize=auto;html=1;strokeColor=#3F3F9E;strokeWidth=2;fontFamily=Verdana;fontSize=6;" parent="1" source="8puVXK4cIaAp6UsHXV3n-30" target="-iunoCh2YkMXYXxtYYaG-33" edge="1">
          <mxGeometry relative="1" as="geometry">
            <mxPoint x="272" y="261.02" as="sourcePoint" />
            <mxPoint x="208.5" y="214.51999999999998" as="targetPoint" />
            <Array as="points">
              <mxPoint x="301.5" y="237.01999999999998" />
              <mxPoint x="198.5" y="237.01999999999998" />
            </Array>
          </mxGeometry>
        </mxCell>
        <mxCell id="8puVXK4cIaAp6UsHXV3n-105" style="edgeStyle=orthogonalEdgeStyle;rounded=0;jumpSize=5;orthogonalLoop=1;jettySize=auto;html=1;strokeColor=#3F3F9E;strokeWidth=2;fontFamily=Verdana;fontSize=6;" parent="1" source="8puVXK4cIaAp6UsHXV3n-34" target="-iunoCh2YkMXYXxtYYaG-33" edge="1">
          <mxGeometry relative="1" as="geometry">
            <mxPoint x="282" y="271.02" as="sourcePoint" />
            <mxPoint x="218.5" y="224.51999999999998" as="targetPoint" />
            <Array as="points">
              <mxPoint x="343.5" y="237.01999999999998" />
              <mxPoint x="198.5" y="237.01999999999998" />
            </Array>
          </mxGeometry>
        </mxCell>
        <mxCell id="8puVXK4cIaAp6UsHXV3n-106" value="&lt;font face=&quot;Times New Roman&quot; size=&quot;1&quot;&gt;&lt;b style=&quot;font-size: 6px&quot;&gt;Exact&lt;/b&gt;&lt;/font&gt;&lt;br&gt;" style="text;html=1;resizable=0;points=[];autosize=1;align=left;verticalAlign=top;spacingTop=-4;fontSize=6;fontFamily=Verdana;" parent="1" vertex="1">
          <mxGeometry x="303.5" y="234.01999999999998" width="30" height="10" as="geometry" />
        </mxCell>
        <mxCell id="8puVXK4cIaAp6UsHXV3n-107" value="&lt;font face=&quot;Times New Roman&quot; size=&quot;1&quot;&gt;&lt;b style=&quot;font-size: 6px&quot;&gt;Exact&lt;/b&gt;&lt;/font&gt;&lt;br&gt;" style="text;html=1;resizable=0;points=[];autosize=1;align=left;verticalAlign=top;spacingTop=-4;fontSize=6;fontFamily=Verdana;" parent="1" vertex="1">
          <mxGeometry x="344.5" y="233.01999999999998" width="30" height="10" as="geometry" />
        </mxCell>
        <mxCell id="8puVXK4cIaAp6UsHXV3n-108" value="" style="shape=image;verticalLabelPosition=bottom;labelBackgroundColor=#ffffff;verticalAlign=top;aspect=fixed;imageAspect=0;image=http://web.corballis.ie/technology_logos/microsoft-sql-server-logo-180x180.png;" parent="1" vertex="1">
          <mxGeometry x="285.5" y="266.02" width="30" height="30" as="geometry" />
        </mxCell>
        <mxCell id="8puVXK4cIaAp6UsHXV3n-109" value="&lt;font face=&quot;Times New Roman&quot; size=&quot;1&quot;&gt;&lt;b style=&quot;font-size: 6px&quot;&gt;Antas&lt;br&gt;&lt;/b&gt;&lt;/font&gt;&lt;br&gt;" style="text;html=1;resizable=0;points=[];autosize=1;align=left;verticalAlign=top;spacingTop=-4;fontSize=6;fontFamily=Verdana;" parent="1" vertex="1">
          <mxGeometry x="221.5" y="296.02" width="30" height="20" as="geometry" />
        </mxCell>
        <mxCell id="8puVXK4cIaAp6UsHXV3n-110" style="edgeStyle=orthogonalEdgeStyle;rounded=0;jumpSize=5;orthogonalLoop=1;jettySize=auto;html=1;strokeColor=#3F3F9E;strokeWidth=2;fontFamily=Verdana;fontSize=6;" parent="1" source="8puVXK4cIaAp6UsHXV3n-64" target="-iunoCh2YkMXYXxtYYaG-33" edge="1">
          <mxGeometry relative="1" as="geometry">
            <mxPoint x="231" y="261.02" as="sourcePoint" />
            <mxPoint x="208.5" y="214.51999999999998" as="targetPoint" />
            <Array as="points">
              <mxPoint x="219.5" y="297.02" />
              <mxPoint x="198.5" y="297.02" />
            </Array>
          </mxGeometry>
        </mxCell>
        <mxCell id="8puVXK4cIaAp6UsHXV3n-111" style="edgeStyle=orthogonalEdgeStyle;rounded=0;jumpSize=5;orthogonalLoop=1;jettySize=auto;html=1;strokeColor=#3F3F9E;strokeWidth=2;fontFamily=Verdana;fontSize=6;" parent="1" source="8puVXK4cIaAp6UsHXV3n-63" target="-iunoCh2YkMXYXxtYYaG-33" edge="1">
          <mxGeometry relative="1" as="geometry">
            <mxPoint x="241" y="271.02" as="sourcePoint" />
            <mxPoint x="218.5" y="224.51999999999998" as="targetPoint" />
            <Array as="points">
              <mxPoint x="260.5" y="297.02" />
              <mxPoint x="198.5" y="297.02" />
            </Array>
          </mxGeometry>
        </mxCell>
        <mxCell id="8puVXK4cIaAp6UsHXV3n-63" value="" style="aspect=fixed;perimeter=ellipsePerimeter;html=1;align=center;shadow=0;dashed=0;spacingTop=3;image;image=img/lib/active_directory/database.svg;labelBackgroundColor=#E6E6E6;strokeColor=#000000;" parent="1" vertex="1">
          <mxGeometry x="241.5" y="312.02" width="38" height="28" as="geometry" />
        </mxCell>
        <mxCell id="8puVXK4cIaAp6UsHXV3n-64" value="" style="aspect=fixed;perimeter=ellipsePerimeter;html=1;align=center;shadow=0;dashed=0;spacingTop=3;image;image=img/lib/active_directory/database.svg;labelBackgroundColor=#E6E6E6;strokeColor=#000000;" parent="1" vertex="1">
          <mxGeometry x="200.5" y="312.02" width="38" height="28" as="geometry" />
        </mxCell>
        <mxCell id="8puVXK4cIaAp6UsHXV3n-65" value="" style="aspect=fixed;perimeter=ellipsePerimeter;html=1;align=center;shadow=0;dashed=0;spacingTop=3;image;image=img/lib/active_directory/database.svg;labelBackgroundColor=#E6E6E6;strokeColor=#000000;" parent="1" vertex="1">
          <mxGeometry x="281.5" y="312.02" width="38" height="28" as="geometry" />
        </mxCell>
        <mxCell id="8puVXK4cIaAp6UsHXV3n-67" value="&lt;font face=&quot;Times New Roman&quot;&gt;&lt;b&gt;Exact&lt;/b&gt;&lt;/font&gt;" style="text;html=1;resizable=0;points=[];autosize=1;align=left;verticalAlign=top;spacingTop=-4;fontSize=6;fontFamily=Verdana;" parent="1" vertex="1">
          <mxGeometry x="302.5" y="298.02" width="30" height="10" as="geometry" />
        </mxCell>
        <mxCell id="8puVXK4cIaAp6UsHXV3n-69" value="" style="aspect=fixed;perimeter=ellipsePerimeter;html=1;align=center;shadow=0;dashed=0;spacingTop=3;image;image=img/lib/active_directory/database.svg;labelBackgroundColor=#E6E6E6;strokeColor=#000000;" parent="1" vertex="1">
          <mxGeometry x="322.5" y="312.02" width="38" height="28" as="geometry" />
        </mxCell>
        <mxCell id="8puVXK4cIaAp6UsHXV3n-70" value="" style="shape=image;verticalLabelPosition=bottom;labelBackgroundColor=#ffffff;verticalAlign=top;aspect=fixed;imageAspect=0;image=http://www.createtshirtdesigns.com/image-files/ch.png;" parent="1" vertex="1">
          <mxGeometry x="241.5" y="300.52" width="13" height="13" as="geometry" />
        </mxCell>
        <mxCell id="8puVXK4cIaAp6UsHXV3n-71" value="" style="shape=image;verticalLabelPosition=bottom;labelBackgroundColor=#ffffff;verticalAlign=top;aspect=fixed;imageAspect=0;image=https://trinity-edu.com.ua/assets/images/lde.png;" parent="1" vertex="1">
          <mxGeometry x="199.5" y="301.02" width="18.66" height="14" as="geometry" />
        </mxCell>
        <mxCell id="8puVXK4cIaAp6UsHXV3n-72" value="" style="shape=image;verticalLabelPosition=bottom;labelBackgroundColor=#ffffff;verticalAlign=top;aspect=fixed;imageAspect=0;image=https://www.fg-a.com/flags/poland-flag-button-1.png;" parent="1" vertex="1">
          <mxGeometry x="283.5" y="300.52" width="14" height="14" as="geometry" />
        </mxCell>
        <mxCell id="8puVXK4cIaAp6UsHXV3n-73" value="" style="shape=image;verticalLabelPosition=bottom;labelBackgroundColor=#ffffff;verticalAlign=top;aspect=fixed;imageAspect=0;image=https://cdn.countryflags.com/thumbs/france/flag-3d-round-250.png;" parent="1" vertex="1">
          <mxGeometry x="325.5" y="300.52" width="12" height="12" as="geometry" />
        </mxCell>
        <mxCell id="8puVXK4cIaAp6UsHXV3n-74" value="" style="shape=image;verticalLabelPosition=bottom;labelBackgroundColor=#ffffff;verticalAlign=top;aspect=fixed;imageAspect=0;image=http://web.corballis.ie/technology_logos/microsoft-sql-server-logo-180x180.png;" parent="1" vertex="1">
          <mxGeometry x="324.5" y="323.52" width="30" height="30" as="geometry" />
        </mxCell>
        <mxCell id="8puVXK4cIaAp6UsHXV3n-113" value="" style="shape=image;verticalLabelPosition=bottom;labelBackgroundColor=#ffffff;verticalAlign=top;aspect=fixed;imageAspect=0;image=http://web.corballis.ie/technology_logos/microsoft-sql-server-logo-180x180.png;" parent="1" vertex="1">
          <mxGeometry x="245.5" y="324.02" width="30" height="30" as="geometry" />
        </mxCell>
        <mxCell id="8puVXK4cIaAp6UsHXV3n-112" value="" style="shape=image;verticalLabelPosition=bottom;labelBackgroundColor=#ffffff;verticalAlign=top;aspect=fixed;imageAspect=0;image=http://web.corballis.ie/technology_logos/microsoft-sql-server-logo-180x180.png;" parent="1" vertex="1">
          <mxGeometry x="204.5" y="324.02" width="30" height="30" as="geometry" />
        </mxCell>
        <mxCell id="8puVXK4cIaAp6UsHXV3n-114" value="" style="shape=image;verticalLabelPosition=bottom;labelBackgroundColor=#ffffff;verticalAlign=top;aspect=fixed;imageAspect=0;image=http://web.corballis.ie/technology_logos/microsoft-sql-server-logo-180x180.png;" parent="1" vertex="1">
          <mxGeometry x="287" y="322.02" width="30" height="30" as="geometry" />
        </mxCell>
        <mxCell id="8puVXK4cIaAp6UsHXV3n-115" style="edgeStyle=orthogonalEdgeStyle;rounded=0;jumpSize=5;orthogonalLoop=1;jettySize=auto;html=1;strokeColor=#3F3F9E;strokeWidth=2;fontFamily=Verdana;fontSize=6;" parent="1" source="8puVXK4cIaAp6UsHXV3n-65" target="-iunoCh2YkMXYXxtYYaG-33" edge="1">
          <mxGeometry relative="1" as="geometry">
            <mxPoint x="270.5" y="322.02" as="sourcePoint" />
            <mxPoint x="208.5" y="214.51999999999998" as="targetPoint" />
            <Array as="points">
              <mxPoint x="300.5" y="297.02" />
              <mxPoint x="198.5" y="297.02" />
            </Array>
          </mxGeometry>
        </mxCell>
        <mxCell id="8puVXK4cIaAp6UsHXV3n-116" style="edgeStyle=orthogonalEdgeStyle;rounded=0;jumpSize=5;orthogonalLoop=1;jettySize=auto;html=1;strokeColor=#3F3F9E;strokeWidth=2;fontFamily=Verdana;fontSize=6;" parent="1" source="8puVXK4cIaAp6UsHXV3n-69" target="-iunoCh2YkMXYXxtYYaG-33" edge="1">
          <mxGeometry relative="1" as="geometry">
            <mxPoint x="280.5" y="332.02" as="sourcePoint" />
            <mxPoint x="218.5" y="224.51999999999998" as="targetPoint" />
            <Array as="points">
              <mxPoint x="341.5" y="297.02" />
              <mxPoint x="198.5" y="297.02" />
            </Array>
          </mxGeometry>
        </mxCell>
        <mxCell id="8puVXK4cIaAp6UsHXV3n-124" style="edgeStyle=orthogonalEdgeStyle;rounded=0;jumpSize=5;orthogonalLoop=1;jettySize=auto;html=1;strokeColor=#3F3F9E;strokeWidth=2;fontFamily=Verdana;fontSize=6;" parent="1" source="8puVXK4cIaAp6UsHXV3n-80" target="-iunoCh2YkMXYXxtYYaG-33" edge="1">
          <mxGeometry relative="1" as="geometry">
            <mxPoint x="351.5" y="322.02" as="sourcePoint" />
            <mxPoint x="208.5" y="214.51999999999998" as="targetPoint" />
            <Array as="points">
              <mxPoint x="260.5" y="357.02" />
              <mxPoint x="198.5" y="357.02" />
            </Array>
          </mxGeometry>
        </mxCell>
        <mxCell id="8puVXK4cIaAp6UsHXV3n-125" style="edgeStyle=orthogonalEdgeStyle;rounded=0;jumpSize=5;orthogonalLoop=1;jettySize=auto;html=1;strokeColor=#3F3F9E;strokeWidth=2;fontFamily=Verdana;fontSize=6;" parent="1" source="8puVXK4cIaAp6UsHXV3n-82" target="-iunoCh2YkMXYXxtYYaG-33" edge="1">
          <mxGeometry relative="1" as="geometry">
            <mxPoint x="361.5" y="332.02" as="sourcePoint" />
            <mxPoint x="218.5" y="224.51999999999998" as="targetPoint" />
            <Array as="points">
              <mxPoint x="300.5" y="357.02" />
              <mxPoint x="198.5" y="357.02" />
            </Array>
          </mxGeometry>
        </mxCell>
        <mxCell id="8puVXK4cIaAp6UsHXV3n-126" style="edgeStyle=orthogonalEdgeStyle;rounded=0;jumpSize=5;orthogonalLoop=1;jettySize=auto;html=1;strokeColor=#3F3F9E;strokeWidth=2;fontFamily=Verdana;fontSize=6;" parent="1" source="8puVXK4cIaAp6UsHXV3n-86" target="-iunoCh2YkMXYXxtYYaG-33" edge="1">
          <mxGeometry relative="1" as="geometry">
            <mxPoint x="371.5" y="342.02" as="sourcePoint" />
            <mxPoint x="228.5" y="234.51999999999998" as="targetPoint" />
            <Array as="points">
              <mxPoint x="341.5" y="357.02" />
              <mxPoint x="198.5" y="357.02" />
            </Array>
          </mxGeometry>
        </mxCell>
        <mxCell id="8puVXK4cIaAp6UsHXV3n-77" value="&lt;font face=&quot;Times New Roman&quot; size=&quot;1&quot;&gt;&lt;b style=&quot;font-size: 6px&quot;&gt;Finance&lt;/b&gt;&lt;/font&gt;&lt;br&gt;" style="text;html=1;resizable=0;points=[];autosize=1;align=left;verticalAlign=top;spacingTop=-4;fontSize=6;fontFamily=Verdana;" parent="1" vertex="1">
          <mxGeometry x="261.5" y="354.02" width="40" height="10" as="geometry" />
        </mxCell>
        <mxCell id="8puVXK4cIaAp6UsHXV3n-80" value="" style="aspect=fixed;perimeter=ellipsePerimeter;html=1;align=center;shadow=0;dashed=0;spacingTop=3;image;image=img/lib/active_directory/database.svg;labelBackgroundColor=#E6E6E6;strokeColor=#000000;" parent="1" vertex="1">
          <mxGeometry x="241.5" y="371.02" width="38" height="28" as="geometry" />
        </mxCell>
        <mxCell id="8puVXK4cIaAp6UsHXV3n-82" value="" style="aspect=fixed;perimeter=ellipsePerimeter;html=1;align=center;shadow=0;dashed=0;spacingTop=3;image;image=img/lib/active_directory/database.svg;labelBackgroundColor=#E6E6E6;strokeColor=#000000;" parent="1" vertex="1">
          <mxGeometry x="281.5" y="371.02" width="38" height="28" as="geometry" />
        </mxCell>
        <mxCell id="8puVXK4cIaAp6UsHXV3n-84" value="&lt;font face=&quot;Times New Roman&quot;&gt;&lt;b&gt;Finance&lt;/b&gt;&lt;/font&gt;" style="text;html=1;resizable=0;points=[];autosize=1;align=left;verticalAlign=top;spacingTop=-4;fontSize=6;fontFamily=Verdana;" parent="1" vertex="1">
          <mxGeometry x="302.5" y="357.02" width="40" height="10" as="geometry" />
        </mxCell>
        <mxCell id="8puVXK4cIaAp6UsHXV3n-86" value="" style="aspect=fixed;perimeter=ellipsePerimeter;html=1;align=center;shadow=0;dashed=0;spacingTop=3;image;image=img/lib/active_directory/database.svg;labelBackgroundColor=#E6E6E6;strokeColor=#000000;" parent="1" vertex="1">
          <mxGeometry x="322.5" y="371.02" width="38" height="28" as="geometry" />
        </mxCell>
        <mxCell id="8puVXK4cIaAp6UsHXV3n-117" value="" style="shape=image;verticalLabelPosition=bottom;labelBackgroundColor=#ffffff;verticalAlign=top;aspect=fixed;imageAspect=0;image=https://cdn.countryflags.com/thumbs/netherlands/flag-3d-round-250.png;" parent="1" vertex="1">
          <mxGeometry x="327.5" y="360.52" width="12" height="12" as="geometry" />
        </mxCell>
        <mxCell id="8puVXK4cIaAp6UsHXV3n-118" value="" style="shape=image;verticalLabelPosition=bottom;labelBackgroundColor=#ffffff;verticalAlign=top;aspect=fixed;imageAspect=0;image=https://www.freeiconspng.com/uploads/belgium-flag-icon-2.png;" parent="1" vertex="1">
          <mxGeometry x="285.5" y="360.52" width="12" height="12" as="geometry" />
        </mxCell>
        <mxCell id="8puVXK4cIaAp6UsHXV3n-119" value="" style="shape=image;verticalLabelPosition=bottom;labelBackgroundColor=#ffffff;verticalAlign=top;aspect=fixed;imageAspect=0;image=https://www.fg-a.com/flags/luxembourg-flag-button-2.png;" parent="1" vertex="1">
          <mxGeometry x="243" y="361.02" width="13" height="13" as="geometry" />
        </mxCell>
        <mxCell id="8puVXK4cIaAp6UsHXV3n-120" value="" style="shape=image;verticalLabelPosition=bottom;labelBackgroundColor=#ffffff;verticalAlign=top;aspect=fixed;imageAspect=0;image=https://www.nyse.com/publicdocs/nyse/events/images/ORCL-OB-1920-WEB_20190503.png;" parent="1" vertex="1">
          <mxGeometry x="244.5" y="391.02" width="35" height="20" as="geometry" />
        </mxCell>
        <mxCell id="8puVXK4cIaAp6UsHXV3n-121" value="" style="shape=image;verticalLabelPosition=bottom;labelBackgroundColor=#ffffff;verticalAlign=top;aspect=fixed;imageAspect=0;image=https://www.nyse.com/publicdocs/nyse/events/images/ORCL-OB-1920-WEB_20190503.png;" parent="1" vertex="1">
          <mxGeometry x="285" y="391.02" width="35" height="20" as="geometry" />
        </mxCell>
        <mxCell id="8puVXK4cIaAp6UsHXV3n-122" value="" style="shape=image;verticalLabelPosition=bottom;labelBackgroundColor=#ffffff;verticalAlign=top;aspect=fixed;imageAspect=0;image=https://www.nyse.com/publicdocs/nyse/events/images/ORCL-OB-1920-WEB_20190503.png;" parent="1" vertex="1">
          <mxGeometry x="325.5" y="391.02" width="35" height="20" as="geometry" />
        </mxCell>
        <mxCell id="8puVXK4cIaAp6UsHXV3n-129" style="edgeStyle=orthogonalEdgeStyle;rounded=0;jumpSize=5;orthogonalLoop=1;jettySize=auto;html=1;strokeColor=#3F3F9E;strokeWidth=2;fontFamily=Verdana;fontSize=6;" parent="1" source="8puVXK4cIaAp6UsHXV3n-18" target="-iunoCh2YkMXYXxtYYaG-34" edge="1">
          <mxGeometry relative="1" as="geometry">
            <mxPoint x="557" y="636.5" as="sourcePoint" />
            <mxPoint x="672" y="572.4947974730296" as="targetPoint" />
            <Array as="points">
              <mxPoint x="566" y="528" />
            </Array>
          </mxGeometry>
        </mxCell>
        <mxCell id="8puVXK4cIaAp6UsHXV3n-130" style="edgeStyle=orthogonalEdgeStyle;rounded=0;jumpSize=5;orthogonalLoop=1;jettySize=auto;html=1;strokeColor=#3F3F9E;strokeWidth=2;fontFamily=Verdana;fontSize=6;" parent="1" source="8puVXK4cIaAp6UsHXV3n-17" target="-iunoCh2YkMXYXxtYYaG-34" edge="1">
          <mxGeometry relative="1" as="geometry">
            <mxPoint x="567" y="646.5" as="sourcePoint" />
            <mxPoint x="682" y="582.4947974730296" as="targetPoint" />
            <Array as="points">
              <mxPoint x="93" y="420" />
              <mxPoint x="566" y="420" />
            </Array>
          </mxGeometry>
        </mxCell>
        <mxCell id="8puVXK4cIaAp6UsHXV3n-131" style="edgeStyle=orthogonalEdgeStyle;rounded=0;jumpSize=5;orthogonalLoop=1;jettySize=auto;html=1;strokeColor=#3F3F9E;strokeWidth=2;fontFamily=Verdana;fontSize=6;" parent="1" source="-iunoCh2YkMXYXxtYYaG-33" target="-iunoCh2YkMXYXxtYYaG-34" edge="1">
          <mxGeometry relative="1" as="geometry">
            <mxPoint x="670" y="502.54685061964756" as="sourcePoint" />
            <mxPoint x="255" y="268" as="targetPoint" />
            <Array as="points">
              <mxPoint x="219" y="217" />
            </Array>
          </mxGeometry>
        </mxCell>
        <mxCell id="8puVXK4cIaAp6UsHXV3n-132" style="edgeStyle=orthogonalEdgeStyle;rounded=0;jumpSize=5;orthogonalLoop=1;jettySize=auto;html=1;strokeColor=#3F3F9E;strokeWidth=2;fontFamily=Verdana;fontSize=6;" parent="1" source="8puVXK4cIaAp6UsHXV3n-18" target="wVaqROrAR56s4Joq7bS0-906" edge="1">
          <mxGeometry relative="1" as="geometry">
            <mxPoint x="191" y="636.5" as="sourcePoint" />
            <mxPoint x="306" y="572.4947974730296" as="targetPoint" />
            <Array as="points">
              <mxPoint x="390" y="520" />
              <mxPoint x="390" y="474" />
            </Array>
          </mxGeometry>
        </mxCell>
        <mxCell id="8puVXK4cIaAp6UsHXV3n-133" value="&lt;font size=&quot;1&quot; face=&quot;Georgia&quot;&gt;&lt;b style=&quot;font-size: 13px&quot;&gt;xFleet Reporting&lt;/b&gt;&lt;/font&gt;&lt;br&gt;" style="text;html=1;resizable=0;points=[];autosize=1;align=left;verticalAlign=top;spacingTop=-4;fontSize=6;fontFamily=Verdana;" parent="1" vertex="1">
          <mxGeometry x="512" y="464" width="130" height="10" as="geometry" />
        </mxCell>
        <mxCell id="8puVXK4cIaAp6UsHXV3n-135" value="&lt;font size=&quot;1&quot; face=&quot;Georgia&quot;&gt;&lt;b style=&quot;font-size: 13px&quot;&gt;Hyperion&lt;/b&gt;&lt;/font&gt;&lt;br&gt;" style="text;html=1;resizable=0;points=[];autosize=1;align=left;verticalAlign=top;spacingTop=-4;fontSize=6;fontFamily=Verdana;" parent="1" vertex="1">
          <mxGeometry x="514" y="545" width="80" height="10" as="geometry" />
        </mxCell>
        <mxCell id="8puVXK4cIaAp6UsHXV3n-136" style="edgeStyle=orthogonalEdgeStyle;rounded=0;jumpSize=5;orthogonalLoop=1;jettySize=auto;html=1;strokeColor=#3F3F9E;strokeWidth=2;fontFamily=Verdana;fontSize=6;" parent="1" source="wVaqROrAR56s4Joq7bS0-907" target="8puVXK4cIaAp6UsHXV3n-18" edge="1">
          <mxGeometry relative="1" as="geometry">
            <mxPoint x="334.5" y="537.5" as="sourcePoint" />
            <mxPoint x="464" y="484" as="targetPoint" />
            <Array as="points">
              <mxPoint x="430" y="528" />
              <mxPoint x="430" y="528" />
            </Array>
          </mxGeometry>
        </mxCell>
        <mxCell id="8puVXK4cIaAp6UsHXV3n-145" value="&lt;div style=&quot;text-align: center&quot;&gt;&lt;br&gt;&lt;/div&gt;" style="fillColor=#f5f5f5;strokeColor=#000000;shadow=0;fontSize=14;align=left;spacing=10;fontColor=#333333;9E9E9E;verticalAlign=top;spacingTop=-4;fontStyle=0;spacingLeft=40;html=1;" parent="1" vertex="1">
          <mxGeometry x="969" y="300" width="200" height="90" as="geometry" />
        </mxCell>
        <mxCell id="8puVXK4cIaAp6UsHXV3n-143" value="&lt;div style=&quot;text-align: center&quot;&gt;&lt;br&gt;&lt;/div&gt;" style="fillColor=#f5f5f5;strokeColor=#000000;shadow=0;fontSize=14;align=left;spacing=10;fontColor=#333333;9E9E9E;verticalAlign=top;spacingTop=-4;fontStyle=0;spacingLeft=40;html=1;" parent="1" vertex="1">
          <mxGeometry x="969" y="250" width="100" height="50" as="geometry" />
        </mxCell>
        <mxCell id="8puVXK4cIaAp6UsHXV3n-140" value="" style="edgeStyle=orthogonalEdgeStyle;fontSize=12;html=1;endArrow=blockThin;endFill=1;rounded=0;strokeWidth=2;endSize=4;startSize=4;dashed=0;strokeColor=#4284F3;" parent="1" source="8puVXK4cIaAp6UsHXV3n-142" target="8puVXK4cIaAp6UsHXV3n-141" edge="1">
          <mxGeometry width="100" relative="1" as="geometry">
            <mxPoint x="1295.5" y="260.5" as="sourcePoint" />
            <mxPoint x="1259.5" y="257.5" as="targetPoint" />
            <Array as="points" />
          </mxGeometry>
        </mxCell>
        <mxCell id="8puVXK4cIaAp6UsHXV3n-141" value="" style="outlineConnect=0;dashed=0;verticalLabelPosition=bottom;verticalAlign=top;align=center;html=1;shape=mxgraph.aws3.s3;fillColor=#E05243;gradientColor=none;" parent="1" vertex="1">
          <mxGeometry x="1034" y="255" width="33" height="38" as="geometry" />
        </mxCell>
        <mxCell id="8puVXK4cIaAp6UsHXV3n-142" value="" style="shape=image;html=1;verticalAlign=top;verticalLabelPosition=bottom;labelBackgroundColor=#ffffff;imageAspect=0;aspect=fixed;image=https://cdn2.iconfinder.com/data/icons/whcompare-servers-web-hosting/50/sftp-128.png;strokeColor=#000000;" parent="1" vertex="1">
          <mxGeometry x="974" y="255" width="39" height="39" as="geometry" />
        </mxCell>
        <mxCell id="8puVXK4cIaAp6UsHXV3n-144" value="" style="shape=image;verticalLabelPosition=bottom;labelBackgroundColor=#ffffff;verticalAlign=top;aspect=fixed;imageAspect=0;image=http://decisionnelclient.org/wp-content/uploads/2017/09/rstudio-hex-shiny-dot-psd.png;" parent="1" vertex="1">
          <mxGeometry x="1096" y="316" width="55" height="63" as="geometry" />
        </mxCell>
        <mxCell id="8puVXK4cIaAp6UsHXV3n-148" style="edgeStyle=orthogonalEdgeStyle;rounded=0;jumpSize=5;orthogonalLoop=1;jettySize=auto;html=1;strokeColor=#3F3F9E;strokeWidth=2;fontFamily=Verdana;fontSize=6;" parent="1" source="wVaqROrAR56s4Joq7bS0-825" target="-iunoCh2YkMXYXxtYYaG-34" edge="1">
          <mxGeometry relative="1" as="geometry">
            <mxPoint x="469" y="502.5" as="sourcePoint" />
            <mxPoint x="255" y="268.33333333333337" as="targetPoint" />
            <Array as="points">
              <mxPoint x="469" y="270" />
            </Array>
          </mxGeometry>
        </mxCell>
        <mxCell id="8puVXK4cIaAp6UsHXV3n-149" style="edgeStyle=orthogonalEdgeStyle;rounded=0;jumpSize=5;orthogonalLoop=1;jettySize=auto;html=1;strokeColor=#3F3F9E;strokeWidth=2;fontFamily=Verdana;fontSize=6;" parent="1" source="8puVXK4cIaAp6UsHXV3n-141" target="-iunoCh2YkMXYXxtYYaG-34" edge="1">
          <mxGeometry relative="1" as="geometry">
            <mxPoint x="479" y="306" as="sourcePoint" />
            <mxPoint x="255" y="268.33333333333337" as="targetPoint" />
            <Array as="points">
              <mxPoint x="682" y="250" />
            </Array>
          </mxGeometry>
        </mxCell>
        <mxCell id="8puVXK4cIaAp6UsHXV3n-151" value="&lt;div style=&quot;text-align: right&quot;&gt;Others&lt;/div&gt;" style="fillColor=#F6F6F6;strokeColor=#000000;shadow=0;gradientColor=none;fontSize=14;align=left;spacing=10;fontColor=#717171;9E9E9E;verticalAlign=top;spacingTop=-4;fontStyle=0;spacingLeft=40;html=1;" parent="1" vertex="1">
          <mxGeometry x="434" y="600" width="240" height="180" as="geometry" />
        </mxCell>
        <mxCell id="8puVXK4cIaAp6UsHXV3n-152" value="" style="aspect=fixed;perimeter=ellipsePerimeter;html=1;align=center;shadow=0;dashed=0;spacingTop=3;image;image=img/lib/active_directory/database_server.svg;labelBackgroundColor=#E6E6E6;strokeColor=#000000;" parent="1" vertex="1">
          <mxGeometry x="456" y="630.5" width="58" height="70" as="geometry" />
        </mxCell>
        <mxCell id="8puVXK4cIaAp6UsHXV3n-153" value="" style="shape=image;verticalLabelPosition=bottom;labelBackgroundColor=#ffffff;verticalAlign=top;aspect=fixed;imageAspect=0;image=https://www.cut-e.com/fileadmin/user_upload/1_logos/integrationpartner/Logo-successfactors-2016.png;" parent="1" vertex="1">
          <mxGeometry x="530.5" y="611.5" width="93" height="93" as="geometry" />
        </mxCell>
        <mxCell id="8puVXK4cIaAp6UsHXV3n-154" style="edgeStyle=orthogonalEdgeStyle;rounded=0;jumpSize=5;orthogonalLoop=1;jettySize=auto;html=1;strokeColor=#3F3F9E;strokeWidth=2;fontFamily=Verdana;fontSize=6;" parent="1" source="wVaqROrAR56s4Joq7bS0-738" target="wVaqROrAR56s4Joq7bS0-772" edge="1">
          <mxGeometry relative="1" as="geometry">
            <mxPoint x="625.3435563055111" y="677.5952380952381" as="sourcePoint" />
            <mxPoint x="755.5017178536468" y="631.8809523809523" as="targetPoint" />
            <Array as="points">
              <mxPoint x="340" y="392" />
            </Array>
          </mxGeometry>
        </mxCell>
        <mxCell id="8puVXK4cIaAp6UsHXV3n-156" style="edgeStyle=orthogonalEdgeStyle;rounded=0;jumpSize=5;orthogonalLoop=1;jettySize=auto;html=1;strokeColor=#3F3F9E;strokeWidth=2;fontFamily=Verdana;fontSize=6;" parent="1" source="wVaqROrAR56s4Joq7bS0-772" target="8puVXK4cIaAp6UsHXV3n-144" edge="1">
          <mxGeometry relative="1" as="geometry">
            <mxPoint x="935.8333333333333" y="374.2380952380952" as="sourcePoint" />
            <mxPoint x="1066.3095238095239" y="328.5238095238094" as="targetPoint" />
            <Array as="points">
              <mxPoint x="1029" y="348" />
              <mxPoint x="1029" y="348" />
            </Array>
          </mxGeometry>
        </mxCell>
        <mxCell id="8puVXK4cIaAp6UsHXV3n-158" style="edgeStyle=orthogonalEdgeStyle;rounded=0;jumpSize=5;orthogonalLoop=1;jettySize=auto;html=1;strokeColor=#3F3F9E;strokeWidth=2;fontFamily=Verdana;fontSize=6;" parent="1" source="wVaqROrAR56s4Joq7bS0-745" target="wVaqROrAR56s4Joq7bS0-773" edge="1">
          <mxGeometry relative="1" as="geometry">
            <mxPoint x="665.3333333333333" y="717.2380952380952" as="sourcePoint" />
            <mxPoint x="795.8095238095239" y="671.5238095238094" as="targetPoint" />
            <Array as="points">
              <mxPoint x="350" y="260" />
              <mxPoint x="534" y="260" />
            </Array>
          </mxGeometry>
        </mxCell>
        <mxCell id="8puVXK4cIaAp6UsHXV3n-161" value="" style="shape=image;verticalLabelPosition=bottom;labelBackgroundColor=#ffffff;verticalAlign=top;aspect=fixed;imageAspect=0;image=https://www.nyse.com/publicdocs/nyse/events/images/ORCL-OB-1920-WEB_20190503.png;" parent="1" vertex="1">
          <mxGeometry x="516" y="550" width="98" height="56" as="geometry" />
        </mxCell>
        <mxCell id="8puVXK4cIaAp6UsHXV3n-162" value="" style="shape=image;verticalLabelPosition=bottom;labelBackgroundColor=#ffffff;verticalAlign=top;aspect=fixed;imageAspect=0;image=http://web.corballis.ie/technology_logos/microsoft-sql-server-logo-180x180.png;" parent="1" vertex="1">
          <mxGeometry x="534" y="477" width="70" height="70" as="geometry" />
        </mxCell>
        <mxCell id="8puVXK4cIaAp6UsHXV3n-163" value="&lt;font style=&quot;font-size: 10px&quot;&gt;SFSEAWESP509&lt;/font&gt;" style="text;html=1;resizable=0;points=[];autosize=1;align=left;verticalAlign=top;spacingTop=-4;" parent="1" vertex="1">
          <mxGeometry x="309.5" y="498" width="90" height="20" as="geometry" />
        </mxCell>
        <mxCell id="8puVXK4cIaAp6UsHXV3n-165" value="" style="shape=image;verticalLabelPosition=bottom;labelBackgroundColor=#ffffff;verticalAlign=top;aspect=fixed;imageAspect=0;image=https://frontier.com.co/content/images/thumbs/0001610_licencia-windows-server-standard-2012-r2-64-bit-licencia-2-procesadores-2-maquinas-virtuales-espanol_550.png;" parent="1" vertex="1">
          <mxGeometry x="140" y="518" width="50" height="50" as="geometry" />
        </mxCell>
        <mxCell id="8puVXK4cIaAp6UsHXV3n-166" value="" style="shape=image;verticalLabelPosition=bottom;labelBackgroundColor=#ffffff;verticalAlign=top;aspect=fixed;imageAspect=0;image=https://frontier.com.co/content/images/thumbs/0001610_licencia-windows-server-standard-2012-r2-64-bit-licencia-2-procesadores-2-maquinas-virtuales-espanol_550.png;" parent="1" vertex="1">
          <mxGeometry x="324.5" y="524" width="50" height="50" as="geometry" />
        </mxCell>
        <mxCell id="8puVXK4cIaAp6UsHXV3n-167" value="&lt;font style=&quot;font-size: 10px&quot;&gt;IFSEAWESP509&lt;/font&gt;" style="text;html=1;resizable=0;points=[];autosize=1;align=left;verticalAlign=top;spacingTop=-4;" parent="1" vertex="1">
          <mxGeometry x="117" y="498" width="90" height="20" as="geometry" />
        </mxCell>
      </root>
    </mxGraphModel>
  </diagram>
</mxfile>
